  0
SECTION
  2
HEADER
  9
$ACADVER
  1
AC1009
  9
$FILLMODE
 70
1
  9
$EXTMIN
 10
-0.012500
 20
0.198500
 30
0.000000
  9
$EXTMAX
 10
4.305709
 20
2.425000
 30
0.000000
  0
ENDSEC
  0
SECTION
  2
TABLES
  0
TABLE
  2
LTYPE
 70
1
  0
LTYPE
  2
CONTINUOUS
 70
64
  3
Solid line
 72
65
 73
0
 40
0
  0
ENDTAB
  0
TABLE
  2
LAYER
 70
255
  0
LAYER
  2
1
 70
64
 62
22
  6
CONTINUOUS
  0
LAYER
  2
20
 70
64
 62
30
  6
CONTINUOUS
  0
ENDTAB
  0
ENDSEC
  0
SECTION
  2
BLOCKS
  0
BLOCK
  8
0
  2
RECT
 70
64
 10
0.000000
 20
0.000000
 30
0.000000
  3
RECT
  0
SOLID
  8
0
 10
-0.500000
 20
-0.500000
 30
0.000000
 11
0.500000
 21
-0.500000
 31
0.000000
 12
-0.500000
 22
0.500000
 32
0.000000
 13
0.500000
 23
0.500000
 33
0.000000
  0
ENDBLK
  8
0
  0
BLOCK
  8
0
  2
PIE
 70
64
 10
0.000000
 20
0.000000
 30
0.000000
  3
PIE
  0
POLYLINE
  8
0
 66
1
 10
0.000000
 20
0.000000
 30
0.000000
 40
0.500000
 41
0.500000
 70
0
  0
VERTEX
  8
0
 10
0.000000
 20
-0.250000
 30
0.000000
 42
1.000000
  0
VERTEX
  8
0
 10
0.000000
 20
0.250000
 30
0.000000
 42
1.000000
  0
VERTEX
  8
0
 10
0.000000
 20
-0.250000
 30
0.000000
  0
SEQEND
  8
0
  0
ENDBLK
  8
0
  0
BLOCK
  8
0
  2
OCTAGONP
 70
64
 10
0.000000
 20
0.000000
 30
0.000000
  3
OCTAGONP
  0
POLYLINE
  8
0
 66
1
 10
0.000000
 20
0.000000
 30
0.000000
 40
0.500000
 41
0.500000
 70
0
  0
VERTEX
  8
0
 10
-0.250000
 20
-0.103553
 30
0.000000
  0
VERTEX
  8
0
 10
-0.250000
 20
0.103553
 30
0.000000
  0
VERTEX
  8
0
 10
-0.103553
 20
0.250000
 30
0.000000
  0
VERTEX
  8
0
 10
0.103553
 20
0.250000
 30
0.000000
  0
VERTEX
  8
0
 10
0.250000
 20
0.103553
 30
0.000000
  0
VERTEX
  8
0
 10
0.250000
 20
-0.103553
 30
0.000000
  0
VERTEX
  8
0
 10
0.103553
 20
-0.250000
 30
0.000000
  0
VERTEX
  8
0
 10
-0.103553
 20
-0.250000
 30
0.000000
  0
VERTEX
  8
0
 10
-0.250000
 20
-0.103553
 30
0.000000
  0
VERTEX
  8
0
 10
-0.250000
 20
0.103553
 30
0.000000
  0
SEQEND
  8
0
  0
ENDBLK
  8
0
  0
BLOCK
  8
0
  2
SQUAREP
 70
64
 10
0.000000
 20
0.000000
 30
0.000000
  3
SQUAREP
  0
SOLID
  8
0
 10
-0.500000
 20
-0.500000
 30
0.000000
 11
0.500000
 21
-0.500000
 31
0.000000
 12
-0.500000
 22
0.500000
 32
0.000000
 13
0.500000
 23
0.500000
 33
0.000000
  0
ENDBLK
  8
0
  0
BLOCK
  8
0
  2
ROUNDP
 70
64
 10
0.000000
 20
0.000000
 30
0.000000
  3
ROUNDP
  0
POLYLINE
  8
0
 66
1
 10
0.000000
 20
0.000000
 30
0.000000
 40
0.500000
 41
0.500000
 70
0
  0
VERTEX
  8
0
 10
0.000000
 20
-0.250000
 30
0.000000
 42
1.000000
  0
VERTEX
  8
0
 10
0.000000
 20
0.250000
 30
0.000000
 42
1.000000
  0
VERTEX
  8
0
 10
0.000000
 20
-0.250000
 30
0.000000
  0
SEQEND
  8
0
  0
ENDBLK
  8
0
  0
BLOCK
  8
0
  2
ANNULUSP
 70
64
 10
0.000000
 20
0.000000
 30
0.000000
  3
ANNULUSP
  0
POLYLINE
  8
0
 66
1
 10
0.000000
 20
0.000000
 30
0.000000
 40
0.500000
 41
0.500000
 70
0
  0
VERTEX
  8
0
 10
0.000000
 20
-0.250000
 30
0.000000
 42
1.000000
  0
VERTEX
  8
0
 10
0.000000
 20
0.250000
 30
0.000000
 42
1.000000
  0
VERTEX
  8
0
 10
0.000000
 20
-0.250000
 30
0.000000
  0
SEQEND
  8
0
  0
ENDBLK
  8
0
  0
BLOCK
  8
0
  2
THERMALP
 70
64
 10
0.000000
 20
0.000000
 30
0.000000
  3
THERMALP
  0
POLYLINE
  8
0
 66
1
 10
0.000000
 20
0.000000
 30
0.000000
 40
0.100000
 41
0.100000
 70
0
  0
VERTEX
  8
0
 10
-0.237868
 20
0.450000
 30
0.000000
  0
VERTEX
  8
0
 10
0.237868
 20
0.450000
 30
0.000000
  0
SEQEND
  8
0
  0
POLYLINE
  8
0
 66
1
 10
0.000000
 20
0.000000
 30
0.000000
 40
0.050000
 41
0.050000
 70
0
  0
VERTEX
  8
0
 10
0.237868
 20
0.425000
 30
0.000000
 42
1.000000
  0
VERTEX
  8
0
 10
0.237868
 20
0.475000
 30
0.000000
  0
SEQEND
  8
0
  0
POLYLINE
  8
0
 66
1
 10
0.000000
 20
0.000000
 30
0.000000
 40
0.050000
 41
0.050000
 70
0
  0
VERTEX
  8
0
 10
-0.237868
 20
0.475000
 30
0.000000
 42
1.000000
  0
VERTEX
  8
0
 10
-0.237868
 20
0.425000
 30
0.000000
  0
SEQEND
  8
0
  0
POLYLINE
  8
0
 66
1
 10
0.000000
 20
0.000000
 30
0.000000
 40
0.100000
 41
0.100000
 70
0
  0
VERTEX
  8
0
 10
0.450000
 20
0.237868
 30
0.000000
  0
VERTEX
  8
0
 10
0.450000
 20
-0.237868
 30
0.000000
  0
SEQEND
  8
0
  0
POLYLINE
  8
0
 66
1
 10
0.000000
 20
0.000000
 30
0.000000
 40
0.050000
 41
0.050000
 70
0
  0
VERTEX
  8
0
 10
0.425000
 20
-0.237868
 30
0.000000
 42
1.000000
  0
VERTEX
  8
0
 10
0.475000
 20
-0.237868
 30
0.000000
  0
SEQEND
  8
0
  0
POLYLINE
  8
0
 66
1
 10
0.000000
 20
0.000000
 30
0.000000
 40
0.050000
 41
0.050000
 70
0
  0
VERTEX
  8
0
 10
0.475000
 20
0.237868
 30
0.000000
 42
1.000000
  0
VERTEX
  8
0
 10
0.425000
 20
0.237868
 30
0.000000
  0
SEQEND
  8
0
  0
POLYLINE
  8
0
 66
1
 10
0.000000
 20
0.000000
 30
0.000000
 40
0.100000
 41
0.100000
 70
0
  0
VERTEX
  8
0
 10
0.237868
 20
-0.450000
 30
0.000000
  0
VERTEX
  8
0
 10
-0.237868
 20
-0.450000
 30
0.000000
  0
SEQEND
  8
0
  0
POLYLINE
  8
0
 66
1
 10
0.000000
 20
0.000000
 30
0.000000
 40
0.050000
 41
0.050000
 70
0
  0
VERTEX
  8
0
 10
-0.237868
 20
-0.425000
 30
0.000000
 42
1.000000
  0
VERTEX
  8
0
 10
-0.237868
 20
-0.475000
 30
0.000000
  0
SEQEND
  8
0
  0
POLYLINE
  8
0
 66
1
 10
0.000000
 20
0.000000
 30
0.000000
 40
0.050000
 41
0.050000
 70
0
  0
VERTEX
  8
0
 10
0.237868
 20
-0.475000
 30
0.000000
 42
1.000000
  0
VERTEX
  8
0
 10
0.237868
 20
-0.425000
 30
0.000000
  0
SEQEND
  8
0
  0
POLYLINE
  8
0
 66
1
 10
0.000000
 20
0.000000
 30
0.000000
 40
0.100000
 41
0.100000
 70
0
  0
VERTEX
  8
0
 10
-0.450000
 20
-0.237868
 30
0.000000
  0
VERTEX
  8
0
 10
-0.450000
 20
0.237868
 30
0.000000
  0
SEQEND
  8
0
  0
POLYLINE
  8
0
 66
1
 10
0.000000
 20
0.000000
 30
0.000000
 40
0.050000
 41
0.050000
 70
0
  0
VERTEX
  8
0
 10
-0.425000
 20
0.237868
 30
0.000000
 42
1.000000
  0
VERTEX
  8
0
 10
-0.475000
 20
0.237868
 30
0.000000
  0
SEQEND
  8
0
  0
POLYLINE
  8
0
 66
1
 10
0.000000
 20
0.000000
 30
0.000000
 40
0.050000
 41
0.050000
 70
0
  0
VERTEX
  8
0
 10
-0.475000
 20
-0.237868
 30
0.000000
 42
1.000000
  0
VERTEX
  8
0
 10
-0.425000
 20
-0.237868
 30
0.000000
  0
SEQEND
  8
0
  0
ENDBLK
  8
0
  0
BLOCK
  8
0
  2
OCTAGONV
 70
64
 10
0.000000
 20
0.000000
 30
0.000000
  3
OCTAGONV
  0
POLYLINE
  8
0
 66
1
 10
0.000000
 20
0.000000
 30
0.000000
 40
0.500000
 41
0.500000
 70
0
  0
VERTEX
  8
0
 10
-0.250000
 20
-0.103553
 30
0.000000
  0
VERTEX
  8
0
 10
-0.250000
 20
0.103553
 30
0.000000
  0
VERTEX
  8
0
 10
-0.103553
 20
0.250000
 30
0.000000
  0
VERTEX
  8
0
 10
0.103553
 20
0.250000
 30
0.000000
  0
VERTEX
  8
0
 10
0.250000
 20
0.103553
 30
0.000000
  0
VERTEX
  8
0
 10
0.250000
 20
-0.103553
 30
0.000000
  0
VERTEX
  8
0
 10
0.103553
 20
-0.250000
 30
0.000000
  0
VERTEX
  8
0
 10
-0.103553
 20
-0.250000
 30
0.000000
  0
VERTEX
  8
0
 10
-0.250000
 20
-0.103553
 30
0.000000
  0
VERTEX
  8
0
 10
-0.250000
 20
0.103553
 30
0.000000
  0
SEQEND
  8
0
  0
ENDBLK
  8
0
  0
BLOCK
  8
0
  2
SQUAREV
 70
64
 10
0.000000
 20
0.000000
 30
0.000000
  3
SQUAREV
  0
SOLID
  8
0
 10
-0.500000
 20
-0.500000
 30
0.000000
 11
0.500000
 21
-0.500000
 31
0.000000
 12
-0.500000
 22
0.500000
 32
0.000000
 13
0.500000
 23
0.500000
 33
0.000000
  0
ENDBLK
  8
0
  0
BLOCK
  8
0
  2
ROUNDV
 70
64
 10
0.000000
 20
0.000000
 30
0.000000
  3
ROUNDV
  0
POLYLINE
  8
0
 66
1
 10
0.000000
 20
0.000000
 30
0.000000
 40
0.500000
 41
0.500000
 70
0
  0
VERTEX
  8
0
 10
0.000000
 20
-0.250000
 30
0.000000
 42
1.000000
  0
VERTEX
  8
0
 10
0.000000
 20
0.250000
 30
0.000000
 42
1.000000
  0
VERTEX
  8
0
 10
0.000000
 20
-0.250000
 30
0.000000
  0
SEQEND
  8
0
  0
ENDBLK
  8
0
  0
BLOCK
  8
0
  2
ANNULUSV
 70
64
 10
0.000000
 20
0.000000
 30
0.000000
  3
ANNULUSV
  0
POLYLINE
  8
0
 66
1
 10
0.000000
 20
0.000000
 30
0.000000
 40
0.500000
 41
0.500000
 70
0
  0
VERTEX
  8
0
 10
0.000000
 20
-0.250000
 30
0.000000
 42
1.000000
  0
VERTEX
  8
0
 10
0.000000
 20
0.250000
 30
0.000000
 42
1.000000
  0
VERTEX
  8
0
 10
0.000000
 20
-0.250000
 30
0.000000
  0
SEQEND
  8
0
  0
ENDBLK
  8
0
  0
BLOCK
  8
0
  2
THERMALV
 70
64
 10
0.000000
 20
0.000000
 30
0.000000
  3
THERMALV
  0
POLYLINE
  8
0
 66
1
 10
0.000000
 20
0.000000
 30
0.000000
 40
0.100000
 41
0.100000
 70
0
  0
VERTEX
  8
0
 10
-0.237868
 20
0.450000
 30
0.000000
  0
VERTEX
  8
0
 10
0.237868
 20
0.450000
 30
0.000000
  0
SEQEND
  8
0
  0
POLYLINE
  8
0
 66
1
 10
0.000000
 20
0.000000
 30
0.000000
 40
0.050000
 41
0.050000
 70
0
  0
VERTEX
  8
0
 10
0.237868
 20
0.425000
 30
0.000000
 42
1.000000
  0
VERTEX
  8
0
 10
0.237868
 20
0.475000
 30
0.000000
  0
SEQEND
  8
0
  0
POLYLINE
  8
0
 66
1
 10
0.000000
 20
0.000000
 30
0.000000
 40
0.050000
 41
0.050000
 70
0
  0
VERTEX
  8
0
 10
-0.237868
 20
0.475000
 30
0.000000
 42
1.000000
  0
VERTEX
  8
0
 10
-0.237868
 20
0.425000
 30
0.000000
  0
SEQEND
  8
0
  0
POLYLINE
  8
0
 66
1
 10
0.000000
 20
0.000000
 30
0.000000
 40
0.100000
 41
0.100000
 70
0
  0
VERTEX
  8
0
 10
0.450000
 20
0.237868
 30
0.000000
  0
VERTEX
  8
0
 10
0.450000
 20
-0.237868
 30
0.000000
  0
SEQEND
  8
0
  0
POLYLINE
  8
0
 66
1
 10
0.000000
 20
0.000000
 30
0.000000
 40
0.050000
 41
0.050000
 70
0
  0
VERTEX
  8
0
 10
0.425000
 20
-0.237868
 30
0.000000
 42
1.000000
  0
VERTEX
  8
0
 10
0.475000
 20
-0.237868
 30
0.000000
  0
SEQEND
  8
0
  0
POLYLINE
  8
0
 66
1
 10
0.000000
 20
0.000000
 30
0.000000
 40
0.050000
 41
0.050000
 70
0
  0
VERTEX
  8
0
 10
0.475000
 20
0.237868
 30
0.000000
 42
1.000000
  0
VERTEX
  8
0
 10
0.425000
 20
0.237868
 30
0.000000
  0
SEQEND
  8
0
  0
POLYLINE
  8
0
 66
1
 10
0.000000
 20
0.000000
 30
0.000000
 40
0.100000
 41
0.100000
 70
0
  0
VERTEX
  8
0
 10
0.237868
 20
-0.450000
 30
0.000000
  0
VERTEX
  8
0
 10
-0.237868
 20
-0.450000
 30
0.000000
  0
SEQEND
  8
0
  0
POLYLINE
  8
0
 66
1
 10
0.000000
 20
0.000000
 30
0.000000
 40
0.050000
 41
0.050000
 70
0
  0
VERTEX
  8
0
 10
-0.237868
 20
-0.425000
 30
0.000000
 42
1.000000
  0
VERTEX
  8
0
 10
-0.237868
 20
-0.475000
 30
0.000000
  0
SEQEND
  8
0
  0
POLYLINE
  8
0
 66
1
 10
0.000000
 20
0.000000
 30
0.000000
 40
0.050000
 41
0.050000
 70
0
  0
VERTEX
  8
0
 10
0.237868
 20
-0.475000
 30
0.000000
 42
1.000000
  0
VERTEX
  8
0
 10
0.237868
 20
-0.425000
 30
0.000000
  0
SEQEND
  8
0
  0
POLYLINE
  8
0
 66
1
 10
0.000000
 20
0.000000
 30
0.000000
 40
0.100000
 41
0.100000
 70
0
  0
VERTEX
  8
0
 10
-0.450000
 20
-0.237868
 30
0.000000
  0
VERTEX
  8
0
 10
-0.450000
 20
0.237868
 30
0.000000
  0
SEQEND
  8
0
  0
POLYLINE
  8
0
 66
1
 10
0.000000
 20
0.000000
 30
0.000000
 40
0.050000
 41
0.050000
 70
0
  0
VERTEX
  8
0
 10
-0.425000
 20
0.237868
 30
0.000000
 42
1.000000
  0
VERTEX
  8
0
 10
-0.475000
 20
0.237868
 30
0.000000
  0
SEQEND
  8
0
  0
POLYLINE
  8
0
 66
1
 10
0.000000
 20
0.000000
 30
0.000000
 40
0.050000
 41
0.050000
 70
0
  0
VERTEX
  8
0
 10
-0.475000
 20
-0.237868
 30
0.000000
 42
1.000000
  0
VERTEX
  8
0
 10
-0.425000
 20
-0.237868
 30
0.000000
  0
SEQEND
  8
0
  0
ENDBLK
  8
0
  0
ENDSEC
  0
SECTION
  2
ENTITIES
  0
POLYLINE
  8
20
 66
1
 10
0.000000
 20
0.000000
 30
0.000000
 40
0.003000
 41
0.003000
 70
0
  0
VERTEX
  8
20
 10
0.800000
 20
0.200000
 30
0.000000
  0
VERTEX
  8
20
 10
0.000000
 20
1.000000
 30
0.000000
  0
SEQEND
  8
0
  0
POLYLINE
  8
20
 66
1
 10
0.000000
 20
0.000000
 30
0.000000
 40
0.001500
 41
0.001500
 70
0
  0
VERTEX
  8
20
 10
0.000530
 20
1.000530
 30
0.000000
 42
1.000000
  0
VERTEX
  8
20
 10
-0.000530
 20
0.999470
 30
0.000000
  0
SEQEND
  8
0
  0
POLYLINE
  8
20
 66
1
 10
0.000000
 20
0.000000
 30
0.000000
 40
0.001500
 41
0.001500
 70
0
  0
VERTEX
  8
20
 10
0.799470
 20
0.199470
 30
0.000000
 42
1.000000
  0
VERTEX
  8
20
 10
0.800530
 20
0.200530
 30
0.000000
  0
SEQEND
  8
0
  0
POLYLINE
  8
20
 66
1
 10
0.000000
 20
0.000000
 30
0.000000
 40
0.003000
 41
0.003000
 70
0
  0
VERTEX
  8
20
 10
0.000000
 20
1.000000
 30
0.000000
  0
VERTEX
  8
20
 10
0.000000
 20
2.200000
 30
0.000000
  0
SEQEND
  8
0
  0
POLYLINE
  8
20
 66
1
 10
0.000000
 20
0.000000
 30
0.000000
 40
0.001500
 41
0.001500
 70
0
  0
VERTEX
  8
20
 10
0.000750
 20
2.200000
 30
0.000000
 42
1.000000
  0
VERTEX
  8
20
 10
-0.000750
 20
2.200000
 30
0.000000
  0
SEQEND
  8
0
  0
POLYLINE
  8
20
 66
1
 10
0.000000
 20
0.000000
 30
0.000000
 40
0.001500
 41
0.001500
 70
0
  0
VERTEX
  8
20
 10
-0.000750
 20
1.000000
 30
0.000000
 42
1.000000
  0
VERTEX
  8
20
 10
0.000750
 20
1.000000
 30
0.000000
  0
SEQEND
  8
0
  0
POLYLINE
  8
20
 66
1
 10
0.000000
 20
0.000000
 30
0.000000
 40
0.003000
 41
0.003000
 70
0
  0
VERTEX
  8
20
 10
0.000000
 20
2.200000
 30
0.000000
  0
VERTEX
  8
20
 10
4.100000
 20
2.200000
 30
0.000000
  0
SEQEND
  8
0
  0
POLYLINE
  8
20
 66
1
 10
0.000000
 20
0.000000
 30
0.000000
 40
0.001500
 41
0.001500
 70
0
  0
VERTEX
  8
20
 10
4.100000
 20
2.199250
 30
0.000000
 42
1.000000
  0
VERTEX
  8
20
 10
4.100000
 20
2.200750
 30
0.000000
  0
SEQEND
  8
0
  0
POLYLINE
  8
20
 66
1
 10
0.000000
 20
0.000000
 30
0.000000
 40
0.001500
 41
0.001500
 70
0
  0
VERTEX
  8
20
 10
0.000000
 20
2.200750
 30
0.000000
 42
1.000000
  0
VERTEX
  8
20
 10
0.000000
 20
2.199250
 30
0.000000
  0
SEQEND
  8
0
  0
POLYLINE
  8
20
 66
1
 10
0.000000
 20
0.000000
 30
0.000000
 40
0.003000
 41
0.003000
 70
0
  0
VERTEX
  8
20
 10
0.800000
 20
0.200000
 30
0.000000
  0
VERTEX
  8
20
 10
3.000000
 20
0.200000
 30
0.000000
  0
SEQEND
  8
0
  0
POLYLINE
  8
20
 66
1
 10
0.000000
 20
0.000000
 30
0.000000
 40
0.001500
 41
0.001500
 70
0
  0
VERTEX
  8
20
 10
3.000000
 20
0.199250
 30
0.000000
 42
1.000000
  0
VERTEX
  8
20
 10
3.000000
 20
0.200750
 30
0.000000
  0
SEQEND
  8
0
  0
POLYLINE
  8
20
 66
1
 10
0.000000
 20
0.000000
 30
0.000000
 40
0.001500
 41
0.001500
 70
0
  0
VERTEX
  8
20
 10
0.800000
 20
0.200750
 30
0.000000
 42
1.000000
  0
VERTEX
  8
20
 10
0.800000
 20
0.199250
 30
0.000000
  0
SEQEND
  8
0
  0
POLYLINE
  8
20
 66
1
 10
0.000000
 20
0.000000
 30
0.000000
 40
0.003000
 41
0.003000
 70
0
  0
VERTEX
  8
20
 10
4.100000
 20
1.300000
 30
0.000000
  0
VERTEX
  8
20
 10
3.000000
 20
0.200000
 30
0.000000
  0
SEQEND
  8
0
  0
POLYLINE
  8
20
 66
1
 10
0.000000
 20
0.000000
 30
0.000000
 40
0.001500
 41
0.001500
 70
0
  0
VERTEX
  8
20
 10
2.999470
 20
0.200530
 30
0.000000
 42
1.000000
  0
VERTEX
  8
20
 10
3.000530
 20
0.199470
 30
0.000000
  0
SEQEND
  8
0
  0
POLYLINE
  8
20
 66
1
 10
0.000000
 20
0.000000
 30
0.000000
 40
0.001500
 41
0.001500
 70
0
  0
VERTEX
  8
20
 10
4.100530
 20
1.299470
 30
0.000000
 42
1.000000
  0
VERTEX
  8
20
 10
4.099470
 20
1.300530
 30
0.000000
  0
SEQEND
  8
0
  0
POLYLINE
  8
20
 66
1
 10
0.000000
 20
0.000000
 30
0.000000
 40
0.003000
 41
0.003000
 70
0
  0
VERTEX
  8
20
 10
4.100000
 20
1.300000
 30
0.000000
  0
VERTEX
  8
20
 10
4.250000
 20
1.300000
 30
0.000000
  0
SEQEND
  8
0
  0
POLYLINE
  8
20
 66
1
 10
0.000000
 20
0.000000
 30
0.000000
 40
0.001500
 41
0.001500
 70
0
  0
VERTEX
  8
20
 10
4.250000
 20
1.299250
 30
0.000000
 42
1.000000
  0
VERTEX
  8
20
 10
4.250000
 20
1.300750
 30
0.000000
  0
SEQEND
  8
0
  0
POLYLINE
  8
20
 66
1
 10
0.000000
 20
0.000000
 30
0.000000
 40
0.001500
 41
0.001500
 70
0
  0
VERTEX
  8
20
 10
4.100000
 20
1.300750
 30
0.000000
 42
1.000000
  0
VERTEX
  8
20
 10
4.100000
 20
1.299250
 30
0.000000
  0
SEQEND
  8
0
  0
POLYLINE
  8
20
 66
1
 10
0.000000
 20
0.000000
 30
0.000000
 40
0.003000
 41
0.003000
 70
0
  0
VERTEX
  8
20
 10
4.250000
 20
1.300000
 30
0.000000
  0
VERTEX
  8
20
 10
4.250000
 20
1.800000
 30
0.000000
  0
SEQEND
  8
0
  0
POLYLINE
  8
20
 66
1
 10
0.000000
 20
0.000000
 30
0.000000
 40
0.001500
 41
0.001500
 70
0
  0
VERTEX
  8
20
 10
4.250750
 20
1.800000
 30
0.000000
 42
1.000000
  0
VERTEX
  8
20
 10
4.249250
 20
1.800000
 30
0.000000
  0
SEQEND
  8
0
  0
POLYLINE
  8
20
 66
1
 10
0.000000
 20
0.000000
 30
0.000000
 40
0.001500
 41
0.001500
 70
0
  0
VERTEX
  8
20
 10
4.249250
 20
1.300000
 30
0.000000
 42
1.000000
  0
VERTEX
  8
20
 10
4.250750
 20
1.300000
 30
0.000000
  0
SEQEND
  8
0
  0
POLYLINE
  8
20
 66
1
 10
0.000000
 20
0.000000
 30
0.000000
 40
0.003000
 41
0.003000
 70
0
  0
VERTEX
  8
20
 10
4.250000
 20
1.800000
 30
0.000000
  0
VERTEX
  8
20
 10
4.100000
 20
1.800000
 30
0.000000
  0
SEQEND
  8
0
  0
POLYLINE
  8
20
 66
1
 10
0.000000
 20
0.000000
 30
0.000000
 40
0.001500
 41
0.001500
 70
0
  0
VERTEX
  8
20
 10
4.100000
 20
1.800750
 30
0.000000
 42
1.000000
  0
VERTEX
  8
20
 10
4.100000
 20
1.799250
 30
0.000000
  0
SEQEND
  8
0
  0
POLYLINE
  8
20
 66
1
 10
0.000000
 20
0.000000
 30
0.000000
 40
0.001500
 41
0.001500
 70
0
  0
VERTEX
  8
20
 10
4.250000
 20
1.799250
 30
0.000000
 42
1.000000
  0
VERTEX
  8
20
 10
4.250000
 20
1.800750
 30
0.000000
  0
SEQEND
  8
0
  0
POLYLINE
  8
20
 66
1
 10
0.000000
 20
0.000000
 30
0.000000
 40
0.003000
 41
0.003000
 70
0
  0
VERTEX
  8
20
 10
4.100000
 20
1.800000
 30
0.000000
  0
VERTEX
  8
20
 10
4.100000
 20
2.200000
 30
0.000000
  0
SEQEND
  8
0
  0
POLYLINE
  8
20
 66
1
 10
0.000000
 20
0.000000
 30
0.000000
 40
0.001500
 41
0.001500
 70
0
  0
VERTEX
  8
20
 10
4.100750
 20
2.200000
 30
0.000000
 42
1.000000
  0
VERTEX
  8
20
 10
4.099250
 20
2.200000
 30
0.000000
  0
SEQEND
  8
0
  0
POLYLINE
  8
20
 66
1
 10
0.000000
 20
0.000000
 30
0.000000
 40
0.001500
 41
0.001500
 70
0
  0
VERTEX
  8
20
 10
4.099250
 20
1.800000
 30
0.000000
 42
1.000000
  0
VERTEX
  8
20
 10
4.100750
 20
1.800000
 30
0.000000
  0
SEQEND
  8
0
  0
POLYLINE
  8
1
 66
1
 10
0.000000
 20
0.000000
 30
0.000000
 40
0.006000
 41
0.006000
 70
0
  0
VERTEX
  8
1
 10
0.700000
 20
1.512200
 30
0.000000
 42
1.000000
  0
VERTEX
  8
1
 10
0.700000
 20
1.612200
 30
0.000000
 42
1.000000
  0
VERTEX
  8
1
 10
0.700000
 20
1.512200
 30
0.000000
  0
SEQEND
  8
0
  0
POLYLINE
  8
1
 66
1
 10
0.000000
 20
0.000000
 30
0.000000
 40
0.006000
 41
0.006000
 70
0
  0
VERTEX
  8
1
 10
2.250000
 20
0.300000
 30
0.000000
 42
1.000000
  0
VERTEX
  8
1
 10
2.250000
 20
0.400000
 30
0.000000
 42
1.000000
  0
VERTEX
  8
1
 10
2.250000
 20
0.300000
 30
0.000000
  0
SEQEND
  8
0
  0
POLYLINE
  8
1
 66
1
 10
0.000000
 20
0.000000
 30
0.000000
 40
0.006000
 41
0.006000
 70
0
  0
VERTEX
  8
1
 10
0.400000
 20
0.750000
 30
0.000000
 42
1.000000
  0
VERTEX
  8
1
 10
0.400000
 20
0.850000
 30
0.000000
 42
1.000000
  0
VERTEX
  8
1
 10
0.400000
 20
0.750000
 30
0.000000
  0
SEQEND
  8
0
  0
POLYLINE
  8
1
 66
1
 10
0.000000
 20
0.000000
 30
0.000000
 40
0.006000
 41
0.006000
 70
0
  0
VERTEX
  8
1
 10
3.350000
 20
0.700000
 30
0.000000
 42
1.000000
  0
VERTEX
  8
1
 10
3.350000
 20
0.800000
 30
0.000000
 42
1.000000
  0
VERTEX
  8
1
 10
3.350000
 20
0.700000
 30
0.000000
  0
SEQEND
  8
0
  0
POLYLINE
  8
1
 66
1
 10
0.000000
 20
0.000000
 30
0.000000
 40
0.006000
 41
0.006000
 70
0
  0
VERTEX
  8
1
 10
2.800000
 20
1.900000
 30
0.000000
 42
1.000000
  0
VERTEX
  8
1
 10
2.800000
 20
2.000000
 30
0.000000
 42
1.000000
  0
VERTEX
  8
1
 10
2.800000
 20
1.900000
 30
0.000000
  0
SEQEND
  8
0
  0
POLYLINE
  8
1
 66
1
 10
0.000000
 20
0.000000
 30
0.000000
 40
0.006000
 41
0.006000
 70
0
  0
VERTEX
  8
1
 10
1.300000
 20
1.900000
 30
0.000000
 42
1.000000
  0
VERTEX
  8
1
 10
1.300000
 20
2.000000
 30
0.000000
 42
1.000000
  0
VERTEX
  8
1
 10
1.300000
 20
1.900000
 30
0.000000
  0
SEQEND
  8
0
  0
POLYLINE
  8
1
 66
1
 10
0.000000
 20
0.000000
 30
0.000000
 40
0.006000
 41
0.006000
 70
0
  0
VERTEX
  8
1
 10
3.900000
 20
1.900000
 30
0.000000
 42
1.000000
  0
VERTEX
  8
1
 10
3.900000
 20
2.000000
 30
0.000000
 42
1.000000
  0
VERTEX
  8
1
 10
3.900000
 20
1.900000
 30
0.000000
  0
SEQEND
  8
0
  0
POLYLINE
  8
1
 66
1
 10
0.000000
 20
0.000000
 30
0.000000
 40
0.006000
 41
0.006000
 70
0
  0
VERTEX
  8
1
 10
0.150000
 20
1.950000
 30
0.000000
 42
1.000000
  0
VERTEX
  8
1
 10
0.150000
 20
2.050000
 30
0.000000
 42
1.000000
  0
VERTEX
  8
1
 10
0.150000
 20
1.950000
 30
0.000000
  0
SEQEND
  8
0
  0
INSERT
  8
1
  2
RECT
 10
3.008858
 20
0.840940
 30
0.000000
 41
0.125984
 42
0.039370
 43
1.000000
 50
0.000000
  0
INSERT
  8
1
  2
RECT
 10
3.008858
 20
0.683460
 30
0.000000
 41
0.125984
 42
0.039370
 43
1.000000
 50
0.000000
  0
INSERT
  8
1
  2
RECT
 10
2.741142
 20
0.683460
 30
0.000000
 41
0.125984
 42
0.039370
 43
1.000000
 50
0.000000
  0
INSERT
  8
1
  2
RECT
 10
2.741142
 20
0.840940
 30
0.000000
 41
0.125984
 42
0.039370
 43
1.000000
 50
0.000000
  0
INSERT
  8
1
  2
RECT
 10
3.558858
 20
1.240940
 30
0.000000
 41
0.125984
 42
0.039370
 43
1.000000
 50
0.000000
  0
INSERT
  8
1
  2
RECT
 10
3.558858
 20
1.083460
 30
0.000000
 41
0.125984
 42
0.039370
 43
1.000000
 50
0.000000
  0
INSERT
  8
1
  2
RECT
 10
3.291142
 20
1.083460
 30
0.000000
 41
0.125984
 42
0.039370
 43
1.000000
 50
0.000000
  0
INSERT
  8
1
  2
RECT
 10
3.291142
 20
1.240940
 30
0.000000
 41
0.125984
 42
0.039370
 43
1.000000
 50
0.000000
  0
INSERT
  8
1
  2
RECT
 10
3.841142
 20
1.483460
 30
0.000000
 41
0.125984
 42
0.039370
 43
1.000000
 50
180.000000
  0
INSERT
  8
1
  2
RECT
 10
3.841142
 20
1.640940
 30
0.000000
 41
0.125984
 42
0.039370
 43
1.000000
 50
180.000000
  0
INSERT
  8
1
  2
RECT
 10
4.108858
 20
1.640940
 30
0.000000
 41
0.125984
 42
0.039370
 43
1.000000
 50
180.000000
  0
INSERT
  8
1
  2
RECT
 10
4.108858
 20
1.483460
 30
0.000000
 41
0.125984
 42
0.039370
 43
1.000000
 50
180.000000
  0
INSERT
  8
1
  2
RECT
 10
1.558858
 20
0.640940
 30
0.000000
 41
0.125984
 42
0.039370
 43
1.000000
 50
0.000000
  0
INSERT
  8
1
  2
RECT
 10
1.558858
 20
0.483460
 30
0.000000
 41
0.125984
 42
0.039370
 43
1.000000
 50
0.000000
  0
INSERT
  8
1
  2
RECT
 10
1.291142
 20
0.483460
 30
0.000000
 41
0.125984
 42
0.039370
 43
1.000000
 50
0.000000
  0
INSERT
  8
1
  2
RECT
 10
1.291142
 20
0.640940
 30
0.000000
 41
0.125984
 42
0.039370
 43
1.000000
 50
0.000000
  0
INSERT
  8
1
  2
RECT
 10
1.058858
 20
0.640940
 30
0.000000
 41
0.125984
 42
0.039370
 43
1.000000
 50
0.000000
  0
INSERT
  8
1
  2
RECT
 10
1.058858
 20
0.483460
 30
0.000000
 41
0.125984
 42
0.039370
 43
1.000000
 50
0.000000
  0
INSERT
  8
1
  2
RECT
 10
0.791142
 20
0.483460
 30
0.000000
 41
0.125984
 42
0.039370
 43
1.000000
 50
0.000000
  0
INSERT
  8
1
  2
RECT
 10
0.791142
 20
0.640940
 30
0.000000
 41
0.125984
 42
0.039370
 43
1.000000
 50
0.000000
  0
INSERT
  8
1
  2
RECT
 10
2.058858
 20
0.640940
 30
0.000000
 41
0.125984
 42
0.039370
 43
1.000000
 50
0.000000
  0
INSERT
  8
1
  2
RECT
 10
2.058858
 20
0.483460
 30
0.000000
 41
0.125984
 42
0.039370
 43
1.000000
 50
0.000000
  0
INSERT
  8
1
  2
RECT
 10
1.791142
 20
0.483460
 30
0.000000
 41
0.125984
 42
0.039370
 43
1.000000
 50
0.000000
  0
INSERT
  8
1
  2
RECT
 10
1.791142
 20
0.640940
 30
0.000000
 41
0.125984
 42
0.039370
 43
1.000000
 50
0.000000
  0
INSERT
  8
1
  2
RECT
 10
1.558858
 20
1.140940
 30
0.000000
 41
0.125984
 42
0.039370
 43
1.000000
 50
0.000000
  0
INSERT
  8
1
  2
RECT
 10
1.558858
 20
0.983460
 30
0.000000
 41
0.125984
 42
0.039370
 43
1.000000
 50
0.000000
  0
INSERT
  8
1
  2
RECT
 10
1.291142
 20
0.983460
 30
0.000000
 41
0.125984
 42
0.039370
 43
1.000000
 50
0.000000
  0
INSERT
  8
1
  2
RECT
 10
1.291142
 20
1.140940
 30
0.000000
 41
0.125984
 42
0.039370
 43
1.000000
 50
0.000000
  0
INSERT
  8
1
  2
RECT
 10
1.116929
 20
2.012500
 30
0.000000
 41
0.055118
 42
0.070866
 43
1.000000
 50
0.000000
  0
INSERT
  8
1
  2
RECT
 10
0.983071
 20
2.012500
 30
0.000000
 41
0.055118
 42
0.070866
 43
1.000000
 50
0.000000
  0
INSERT
  8
1
  2
RECT
 10
0.325000
 20
1.120571
 30
0.000000
 41
0.055118
 42
0.070866
 43
1.000000
 50
270.000000
  0
INSERT
  8
1
  2
RECT
 10
0.325000
 20
1.254429
 30
0.000000
 41
0.055118
 42
0.070866
 43
1.000000
 50
270.000000
  0
INSERT
  8
1
  2
RECT
 10
1.325000
 20
1.570571
 30
0.000000
 41
0.055118
 42
0.070866
 43
1.000000
 50
270.000000
  0
INSERT
  8
1
  2
RECT
 10
1.325000
 20
1.704429
 30
0.000000
 41
0.055118
 42
0.070866
 43
1.000000
 50
270.000000
  0
INSERT
  8
1
  2
RECT
 10
1.116929
 20
1.125000
 30
0.000000
 41
0.055118
 42
0.070866
 43
1.000000
 50
0.000000
  0
INSERT
  8
1
  2
RECT
 10
0.983071
 20
1.125000
 30
0.000000
 41
0.055118
 42
0.070866
 43
1.000000
 50
0.000000
  0
INSERT
  8
1
  2
RECT
 10
1.420571
 20
1.312500
 30
0.000000
 41
0.055118
 42
0.070866
 43
1.000000
 50
180.000000
  0
INSERT
  8
1
  2
RECT
 10
1.554429
 20
1.312500
 30
0.000000
 41
0.055118
 42
0.070866
 43
1.000000
 50
180.000000
  0
INSERT
  8
1
  2
RECT
 10
0.658071
 20
0.762500
 30
0.000000
 41
0.055118
 42
0.070866
 43
1.000000
 50
180.000000
  0
INSERT
  8
1
  2
RECT
 10
0.791929
 20
0.762500
 30
0.000000
 41
0.055118
 42
0.070866
 43
1.000000
 50
180.000000
  0
INSERT
  8
1
  2
RECT
 10
1.920571
 20
0.762500
 30
0.000000
 41
0.055118
 42
0.070866
 43
1.000000
 50
180.000000
  0
INSERT
  8
1
  2
RECT
 10
2.054429
 20
0.762500
 30
0.000000
 41
0.055118
 42
0.070866
 43
1.000000
 50
180.000000
  0
INSERT
  8
1
  2
RECT
 10
1.158071
 20
0.762500
 30
0.000000
 41
0.055118
 42
0.070866
 43
1.000000
 50
180.000000
  0
INSERT
  8
1
  2
RECT
 10
1.291929
 20
0.762500
 30
0.000000
 41
0.055118
 42
0.070866
 43
1.000000
 50
180.000000
  0
INSERT
  8
1
  2
RECT
 10
1.500000
 20
1.695571
 30
0.000000
 41
0.055118
 42
0.070866
 43
1.000000
 50
270.000000
  0
INSERT
  8
1
  2
RECT
 10
1.500000
 20
1.829429
 30
0.000000
 41
0.055118
 42
0.070866
 43
1.000000
 50
270.000000
  0
INSERT
  8
1
  2
RECT
 10
2.412500
 20
1.845571
 30
0.000000
 41
0.055118
 42
0.070866
 43
1.000000
 50
270.000000
  0
INSERT
  8
1
  2
RECT
 10
2.412500
 20
1.979429
 30
0.000000
 41
0.055118
 42
0.070866
 43
1.000000
 50
270.000000
  0
INSERT
  8
1
  2
RECT
 10
2.879429
 20
1.037500
 30
0.000000
 41
0.055118
 42
0.070866
 43
1.000000
 50
0.000000
  0
INSERT
  8
1
  2
RECT
 10
2.745571
 20
1.037500
 30
0.000000
 41
0.055118
 42
0.070866
 43
1.000000
 50
0.000000
  0
INSERT
  8
1
  2
RECT
 10
2.604429
 20
1.375000
 30
0.000000
 41
0.055118
 42
0.070866
 43
1.000000
 50
0.000000
  0
INSERT
  8
1
  2
RECT
 10
2.470571
 20
1.375000
 30
0.000000
 41
0.055118
 42
0.070866
 43
1.000000
 50
0.000000
  0
INSERT
  8
1
  2
RECT
 10
2.470571
 20
1.587500
 30
0.000000
 41
0.055118
 42
0.070866
 43
1.000000
 50
180.000000
  0
INSERT
  8
1
  2
RECT
 10
2.604429
 20
1.587500
 30
0.000000
 41
0.055118
 42
0.070866
 43
1.000000
 50
180.000000
  0
INSERT
  8
1
  2
RECT
 10
3.420571
 20
1.725000
 30
0.000000
 41
0.055118
 42
0.070866
 43
1.000000
 50
180.000000
  0
INSERT
  8
1
  2
RECT
 10
3.554429
 20
1.725000
 30
0.000000
 41
0.055118
 42
0.070866
 43
1.000000
 50
180.000000
  0
INSERT
  8
1
  2
RECT
 10
2.995571
 20
1.237500
 30
0.000000
 41
0.055118
 42
0.070866
 43
1.000000
 50
180.000000
  0
INSERT
  8
1
  2
RECT
 10
3.129429
 20
1.237500
 30
0.000000
 41
0.055118
 42
0.070866
 43
1.000000
 50
180.000000
  0
INSERT
  8
1
  2
RECT
 10
3.558071
 20
1.487500
 30
0.000000
 41
0.055118
 42
0.070866
 43
1.000000
 50
180.000000
  0
INSERT
  8
1
  2
RECT
 10
3.691929
 20
1.487500
 30
0.000000
 41
0.055118
 42
0.070866
 43
1.000000
 50
180.000000
  0
INSERT
  8
1
  2
RECT
 10
0.566142
 20
1.108760
 30
0.000000
 41
0.125984
 42
0.039370
 43
1.000000
 50
180.000000
  0
INSERT
  8
1
  2
RECT
 10
0.566142
 20
1.266240
 30
0.000000
 41
0.125984
 42
0.039370
 43
1.000000
 50
180.000000
  0
INSERT
  8
1
  2
RECT
 10
0.833858
 20
1.266240
 30
0.000000
 41
0.125984
 42
0.039370
 43
1.000000
 50
180.000000
  0
INSERT
  8
1
  2
RECT
 10
0.833858
 20
1.108760
 30
0.000000
 41
0.125984
 42
0.039370
 43
1.000000
 50
180.000000
  0
INSERT
  8
1
  2
RECT
 10
0.255660
 20
1.696058
 30
0.000000
 41
0.125984
 42
0.039370
 43
1.000000
 50
90.000000
  0
INSERT
  8
1
  2
RECT
 10
0.413140
 20
1.696058
 30
0.000000
 41
0.125984
 42
0.039370
 43
1.000000
 50
90.000000
  0
INSERT
  8
1
  2
RECT
 10
0.413140
 20
1.428342
 30
0.000000
 41
0.125984
 42
0.039370
 43
1.000000
 50
90.000000
  0
INSERT
  8
1
  2
RECT
 10
0.255660
 20
1.428342
 30
0.000000
 41
0.125984
 42
0.039370
 43
1.000000
 50
90.000000
  0
INSERT
  8
1
  2
RECT
 10
1.153740
 20
1.428342
 30
0.000000
 41
0.125984
 42
0.039370
 43
1.000000
 50
270.000000
  0
INSERT
  8
1
  2
RECT
 10
0.996260
 20
1.428342
 30
0.000000
 41
0.125984
 42
0.039370
 43
1.000000
 50
270.000000
  0
INSERT
  8
1
  2
RECT
 10
0.996260
 20
1.696058
 30
0.000000
 41
0.125984
 42
0.039370
 43
1.000000
 50
270.000000
  0
INSERT
  8
1
  2
RECT
 10
1.153740
 20
1.696058
 30
0.000000
 41
0.125984
 42
0.039370
 43
1.000000
 50
270.000000
  0
INSERT
  8
1
  2
RECT
 10
1.621260
 20
2.096658
 30
0.000000
 41
0.125984
 42
0.039370
 43
1.000000
 50
90.000000
  0
INSERT
  8
1
  2
RECT
 10
1.778740
 20
2.096658
 30
0.000000
 41
0.125984
 42
0.039370
 43
1.000000
 50
90.000000
  0
INSERT
  8
1
  2
RECT
 10
1.778740
 20
1.828942
 30
0.000000
 41
0.125984
 42
0.039370
 43
1.000000
 50
90.000000
  0
INSERT
  8
1
  2
RECT
 10
1.621260
 20
1.828942
 30
0.000000
 41
0.125984
 42
0.039370
 43
1.000000
 50
90.000000
  0
INSERT
  8
1
  2
RECT
 10
2.228740
 20
1.828942
 30
0.000000
 41
0.125984
 42
0.039370
 43
1.000000
 50
270.000000
  0
INSERT
  8
1
  2
RECT
 10
2.071260
 20
1.828942
 30
0.000000
 41
0.125984
 42
0.039370
 43
1.000000
 50
270.000000
  0
INSERT
  8
1
  2
RECT
 10
2.071260
 20
2.096658
 30
0.000000
 41
0.125984
 42
0.039370
 43
1.000000
 50
270.000000
  0
INSERT
  8
1
  2
RECT
 10
2.228740
 20
2.096658
 30
0.000000
 41
0.125984
 42
0.039370
 43
1.000000
 50
270.000000
  0
INSERT
  8
1
  2
RECT
 10
0.833858
 20
2.015940
 30
0.000000
 41
0.125984
 42
0.039370
 43
1.000000
 50
0.000000
  0
INSERT
  8
1
  2
RECT
 10
0.833858
 20
1.858460
 30
0.000000
 41
0.125984
 42
0.039370
 43
1.000000
 50
0.000000
  0
INSERT
  8
1
  2
RECT
 10
0.566142
 20
1.858460
 30
0.000000
 41
0.125984
 42
0.039370
 43
1.000000
 50
0.000000
  0
INSERT
  8
1
  2
RECT
 10
0.566142
 20
2.015940
 30
0.000000
 41
0.125984
 42
0.039370
 43
1.000000
 50
0.000000
  0
INSERT
  8
1
  2
RECT
 10
2.458858
 20
1.240940
 30
0.000000
 41
0.125984
 42
0.039370
 43
1.000000
 50
0.000000
  0
INSERT
  8
1
  2
RECT
 10
2.458858
 20
1.083460
 30
0.000000
 41
0.125984
 42
0.039370
 43
1.000000
 50
0.000000
  0
INSERT
  8
1
  2
RECT
 10
2.191142
 20
1.083460
 30
0.000000
 41
0.125984
 42
0.039370
 43
1.000000
 50
0.000000
  0
INSERT
  8
1
  2
RECT
 10
2.191142
 20
1.240940
 30
0.000000
 41
0.125984
 42
0.039370
 43
1.000000
 50
0.000000
  0
INSERT
  8
1
  2
RECT
 10
2.741142
 20
1.483460
 30
0.000000
 41
0.125984
 42
0.039370
 43
1.000000
 50
180.000000
  0
INSERT
  8
1
  2
RECT
 10
2.741142
 20
1.640940
 30
0.000000
 41
0.125984
 42
0.039370
 43
1.000000
 50
180.000000
  0
INSERT
  8
1
  2
RECT
 10
3.008858
 20
1.640940
 30
0.000000
 41
0.125984
 42
0.039370
 43
1.000000
 50
180.000000
  0
INSERT
  8
1
  2
RECT
 10
3.008858
 20
1.483460
 30
0.000000
 41
0.125984
 42
0.039370
 43
1.000000
 50
180.000000
  0
INSERT
  8
1
  2
RECT
 10
3.291142
 20
1.883460
 30
0.000000
 41
0.125984
 42
0.039370
 43
1.000000
 50
180.000000
  0
INSERT
  8
1
  2
RECT
 10
3.291142
 20
2.040940
 30
0.000000
 41
0.125984
 42
0.039370
 43
1.000000
 50
180.000000
  0
INSERT
  8
1
  2
RECT
 10
3.558858
 20
2.040940
 30
0.000000
 41
0.125984
 42
0.039370
 43
1.000000
 50
180.000000
  0
INSERT
  8
1
  2
RECT
 10
3.558858
 20
1.883460
 30
0.000000
 41
0.125984
 42
0.039370
 43
1.000000
 50
180.000000
  0
POLYLINE
  8
1
 66
1
 10
0.000000
 20
0.000000
 30
0.000000
 40
0.020000
 41
0.020000
 70
0
  0
VERTEX
  8
1
 10
1.778740
 20
2.096658
 30
0.000000
  0
VERTEX
  8
1
 10
1.775000
 20
2.100398
 30
0.000000
  0
SEQEND
  8
0
  0
POLYLINE
  8
1
 66
1
 10
0.000000
 20
0.000000
 30
0.000000
 40
0.010000
 41
0.010000
 70
0
  0
VERTEX
  8
1
 10
1.778536
 20
2.103934
 30
0.000000
 42
1.000000
  0
VERTEX
  8
1
 10
1.771464
 20
2.096863
 30
0.000000
  0
SEQEND
  8
0
  0
POLYLINE
  8
1
 66
1
 10
0.000000
 20
0.000000
 30
0.000000
 40
0.010000
 41
0.010000
 70
0
  0
VERTEX
  8
1
 10
1.775205
 20
2.093123
 30
0.000000
 42
1.000000
  0
VERTEX
  8
1
 10
1.782276
 20
2.100194
 30
0.000000
  0
SEQEND
  8
0
  0
POLYLINE
  8
1
 66
1
 10
0.000000
 20
0.000000
 30
0.000000
 40
0.020000
 41
0.020000
 70
0
  0
VERTEX
  8
1
 10
2.071260
 20
2.096658
 30
0.000000
  0
VERTEX
  8
1
 10
2.042918
 20
2.125000
 30
0.000000
  0
SEQEND
  8
0
  0
POLYLINE
  8
1
 66
1
 10
0.000000
 20
0.000000
 30
0.000000
 40
0.010000
 41
0.010000
 70
0
  0
VERTEX
  8
1
 10
2.046454
 20
2.128536
 30
0.000000
 42
1.000000
  0
VERTEX
  8
1
 10
2.039383
 20
2.121464
 30
0.000000
  0
SEQEND
  8
0
  0
POLYLINE
  8
1
 66
1
 10
0.000000
 20
0.000000
 30
0.000000
 40
0.010000
 41
0.010000
 70
0
  0
VERTEX
  8
1
 10
2.067724
 20
2.093123
 30
0.000000
 42
1.000000
  0
VERTEX
  8
1
 10
2.074795
 20
2.100194
 30
0.000000
  0
SEQEND
  8
0
  0
POLYLINE
  8
1
 66
1
 10
0.000000
 20
0.000000
 30
0.000000
 40
0.020000
 41
0.020000
 70
0
  0
VERTEX
  8
1
 10
2.042918
 20
2.125000
 30
0.000000
  0
VERTEX
  8
1
 10
1.925000
 20
2.125000
 30
0.000000
  0
SEQEND
  8
0
  0
POLYLINE
  8
1
 66
1
 10
0.000000
 20
0.000000
 30
0.000000
 40
0.010000
 41
0.010000
 70
0
  0
VERTEX
  8
1
 10
1.925000
 20
2.130000
 30
0.000000
 42
1.000000
  0
VERTEX
  8
1
 10
1.925000
 20
2.120000
 30
0.000000
  0
SEQEND
  8
0
  0
POLYLINE
  8
1
 66
1
 10
0.000000
 20
0.000000
 30
0.000000
 40
0.010000
 41
0.010000
 70
0
  0
VERTEX
  8
1
 10
2.042918
 20
2.120000
 30
0.000000
 42
1.000000
  0
VERTEX
  8
1
 10
2.042918
 20
2.130000
 30
0.000000
  0
SEQEND
  8
0
  0
POLYLINE
  8
1
 66
1
 10
0.000000
 20
0.000000
 30
0.000000
 40
0.020000
 41
0.020000
 70
0
  0
VERTEX
  8
1
 10
1.925000
 20
2.125000
 30
0.000000
  0
VERTEX
  8
1
 10
1.825000
 20
2.125000
 30
0.000000
  0
SEQEND
  8
0
  0
POLYLINE
  8
1
 66
1
 10
0.000000
 20
0.000000
 30
0.000000
 40
0.010000
 41
0.010000
 70
0
  0
VERTEX
  8
1
 10
1.825000
 20
2.130000
 30
0.000000
 42
1.000000
  0
VERTEX
  8
1
 10
1.825000
 20
2.120000
 30
0.000000
  0
SEQEND
  8
0
  0
POLYLINE
  8
1
 66
1
 10
0.000000
 20
0.000000
 30
0.000000
 40
0.010000
 41
0.010000
 70
0
  0
VERTEX
  8
1
 10
1.925000
 20
2.120000
 30
0.000000
 42
1.000000
  0
VERTEX
  8
1
 10
1.925000
 20
2.130000
 30
0.000000
  0
SEQEND
  8
0
  0
POLYLINE
  8
1
 66
1
 10
0.000000
 20
0.000000
 30
0.000000
 40
0.020000
 41
0.020000
 70
0
  0
VERTEX
  8
1
 10
1.825000
 20
2.125000
 30
0.000000
  0
VERTEX
  8
1
 10
1.796658
 20
2.096658
 30
0.000000
  0
SEQEND
  8
0
  0
POLYLINE
  8
1
 66
1
 10
0.000000
 20
0.000000
 30
0.000000
 40
0.010000
 41
0.010000
 70
0
  0
VERTEX
  8
1
 10
1.793123
 20
2.100194
 30
0.000000
 42
1.000000
  0
VERTEX
  8
1
 10
1.800194
 20
2.093123
 30
0.000000
  0
SEQEND
  8
0
  0
POLYLINE
  8
1
 66
1
 10
0.000000
 20
0.000000
 30
0.000000
 40
0.010000
 41
0.010000
 70
0
  0
VERTEX
  8
1
 10
1.828536
 20
2.121464
 30
0.000000
 42
1.000000
  0
VERTEX
  8
1
 10
1.821464
 20
2.128536
 30
0.000000
  0
SEQEND
  8
0
  0
POLYLINE
  8
1
 66
1
 10
0.000000
 20
0.000000
 30
0.000000
 40
0.020000
 41
0.020000
 70
0
  0
VERTEX
  8
1
 10
1.796658
 20
2.096658
 30
0.000000
  0
VERTEX
  8
1
 10
1.778740
 20
2.096658
 30
0.000000
  0
SEQEND
  8
0
  0
POLYLINE
  8
1
 66
1
 10
0.000000
 20
0.000000
 30
0.000000
 40
0.010000
 41
0.010000
 70
0
  0
VERTEX
  8
1
 10
1.778740
 20
2.101658
 30
0.000000
 42
1.000000
  0
VERTEX
  8
1
 10
1.778740
 20
2.091658
 30
0.000000
  0
SEQEND
  8
0
  0
POLYLINE
  8
1
 66
1
 10
0.000000
 20
0.000000
 30
0.000000
 40
0.010000
 41
0.010000
 70
0
  0
VERTEX
  8
1
 10
1.796658
 20
2.091658
 30
0.000000
 42
1.000000
  0
VERTEX
  8
1
 10
1.796658
 20
2.101658
 30
0.000000
  0
SEQEND
  8
0
  0
POLYLINE
  8
1
 66
1
 10
0.000000
 20
0.000000
 30
0.000000
 40
0.020000
 41
0.020000
 70
0
  0
VERTEX
  8
1
 10
2.195182
 20
1.087500
 30
0.000000
  0
VERTEX
  8
1
 10
2.191142
 20
1.083460
 30
0.000000
  0
SEQEND
  8
0
  0
POLYLINE
  8
1
 66
1
 10
0.000000
 20
0.000000
 30
0.000000
 40
0.010000
 41
0.010000
 70
0
  0
VERTEX
  8
1
 10
2.187606
 20
1.086995
 30
0.000000
 42
1.000000
  0
VERTEX
  8
1
 10
2.194677
 20
1.079924
 30
0.000000
  0
SEQEND
  8
0
  0
POLYLINE
  8
1
 66
1
 10
0.000000
 20
0.000000
 30
0.000000
 40
0.010000
 41
0.010000
 70
0
  0
VERTEX
  8
1
 10
2.198717
 20
1.083964
 30
0.000000
 42
1.000000
  0
VERTEX
  8
1
 10
2.191646
 20
1.091036
 30
0.000000
  0
SEQEND
  8
0
  0
POLYLINE
  8
1
 66
1
 10
0.000000
 20
0.000000
 30
0.000000
 40
0.020000
 41
0.020000
 70
0
  0
VERTEX
  8
1
 10
2.195182
 20
1.087500
 30
0.000000
  0
VERTEX
  8
1
 10
2.275000
 20
1.087500
 30
0.000000
  0
SEQEND
  8
0
  0
POLYLINE
  8
1
 66
1
 10
0.000000
 20
0.000000
 30
0.000000
 40
0.010000
 41
0.010000
 70
0
  0
VERTEX
  8
1
 10
2.275000
 20
1.082500
 30
0.000000
 42
1.000000
  0
VERTEX
  8
1
 10
2.275000
 20
1.092500
 30
0.000000
  0
SEQEND
  8
0
  0
POLYLINE
  8
1
 66
1
 10
0.000000
 20
0.000000
 30
0.000000
 40
0.010000
 41
0.010000
 70
0
  0
VERTEX
  8
1
 10
2.195182
 20
1.092500
 30
0.000000
 42
1.000000
  0
VERTEX
  8
1
 10
2.195182
 20
1.082500
 30
0.000000
  0
SEQEND
  8
0
  0
POLYLINE
  8
1
 66
1
 10
0.000000
 20
0.000000
 30
0.000000
 40
0.020000
 41
0.020000
 70
0
  0
VERTEX
  8
1
 10
2.275000
 20
1.087500
 30
0.000000
  0
VERTEX
  8
1
 10
2.550000
 20
0.812500
 30
0.000000
  0
SEQEND
  8
0
  0
POLYLINE
  8
1
 66
1
 10
0.000000
 20
0.000000
 30
0.000000
 40
0.010000
 41
0.010000
 70
0
  0
VERTEX
  8
1
 10
2.546464
 20
0.808964
 30
0.000000
 42
1.000000
  0
VERTEX
  8
1
 10
2.553536
 20
0.816036
 30
0.000000
  0
SEQEND
  8
0
  0
POLYLINE
  8
1
 66
1
 10
0.000000
 20
0.000000
 30
0.000000
 40
0.010000
 41
0.010000
 70
0
  0
VERTEX
  8
1
 10
2.278536
 20
1.091036
 30
0.000000
 42
1.000000
  0
VERTEX
  8
1
 10
2.271464
 20
1.083964
 30
0.000000
  0
SEQEND
  8
0
  0
POLYLINE
  8
1
 66
1
 10
0.000000
 20
0.000000
 30
0.000000
 40
0.020000
 41
0.020000
 70
0
  0
VERTEX
  8
1
 10
2.550000
 20
0.812500
 30
0.000000
  0
VERTEX
  8
1
 10
2.550000
 20
0.725000
 30
0.000000
  0
SEQEND
  8
0
  0
POLYLINE
  8
1
 66
1
 10
0.000000
 20
0.000000
 30
0.000000
 40
0.010000
 41
0.010000
 70
0
  0
VERTEX
  8
1
 10
2.545000
 20
0.725000
 30
0.000000
 42
1.000000
  0
VERTEX
  8
1
 10
2.555000
 20
0.725000
 30
0.000000
  0
SEQEND
  8
0
  0
POLYLINE
  8
1
 66
1
 10
0.000000
 20
0.000000
 30
0.000000
 40
0.010000
 41
0.010000
 70
0
  0
VERTEX
  8
1
 10
2.555000
 20
0.812500
 30
0.000000
 42
1.000000
  0
VERTEX
  8
1
 10
2.545000
 20
0.812500
 30
0.000000
  0
SEQEND
  8
0
  0
POLYLINE
  8
1
 66
1
 10
0.000000
 20
0.000000
 30
0.000000
 40
0.020000
 41
0.020000
 70
0
  0
VERTEX
  8
1
 10
2.550000
 20
0.725000
 30
0.000000
  0
VERTEX
  8
1
 10
2.591540
 20
0.683460
 30
0.000000
  0
SEQEND
  8
0
  0
POLYLINE
  8
1
 66
1
 10
0.000000
 20
0.000000
 30
0.000000
 40
0.010000
 41
0.010000
 70
0
  0
VERTEX
  8
1
 10
2.588005
 20
0.679924
 30
0.000000
 42
1.000000
  0
VERTEX
  8
1
 10
2.595076
 20
0.686995
 30
0.000000
  0
SEQEND
  8
0
  0
POLYLINE
  8
1
 66
1
 10
0.000000
 20
0.000000
 30
0.000000
 40
0.010000
 41
0.010000
 70
0
  0
VERTEX
  8
1
 10
2.553536
 20
0.728536
 30
0.000000
 42
1.000000
  0
VERTEX
  8
1
 10
2.546464
 20
0.721464
 30
0.000000
  0
SEQEND
  8
0
  0
POLYLINE
  8
1
 66
1
 10
0.000000
 20
0.000000
 30
0.000000
 40
0.020000
 41
0.020000
 70
0
  0
VERTEX
  8
1
 10
2.591540
 20
0.683460
 30
0.000000
  0
VERTEX
  8
1
 10
2.741142
 20
0.683460
 30
0.000000
  0
SEQEND
  8
0
  0
POLYLINE
  8
1
 66
1
 10
0.000000
 20
0.000000
 30
0.000000
 40
0.010000
 41
0.010000
 70
0
  0
VERTEX
  8
1
 10
2.741142
 20
0.678460
 30
0.000000
 42
1.000000
  0
VERTEX
  8
1
 10
2.741142
 20
0.688460
 30
0.000000
  0
SEQEND
  8
0
  0
POLYLINE
  8
1
 66
1
 10
0.000000
 20
0.000000
 30
0.000000
 40
0.010000
 41
0.010000
 70
0
  0
VERTEX
  8
1
 10
2.591540
 20
0.688460
 30
0.000000
 42
1.000000
  0
VERTEX
  8
1
 10
2.591540
 20
0.678460
 30
0.000000
  0
SEQEND
  8
0
  0
POLYLINE
  8
1
 66
1
 10
0.000000
 20
0.000000
 30
0.000000
 40
0.020000
 41
0.020000
 70
0
  0
VERTEX
  8
1
 10
2.191142
 20
1.083460
 30
0.000000
  0
VERTEX
  8
1
 10
2.091540
 20
1.083460
 30
0.000000
  0
SEQEND
  8
0
  0
POLYLINE
  8
1
 66
1
 10
0.000000
 20
0.000000
 30
0.000000
 40
0.010000
 41
0.010000
 70
0
  0
VERTEX
  8
1
 10
2.091540
 20
1.088460
 30
0.000000
 42
1.000000
  0
VERTEX
  8
1
 10
2.091540
 20
1.078460
 30
0.000000
  0
SEQEND
  8
0
  0
POLYLINE
  8
1
 66
1
 10
0.000000
 20
0.000000
 30
0.000000
 40
0.010000
 41
0.010000
 70
0
  0
VERTEX
  8
1
 10
2.191142
 20
1.078460
 30
0.000000
 42
1.000000
  0
VERTEX
  8
1
 10
2.191142
 20
1.088460
 30
0.000000
  0
SEQEND
  8
0
  0
POLYLINE
  8
1
 66
1
 10
0.000000
 20
0.000000
 30
0.000000
 40
0.020000
 41
0.020000
 70
0
  0
VERTEX
  8
1
 10
2.071260
 20
1.103740
 30
0.000000
  0
VERTEX
  8
1
 10
2.071260
 20
1.828942
 30
0.000000
  0
SEQEND
  8
0
  0
POLYLINE
  8
1
 66
1
 10
0.000000
 20
0.000000
 30
0.000000
 40
0.010000
 41
0.010000
 70
0
  0
VERTEX
  8
1
 10
2.076260
 20
1.828942
 30
0.000000
 42
1.000000
  0
VERTEX
  8
1
 10
2.066260
 20
1.828942
 30
0.000000
  0
SEQEND
  8
0
  0
POLYLINE
  8
1
 66
1
 10
0.000000
 20
0.000000
 30
0.000000
 40
0.010000
 41
0.010000
 70
0
  0
VERTEX
  8
1
 10
2.066260
 20
1.103740
 30
0.000000
 42
1.000000
  0
VERTEX
  8
1
 10
2.076260
 20
1.103740
 30
0.000000
  0
SEQEND
  8
0
  0
POLYLINE
  8
1
 66
1
 10
0.000000
 20
0.000000
 30
0.000000
 40
0.020000
 41
0.020000
 70
0
  0
VERTEX
  8
1
 10
2.091540
 20
1.083460
 30
0.000000
  0
VERTEX
  8
1
 10
2.071260
 20
1.103740
 30
0.000000
  0
SEQEND
  8
0
  0
POLYLINE
  8
1
 66
1
 10
0.000000
 20
0.000000
 30
0.000000
 40
0.010000
 41
0.010000
 70
0
  0
VERTEX
  8
1
 10
2.074795
 20
1.107276
 30
0.000000
 42
1.000000
  0
VERTEX
  8
1
 10
2.067724
 20
1.100205
 30
0.000000
  0
SEQEND
  8
0
  0
POLYLINE
  8
1
 66
1
 10
0.000000
 20
0.000000
 30
0.000000
 40
0.010000
 41
0.010000
 70
0
  0
VERTEX
  8
1
 10
2.088005
 20
1.079924
 30
0.000000
 42
1.000000
  0
VERTEX
  8
1
 10
2.095076
 20
1.086995
 30
0.000000
  0
SEQEND
  8
0
  0
POLYLINE
  8
1
 66
1
 10
0.000000
 20
0.000000
 30
0.000000
 40
0.020000
 41
0.020000
 70
0
  0
VERTEX
  8
1
 10
0.566142
 20
1.266240
 30
0.000000
  0
VERTEX
  8
1
 10
0.458760
 20
1.266240
 30
0.000000
  0
SEQEND
  8
0
  0
POLYLINE
  8
1
 66
1
 10
0.000000
 20
0.000000
 30
0.000000
 40
0.010000
 41
0.010000
 70
0
  0
VERTEX
  8
1
 10
0.458760
 20
1.271240
 30
0.000000
 42
1.000000
  0
VERTEX
  8
1
 10
0.458760
 20
1.261240
 30
0.000000
  0
SEQEND
  8
0
  0
POLYLINE
  8
1
 66
1
 10
0.000000
 20
0.000000
 30
0.000000
 40
0.010000
 41
0.010000
 70
0
  0
VERTEX
  8
1
 10
0.566142
 20
1.261240
 30
0.000000
 42
1.000000
  0
VERTEX
  8
1
 10
0.566142
 20
1.271240
 30
0.000000
  0
SEQEND
  8
0
  0
POLYLINE
  8
1
 66
1
 10
0.000000
 20
0.000000
 30
0.000000
 40
0.020000
 41
0.020000
 70
0
  0
VERTEX
  8
1
 10
0.413140
 20
1.311860
 30
0.000000
  0
VERTEX
  8
1
 10
0.413140
 20
1.428342
 30
0.000000
  0
SEQEND
  8
0
  0
POLYLINE
  8
1
 66
1
 10
0.000000
 20
0.000000
 30
0.000000
 40
0.010000
 41
0.010000
 70
0
  0
VERTEX
  8
1
 10
0.418140
 20
1.428342
 30
0.000000
 42
1.000000
  0
VERTEX
  8
1
 10
0.408140
 20
1.428342
 30
0.000000
  0
SEQEND
  8
0
  0
POLYLINE
  8
1
 66
1
 10
0.000000
 20
0.000000
 30
0.000000
 40
0.010000
 41
0.010000
 70
0
  0
VERTEX
  8
1
 10
0.408140
 20
1.311860
 30
0.000000
 42
1.000000
  0
VERTEX
  8
1
 10
0.418140
 20
1.311860
 30
0.000000
  0
SEQEND
  8
0
  0
POLYLINE
  8
1
 66
1
 10
0.000000
 20
0.000000
 30
0.000000
 40
0.020000
 41
0.020000
 70
0
  0
VERTEX
  8
1
 10
0.458760
 20
1.266240
 30
0.000000
  0
VERTEX
  8
1
 10
0.413140
 20
1.311860
 30
0.000000
  0
SEQEND
  8
0
  0
POLYLINE
  8
1
 66
1
 10
0.000000
 20
0.000000
 30
0.000000
 40
0.010000
 41
0.010000
 70
0
  0
VERTEX
  8
1
 10
0.416676
 20
1.315395
 30
0.000000
 42
1.000000
  0
VERTEX
  8
1
 10
0.409605
 20
1.308324
 30
0.000000
  0
SEQEND
  8
0
  0
POLYLINE
  8
1
 66
1
 10
0.000000
 20
0.000000
 30
0.000000
 40
0.010000
 41
0.010000
 70
0
  0
VERTEX
  8
1
 10
0.455224
 20
1.262705
 30
0.000000
 42
1.000000
  0
VERTEX
  8
1
 10
0.462295
 20
1.269776
 30
0.000000
  0
SEQEND
  8
0
  0
POLYLINE
  8
1
 66
1
 10
0.000000
 20
0.000000
 30
0.000000
 40
0.020000
 41
0.020000
 70
0
  0
VERTEX
  8
1
 10
0.413140
 20
1.696058
 30
0.000000
  0
VERTEX
  8
1
 10
0.413140
 20
1.788140
 30
0.000000
  0
SEQEND
  8
0
  0
POLYLINE
  8
1
 66
1
 10
0.000000
 20
0.000000
 30
0.000000
 40
0.010000
 41
0.010000
 70
0
  0
VERTEX
  8
1
 10
0.418140
 20
1.788140
 30
0.000000
 42
1.000000
  0
VERTEX
  8
1
 10
0.408140
 20
1.788140
 30
0.000000
  0
SEQEND
  8
0
  0
POLYLINE
  8
1
 66
1
 10
0.000000
 20
0.000000
 30
0.000000
 40
0.010000
 41
0.010000
 70
0
  0
VERTEX
  8
1
 10
0.408140
 20
1.696058
 30
0.000000
 42
1.000000
  0
VERTEX
  8
1
 10
0.418140
 20
1.696058
 30
0.000000
  0
SEQEND
  8
0
  0
POLYLINE
  8
1
 66
1
 10
0.000000
 20
0.000000
 30
0.000000
 40
0.020000
 41
0.020000
 70
0
  0
VERTEX
  8
1
 10
0.483460
 20
1.858460
 30
0.000000
  0
VERTEX
  8
1
 10
0.566142
 20
1.858460
 30
0.000000
  0
SEQEND
  8
0
  0
POLYLINE
  8
1
 66
1
 10
0.000000
 20
0.000000
 30
0.000000
 40
0.010000
 41
0.010000
 70
0
  0
VERTEX
  8
1
 10
0.566142
 20
1.853460
 30
0.000000
 42
1.000000
  0
VERTEX
  8
1
 10
0.566142
 20
1.863460
 30
0.000000
  0
SEQEND
  8
0
  0
POLYLINE
  8
1
 66
1
 10
0.000000
 20
0.000000
 30
0.000000
 40
0.010000
 41
0.010000
 70
0
  0
VERTEX
  8
1
 10
0.483460
 20
1.863460
 30
0.000000
 42
1.000000
  0
VERTEX
  8
1
 10
0.483460
 20
1.853460
 30
0.000000
  0
SEQEND
  8
0
  0
POLYLINE
  8
1
 66
1
 10
0.000000
 20
0.000000
 30
0.000000
 40
0.020000
 41
0.020000
 70
0
  0
VERTEX
  8
1
 10
0.413140
 20
1.788140
 30
0.000000
  0
VERTEX
  8
1
 10
0.483460
 20
1.858460
 30
0.000000
  0
SEQEND
  8
0
  0
POLYLINE
  8
1
 66
1
 10
0.000000
 20
0.000000
 30
0.000000
 40
0.010000
 41
0.010000
 70
0
  0
VERTEX
  8
1
 10
0.486995
 20
1.854924
 30
0.000000
 42
1.000000
  0
VERTEX
  8
1
 10
0.479924
 20
1.861995
 30
0.000000
  0
SEQEND
  8
0
  0
POLYLINE
  8
1
 66
1
 10
0.000000
 20
0.000000
 30
0.000000
 40
0.010000
 41
0.010000
 70
0
  0
VERTEX
  8
1
 10
0.409605
 20
1.791676
 30
0.000000
 42
1.000000
  0
VERTEX
  8
1
 10
0.416676
 20
1.784605
 30
0.000000
  0
SEQEND
  8
0
  0
POLYLINE
  8
1
 66
1
 10
0.000000
 20
0.000000
 30
0.000000
 40
0.020000
 41
0.020000
 70
0
  0
VERTEX
  8
1
 10
0.996260
 20
1.696058
 30
0.000000
  0
VERTEX
  8
1
 10
0.996260
 20
1.803740
 30
0.000000
  0
SEQEND
  8
0
  0
POLYLINE
  8
1
 66
1
 10
0.000000
 20
0.000000
 30
0.000000
 40
0.010000
 41
0.010000
 70
0
  0
VERTEX
  8
1
 10
1.001260
 20
1.803740
 30
0.000000
 42
1.000000
  0
VERTEX
  8
1
 10
0.991260
 20
1.803740
 30
0.000000
  0
SEQEND
  8
0
  0
POLYLINE
  8
1
 66
1
 10
0.000000
 20
0.000000
 30
0.000000
 40
0.010000
 41
0.010000
 70
0
  0
VERTEX
  8
1
 10
0.991260
 20
1.696058
 30
0.000000
 42
1.000000
  0
VERTEX
  8
1
 10
1.001260
 20
1.696058
 30
0.000000
  0
SEQEND
  8
0
  0
POLYLINE
  8
1
 66
1
 10
0.000000
 20
0.000000
 30
0.000000
 40
0.020000
 41
0.020000
 70
0
  0
VERTEX
  8
1
 10
0.941540
 20
1.858460
 30
0.000000
  0
VERTEX
  8
1
 10
0.833858
 20
1.858460
 30
0.000000
  0
SEQEND
  8
0
  0
POLYLINE
  8
1
 66
1
 10
0.000000
 20
0.000000
 30
0.000000
 40
0.010000
 41
0.010000
 70
0
  0
VERTEX
  8
1
 10
0.833858
 20
1.863460
 30
0.000000
 42
1.000000
  0
VERTEX
  8
1
 10
0.833858
 20
1.853460
 30
0.000000
  0
SEQEND
  8
0
  0
POLYLINE
  8
1
 66
1
 10
0.000000
 20
0.000000
 30
0.000000
 40
0.010000
 41
0.010000
 70
0
  0
VERTEX
  8
1
 10
0.941540
 20
1.853460
 30
0.000000
 42
1.000000
  0
VERTEX
  8
1
 10
0.941540
 20
1.863460
 30
0.000000
  0
SEQEND
  8
0
  0
POLYLINE
  8
1
 66
1
 10
0.000000
 20
0.000000
 30
0.000000
 40
0.020000
 41
0.020000
 70
0
  0
VERTEX
  8
1
 10
0.996260
 20
1.803740
 30
0.000000
  0
VERTEX
  8
1
 10
0.941540
 20
1.858460
 30
0.000000
  0
SEQEND
  8
0
  0
POLYLINE
  8
1
 66
1
 10
0.000000
 20
0.000000
 30
0.000000
 40
0.010000
 41
0.010000
 70
0
  0
VERTEX
  8
1
 10
0.945076
 20
1.861995
 30
0.000000
 42
1.000000
  0
VERTEX
  8
1
 10
0.938005
 20
1.854924
 30
0.000000
  0
SEQEND
  8
0
  0
POLYLINE
  8
1
 66
1
 10
0.000000
 20
0.000000
 30
0.000000
 40
0.010000
 41
0.010000
 70
0
  0
VERTEX
  8
1
 10
0.992724
 20
1.800205
 30
0.000000
 42
1.000000
  0
VERTEX
  8
1
 10
0.999795
 20
1.807276
 30
0.000000
  0
SEQEND
  8
0
  0
POLYLINE
  8
1
 66
1
 10
0.000000
 20
0.000000
 30
0.000000
 40
0.020000
 41
0.020000
 70
0
  0
VERTEX
  8
1
 10
0.413140
 20
1.788140
 30
0.000000
  0
VERTEX
  8
1
 10
0.412500
 20
1.875000
 30
0.000000
  0
SEQEND
  8
0
  0
POLYLINE
  8
1
 66
1
 10
0.000000
 20
0.000000
 30
0.000000
 40
0.010000
 41
0.010000
 70
0
  0
VERTEX
  8
1
 10
0.417500
 20
1.875037
 30
0.000000
 42
1.000000
  0
VERTEX
  8
1
 10
0.407500
 20
1.874963
 30
0.000000
  0
SEQEND
  8
0
  0
POLYLINE
  8
1
 66
1
 10
0.000000
 20
0.000000
 30
0.000000
 40
0.010000
 41
0.010000
 70
0
  0
VERTEX
  8
1
 10
0.408140
 20
1.788103
 30
0.000000
 42
1.000000
  0
VERTEX
  8
1
 10
0.418140
 20
1.788177
 30
0.000000
  0
SEQEND
  8
0
  0
POLYLINE
  8
1
 66
1
 10
0.000000
 20
0.000000
 30
0.000000
 40
0.020000
 41
0.020000
 70
0
  0
VERTEX
  8
1
 10
0.291142
 20
0.983460
 30
0.000000
  0
VERTEX
  8
1
 10
0.175000
 20
1.099602
 30
0.000000
  0
SEQEND
  8
0
  0
POLYLINE
  8
1
 66
1
 10
0.000000
 20
0.000000
 30
0.000000
 40
0.010000
 41
0.010000
 70
0
  0
VERTEX
  8
1
 10
0.178536
 20
1.103137
 30
0.000000
 42
1.000000
  0
VERTEX
  8
1
 10
0.171464
 20
1.096066
 30
0.000000
  0
SEQEND
  8
0
  0
POLYLINE
  8
1
 66
1
 10
0.000000
 20
0.000000
 30
0.000000
 40
0.010000
 41
0.010000
 70
0
  0
VERTEX
  8
1
 10
0.287606
 20
0.979924
 30
0.000000
 42
1.000000
  0
VERTEX
  8
1
 10
0.294677
 20
0.986995
 30
0.000000
  0
SEQEND
  8
0
  0
POLYLINE
  8
1
 66
1
 10
0.000000
 20
0.000000
 30
0.000000
 40
0.020000
 41
0.020000
 70
0
  0
VERTEX
  8
1
 10
0.175000
 20
1.762500
 30
0.000000
  0
VERTEX
  8
1
 10
0.175000
 20
1.099602
 30
0.000000
  0
SEQEND
  8
0
  0
POLYLINE
  8
1
 66
1
 10
0.000000
 20
0.000000
 30
0.000000
 40
0.010000
 41
0.010000
 70
0
  0
VERTEX
  8
1
 10
0.170000
 20
1.099602
 30
0.000000
 42
1.000000
  0
VERTEX
  8
1
 10
0.180000
 20
1.099602
 30
0.000000
  0
SEQEND
  8
0
  0
POLYLINE
  8
1
 66
1
 10
0.000000
 20
0.000000
 30
0.000000
 40
0.010000
 41
0.010000
 70
0
  0
VERTEX
  8
1
 10
0.180000
 20
1.762500
 30
0.000000
 42
1.000000
  0
VERTEX
  8
1
 10
0.170000
 20
1.762500
 30
0.000000
  0
SEQEND
  8
0
  0
POLYLINE
  8
1
 66
1
 10
0.000000
 20
0.000000
 30
0.000000
 40
0.020000
 41
0.020000
 70
0
  0
VERTEX
  8
1
 10
0.587500
 20
0.983460
 30
0.000000
  0
VERTEX
  8
1
 10
1.291142
 20
0.983460
 30
0.000000
  0
SEQEND
  8
0
  0
POLYLINE
  8
1
 66
1
 10
0.000000
 20
0.000000
 30
0.000000
 40
0.010000
 41
0.010000
 70
0
  0
VERTEX
  8
1
 10
1.291142
 20
0.978460
 30
0.000000
 42
1.000000
  0
VERTEX
  8
1
 10
1.291142
 20
0.988460
 30
0.000000
  0
SEQEND
  8
0
  0
POLYLINE
  8
1
 66
1
 10
0.000000
 20
0.000000
 30
0.000000
 40
0.010000
 41
0.010000
 70
0
  0
VERTEX
  8
1
 10
0.587500
 20
0.988460
 30
0.000000
 42
1.000000
  0
VERTEX
  8
1
 10
0.587500
 20
0.978460
 30
0.000000
  0
SEQEND
  8
0
  0
POLYLINE
  8
1
 66
1
 10
0.000000
 20
0.000000
 30
0.000000
 40
0.020000
 41
0.020000
 70
0
  0
VERTEX
  8
1
 10
0.587500
 20
0.983460
 30
0.000000
  0
VERTEX
  8
1
 10
0.291142
 20
0.983460
 30
0.000000
  0
SEQEND
  8
0
  0
POLYLINE
  8
1
 66
1
 10
0.000000
 20
0.000000
 30
0.000000
 40
0.010000
 41
0.010000
 70
0
  0
VERTEX
  8
1
 10
0.291142
 20
0.988460
 30
0.000000
 42
1.000000
  0
VERTEX
  8
1
 10
0.291142
 20
0.978460
 30
0.000000
  0
SEQEND
  8
0
  0
POLYLINE
  8
1
 66
1
 10
0.000000
 20
0.000000
 30
0.000000
 40
0.010000
 41
0.010000
 70
0
  0
VERTEX
  8
1
 10
0.587500
 20
0.978460
 30
0.000000
 42
1.000000
  0
VERTEX
  8
1
 10
0.587500
 20
0.988460
 30
0.000000
  0
SEQEND
  8
0
  0
POLYLINE
  8
1
 66
1
 10
0.000000
 20
0.000000
 30
0.000000
 40
0.020000
 41
0.020000
 70
0
  0
VERTEX
  8
1
 10
0.287500
 20
1.875000
 30
0.000000
  0
VERTEX
  8
1
 10
0.175000
 20
1.762500
 30
0.000000
  0
SEQEND
  8
0
  0
POLYLINE
  8
1
 66
1
 10
0.000000
 20
0.000000
 30
0.000000
 40
0.010000
 41
0.010000
 70
0
  0
VERTEX
  8
1
 10
0.171464
 20
1.766036
 30
0.000000
 42
1.000000
  0
VERTEX
  8
1
 10
0.178536
 20
1.758964
 30
0.000000
  0
SEQEND
  8
0
  0
POLYLINE
  8
1
 66
1
 10
0.000000
 20
0.000000
 30
0.000000
 40
0.010000
 41
0.010000
 70
0
  0
VERTEX
  8
1
 10
0.291036
 20
1.871464
 30
0.000000
 42
1.000000
  0
VERTEX
  8
1
 10
0.283964
 20
1.878536
 30
0.000000
  0
SEQEND
  8
0
  0
POLYLINE
  8
1
 66
1
 10
0.000000
 20
0.000000
 30
0.000000
 40
0.020000
 41
0.020000
 70
0
  0
VERTEX
  8
1
 10
1.058858
 20
0.483460
 30
0.000000
  0
VERTEX
  8
1
 10
1.291142
 20
0.483460
 30
0.000000
  0
SEQEND
  8
0
  0
POLYLINE
  8
1
 66
1
 10
0.000000
 20
0.000000
 30
0.000000
 40
0.010000
 41
0.010000
 70
0
  0
VERTEX
  8
1
 10
1.291142
 20
0.478460
 30
0.000000
 42
1.000000
  0
VERTEX
  8
1
 10
1.291142
 20
0.488460
 30
0.000000
  0
SEQEND
  8
0
  0
POLYLINE
  8
1
 66
1
 10
0.000000
 20
0.000000
 30
0.000000
 40
0.010000
 41
0.010000
 70
0
  0
VERTEX
  8
1
 10
1.058858
 20
0.488460
 30
0.000000
 42
1.000000
  0
VERTEX
  8
1
 10
1.058858
 20
0.478460
 30
0.000000
  0
SEQEND
  8
0
  0
POLYLINE
  8
1
 66
1
 10
0.000000
 20
0.000000
 30
0.000000
 40
0.020000
 41
0.020000
 70
0
  0
VERTEX
  8
1
 10
1.791142
 20
0.483460
 30
0.000000
  0
VERTEX
  8
1
 10
1.558858
 20
0.483460
 30
0.000000
  0
SEQEND
  8
0
  0
POLYLINE
  8
1
 66
1
 10
0.000000
 20
0.000000
 30
0.000000
 40
0.010000
 41
0.010000
 70
0
  0
VERTEX
  8
1
 10
1.558858
 20
0.488460
 30
0.000000
 42
1.000000
  0
VERTEX
  8
1
 10
1.558858
 20
0.478460
 30
0.000000
  0
SEQEND
  8
0
  0
POLYLINE
  8
1
 66
1
 10
0.000000
 20
0.000000
 30
0.000000
 40
0.010000
 41
0.010000
 70
0
  0
VERTEX
  8
1
 10
1.791142
 20
0.478460
 30
0.000000
 42
1.000000
  0
VERTEX
  8
1
 10
1.791142
 20
0.488460
 30
0.000000
  0
SEQEND
  8
0
  0
POLYLINE
  8
1
 66
1
 10
0.000000
 20
0.000000
 30
0.000000
 40
0.020000
 41
0.020000
 70
0
  0
VERTEX
  8
1
 10
0.791142
 20
0.483460
 30
0.000000
  0
VERTEX
  8
1
 10
0.704040
 20
0.483460
 30
0.000000
  0
SEQEND
  8
0
  0
POLYLINE
  8
1
 66
1
 10
0.000000
 20
0.000000
 30
0.000000
 40
0.010000
 41
0.010000
 70
0
  0
VERTEX
  8
1
 10
0.704040
 20
0.488460
 30
0.000000
 42
1.000000
  0
VERTEX
  8
1
 10
0.704040
 20
0.478460
 30
0.000000
  0
SEQEND
  8
0
  0
POLYLINE
  8
1
 66
1
 10
0.000000
 20
0.000000
 30
0.000000
 40
0.010000
 41
0.010000
 70
0
  0
VERTEX
  8
1
 10
0.791142
 20
0.478460
 30
0.000000
 42
1.000000
  0
VERTEX
  8
1
 10
0.791142
 20
0.488460
 30
0.000000
  0
SEQEND
  8
0
  0
POLYLINE
  8
1
 66
1
 10
0.000000
 20
0.000000
 30
0.000000
 40
0.020000
 41
0.020000
 70
0
  0
VERTEX
  8
1
 10
0.587500
 20
0.600000
 30
0.000000
  0
VERTEX
  8
1
 10
0.587500
 20
0.983460
 30
0.000000
  0
SEQEND
  8
0
  0
POLYLINE
  8
1
 66
1
 10
0.000000
 20
0.000000
 30
0.000000
 40
0.010000
 41
0.010000
 70
0
  0
VERTEX
  8
1
 10
0.592500
 20
0.983460
 30
0.000000
 42
1.000000
  0
VERTEX
  8
1
 10
0.582500
 20
0.983460
 30
0.000000
  0
SEQEND
  8
0
  0
POLYLINE
  8
1
 66
1
 10
0.000000
 20
0.000000
 30
0.000000
 40
0.010000
 41
0.010000
 70
0
  0
VERTEX
  8
1
 10
0.582500
 20
0.600000
 30
0.000000
 42
1.000000
  0
VERTEX
  8
1
 10
0.592500
 20
0.600000
 30
0.000000
  0
SEQEND
  8
0
  0
POLYLINE
  8
1
 66
1
 10
0.000000
 20
0.000000
 30
0.000000
 40
0.020000
 41
0.020000
 70
0
  0
VERTEX
  8
1
 10
0.704040
 20
0.483460
 30
0.000000
  0
VERTEX
  8
1
 10
0.587500
 20
0.600000
 30
0.000000
  0
SEQEND
  8
0
  0
POLYLINE
  8
1
 66
1
 10
0.000000
 20
0.000000
 30
0.000000
 40
0.010000
 41
0.010000
 70
0
  0
VERTEX
  8
1
 10
0.591036
 20
0.603536
 30
0.000000
 42
1.000000
  0
VERTEX
  8
1
 10
0.583964
 20
0.596464
 30
0.000000
  0
SEQEND
  8
0
  0
POLYLINE
  8
1
 66
1
 10
0.000000
 20
0.000000
 30
0.000000
 40
0.010000
 41
0.010000
 70
0
  0
VERTEX
  8
1
 10
0.700505
 20
0.479924
 30
0.000000
 42
1.000000
  0
VERTEX
  8
1
 10
0.707576
 20
0.486995
 30
0.000000
  0
SEQEND
  8
0
  0
POLYLINE
  8
1
 66
1
 10
0.000000
 20
0.000000
 30
0.000000
 40
0.020000
 41
0.020000
 70
0
  0
VERTEX
  8
1
 10
3.291142
 20
1.083460
 30
0.000000
  0
VERTEX
  8
1
 10
3.558460
 20
1.083460
 30
0.000000
  0
SEQEND
  8
0
  0
POLYLINE
  8
1
 66
1
 10
0.000000
 20
0.000000
 30
0.000000
 40
0.010000
 41
0.010000
 70
0
  0
VERTEX
  8
1
 10
3.558460
 20
1.078460
 30
0.000000
 42
1.000000
  0
VERTEX
  8
1
 10
3.558460
 20
1.088460
 30
0.000000
  0
SEQEND
  8
0
  0
POLYLINE
  8
1
 66
1
 10
0.000000
 20
0.000000
 30
0.000000
 40
0.010000
 41
0.010000
 70
0
  0
VERTEX
  8
1
 10
3.291142
 20
1.088460
 30
0.000000
 42
1.000000
  0
VERTEX
  8
1
 10
3.291142
 20
1.078460
 30
0.000000
  0
SEQEND
  8
0
  0
POLYLINE
  8
1
 66
1
 10
0.000000
 20
0.000000
 30
0.000000
 40
0.020000
 41
0.020000
 70
0
  0
VERTEX
  8
1
 10
3.558460
 20
1.083460
 30
0.000000
  0
VERTEX
  8
1
 10
3.575000
 20
1.100000
 30
0.000000
  0
SEQEND
  8
0
  0
POLYLINE
  8
1
 66
1
 10
0.000000
 20
0.000000
 30
0.000000
 40
0.010000
 41
0.010000
 70
0
  0
VERTEX
  8
1
 10
3.578536
 20
1.096464
 30
0.000000
 42
1.000000
  0
VERTEX
  8
1
 10
3.571464
 20
1.103536
 30
0.000000
  0
SEQEND
  8
0
  0
POLYLINE
  8
1
 66
1
 10
0.000000
 20
0.000000
 30
0.000000
 40
0.010000
 41
0.010000
 70
0
  0
VERTEX
  8
1
 10
3.554924
 20
1.086995
 30
0.000000
 42
1.000000
  0
VERTEX
  8
1
 10
3.561995
 20
1.079924
 30
0.000000
  0
SEQEND
  8
0
  0
POLYLINE
  8
1
 66
1
 10
0.000000
 20
0.000000
 30
0.000000
 40
0.020000
 41
0.020000
 70
0
  0
VERTEX
  8
1
 10
3.575000
 20
1.100000
 30
0.000000
  0
VERTEX
  8
1
 10
3.725000
 20
1.100000
 30
0.000000
  0
SEQEND
  8
0
  0
POLYLINE
  8
1
 66
1
 10
0.000000
 20
0.000000
 30
0.000000
 40
0.010000
 41
0.010000
 70
0
  0
VERTEX
  8
1
 10
3.725000
 20
1.095000
 30
0.000000
 42
1.000000
  0
VERTEX
  8
1
 10
3.725000
 20
1.105000
 30
0.000000
  0
SEQEND
  8
0
  0
POLYLINE
  8
1
 66
1
 10
0.000000
 20
0.000000
 30
0.000000
 40
0.010000
 41
0.010000
 70
0
  0
VERTEX
  8
1
 10
3.575000
 20
1.105000
 30
0.000000
 42
1.000000
  0
VERTEX
  8
1
 10
3.575000
 20
1.095000
 30
0.000000
  0
SEQEND
  8
0
  0
POLYLINE
  8
1
 66
1
 10
0.000000
 20
0.000000
 30
0.000000
 40
0.020000
 41
0.020000
 70
0
  0
VERTEX
  8
1
 10
3.725000
 20
1.100000
 30
0.000000
  0
VERTEX
  8
1
 10
3.950000
 20
1.325000
 30
0.000000
  0
SEQEND
  8
0
  0
POLYLINE
  8
1
 66
1
 10
0.000000
 20
0.000000
 30
0.000000
 40
0.010000
 41
0.010000
 70
0
  0
VERTEX
  8
1
 10
3.953536
 20
1.321464
 30
0.000000
 42
1.000000
  0
VERTEX
  8
1
 10
3.946464
 20
1.328536
 30
0.000000
  0
SEQEND
  8
0
  0
POLYLINE
  8
1
 66
1
 10
0.000000
 20
0.000000
 30
0.000000
 40
0.010000
 41
0.010000
 70
0
  0
VERTEX
  8
1
 10
3.721464
 20
1.103536
 30
0.000000
 42
1.000000
  0
VERTEX
  8
1
 10
3.728536
 20
1.096464
 30
0.000000
  0
SEQEND
  8
0
  0
POLYLINE
  8
1
 66
1
 10
0.000000
 20
0.000000
 30
0.000000
 40
0.020000
 41
0.020000
 70
0
  0
VERTEX
  8
1
 10
4.099798
 20
1.650000
 30
0.000000
  0
VERTEX
  8
1
 10
4.108858
 20
1.640940
 30
0.000000
  0
SEQEND
  8
0
  0
POLYLINE
  8
1
 66
1
 10
0.000000
 20
0.000000
 30
0.000000
 40
0.010000
 41
0.010000
 70
0
  0
VERTEX
  8
1
 10
4.105323
 20
1.637405
 30
0.000000
 42
1.000000
  0
VERTEX
  8
1
 10
4.112394
 20
1.644476
 30
0.000000
  0
SEQEND
  8
0
  0
POLYLINE
  8
1
 66
1
 10
0.000000
 20
0.000000
 30
0.000000
 40
0.010000
 41
0.010000
 70
0
  0
VERTEX
  8
1
 10
4.103334
 20
1.653536
 30
0.000000
 42
1.000000
  0
VERTEX
  8
1
 10
4.096263
 20
1.646464
 30
0.000000
  0
SEQEND
  8
0
  0
POLYLINE
  8
1
 66
1
 10
0.000000
 20
0.000000
 30
0.000000
 40
0.020000
 41
0.020000
 70
0
  0
VERTEX
  8
1
 10
3.850202
 20
1.650000
 30
0.000000
  0
VERTEX
  8
1
 10
3.841142
 20
1.640940
 30
0.000000
  0
SEQEND
  8
0
  0
POLYLINE
  8
1
 66
1
 10
0.000000
 20
0.000000
 30
0.000000
 40
0.010000
 41
0.010000
 70
0
  0
VERTEX
  8
1
 10
3.837606
 20
1.644476
 30
0.000000
 42
1.000000
  0
VERTEX
  8
1
 10
3.844677
 20
1.637405
 30
0.000000
  0
SEQEND
  8
0
  0
POLYLINE
  8
1
 66
1
 10
0.000000
 20
0.000000
 30
0.000000
 40
0.010000
 41
0.010000
 70
0
  0
VERTEX
  8
1
 10
3.853737
 20
1.646464
 30
0.000000
 42
1.000000
  0
VERTEX
  8
1
 10
3.846666
 20
1.653536
 30
0.000000
  0
SEQEND
  8
0
  0
POLYLINE
  8
1
 66
1
 10
0.000000
 20
0.000000
 30
0.000000
 40
0.020000
 41
0.020000
 70
0
  0
VERTEX
  8
1
 10
3.008858
 20
1.640940
 30
0.000000
  0
VERTEX
  8
1
 10
3.090940
 20
1.640940
 30
0.000000
  0
SEQEND
  8
0
  0
POLYLINE
  8
1
 66
1
 10
0.000000
 20
0.000000
 30
0.000000
 40
0.010000
 41
0.010000
 70
0
  0
VERTEX
  8
1
 10
3.090940
 20
1.635940
 30
0.000000
 42
1.000000
  0
VERTEX
  8
1
 10
3.090940
 20
1.645940
 30
0.000000
  0
SEQEND
  8
0
  0
POLYLINE
  8
1
 66
1
 10
0.000000
 20
0.000000
 30
0.000000
 40
0.010000
 41
0.010000
 70
0
  0
VERTEX
  8
1
 10
3.008858
 20
1.645940
 30
0.000000
 42
1.000000
  0
VERTEX
  8
1
 10
3.008858
 20
1.635940
 30
0.000000
  0
SEQEND
  8
0
  0
POLYLINE
  8
1
 66
1
 10
0.000000
 20
0.000000
 30
0.000000
 40
0.020000
 41
0.020000
 70
0
  0
VERTEX
  8
1
 10
3.090940
 20
1.640940
 30
0.000000
  0
VERTEX
  8
1
 10
3.125000
 20
1.675000
 30
0.000000
  0
SEQEND
  8
0
  0
POLYLINE
  8
1
 66
1
 10
0.000000
 20
0.000000
 30
0.000000
 40
0.010000
 41
0.010000
 70
0
  0
VERTEX
  8
1
 10
3.128536
 20
1.671464
 30
0.000000
 42
1.000000
  0
VERTEX
  8
1
 10
3.121464
 20
1.678536
 30
0.000000
  0
SEQEND
  8
0
  0
POLYLINE
  8
1
 66
1
 10
0.000000
 20
0.000000
 30
0.000000
 40
0.010000
 41
0.010000
 70
0
  0
VERTEX
  8
1
 10
3.087405
 20
1.644476
 30
0.000000
 42
1.000000
  0
VERTEX
  8
1
 10
3.094476
 20
1.637405
 30
0.000000
  0
SEQEND
  8
0
  0
POLYLINE
  8
1
 66
1
 10
0.000000
 20
0.000000
 30
0.000000
 40
0.020000
 41
0.020000
 70
0
  0
VERTEX
  8
1
 10
3.125000
 20
1.675000
 30
0.000000
  0
VERTEX
  8
1
 10
3.125000
 20
1.987500
 30
0.000000
  0
SEQEND
  8
0
  0
POLYLINE
  8
1
 66
1
 10
0.000000
 20
0.000000
 30
0.000000
 40
0.010000
 41
0.010000
 70
0
  0
VERTEX
  8
1
 10
3.130000
 20
1.987500
 30
0.000000
 42
1.000000
  0
VERTEX
  8
1
 10
3.120000
 20
1.987500
 30
0.000000
  0
SEQEND
  8
0
  0
POLYLINE
  8
1
 66
1
 10
0.000000
 20
0.000000
 30
0.000000
 40
0.010000
 41
0.010000
 70
0
  0
VERTEX
  8
1
 10
3.120000
 20
1.675000
 30
0.000000
 42
1.000000
  0
VERTEX
  8
1
 10
3.130000
 20
1.675000
 30
0.000000
  0
SEQEND
  8
0
  0
POLYLINE
  8
1
 66
1
 10
0.000000
 20
0.000000
 30
0.000000
 40
0.020000
 41
0.020000
 70
0
  0
VERTEX
  8
1
 10
3.125000
 20
2.000000
 30
0.000000
  0
VERTEX
  8
1
 10
3.165940
 20
2.040940
 30
0.000000
  0
SEQEND
  8
0
  0
POLYLINE
  8
1
 66
1
 10
0.000000
 20
0.000000
 30
0.000000
 40
0.010000
 41
0.010000
 70
0
  0
VERTEX
  8
1
 10
3.169476
 20
2.037405
 30
0.000000
 42
1.000000
  0
VERTEX
  8
1
 10
3.162405
 20
2.044476
 30
0.000000
  0
SEQEND
  8
0
  0
POLYLINE
  8
1
 66
1
 10
0.000000
 20
0.000000
 30
0.000000
 40
0.010000
 41
0.010000
 70
0
  0
VERTEX
  8
1
 10
3.121464
 20
2.003536
 30
0.000000
 42
1.000000
  0
VERTEX
  8
1
 10
3.128536
 20
1.996464
 30
0.000000
  0
SEQEND
  8
0
  0
POLYLINE
  8
1
 66
1
 10
0.000000
 20
0.000000
 30
0.000000
 40
0.020000
 41
0.020000
 70
0
  0
VERTEX
  8
1
 10
3.165940
 20
2.040940
 30
0.000000
  0
VERTEX
  8
1
 10
3.291142
 20
2.040940
 30
0.000000
  0
SEQEND
  8
0
  0
POLYLINE
  8
1
 66
1
 10
0.000000
 20
0.000000
 30
0.000000
 40
0.010000
 41
0.010000
 70
0
  0
VERTEX
  8
1
 10
3.291142
 20
2.035940
 30
0.000000
 42
1.000000
  0
VERTEX
  8
1
 10
3.291142
 20
2.045940
 30
0.000000
  0
SEQEND
  8
0
  0
POLYLINE
  8
1
 66
1
 10
0.000000
 20
0.000000
 30
0.000000
 40
0.010000
 41
0.010000
 70
0
  0
VERTEX
  8
1
 10
3.165940
 20
2.045940
 30
0.000000
 42
1.000000
  0
VERTEX
  8
1
 10
3.165940
 20
2.035940
 30
0.000000
  0
SEQEND
  8
0
  0
POLYLINE
  8
1
 66
1
 10
0.000000
 20
0.000000
 30
0.000000
 40
0.020000
 41
0.020000
 70
0
  0
VERTEX
  8
1
 10
3.125000
 20
2.000000
 30
0.000000
  0
VERTEX
  8
1
 10
3.125000
 20
1.987500
 30
0.000000
  0
SEQEND
  8
0
  0
POLYLINE
  8
1
 66
1
 10
0.000000
 20
0.000000
 30
0.000000
 40
0.010000
 41
0.010000
 70
0
  0
VERTEX
  8
1
 10
3.120000
 20
1.987500
 30
0.000000
 42
1.000000
  0
VERTEX
  8
1
 10
3.130000
 20
1.987500
 30
0.000000
  0
SEQEND
  8
0
  0
POLYLINE
  8
1
 66
1
 10
0.000000
 20
0.000000
 30
0.000000
 40
0.010000
 41
0.010000
 70
0
  0
VERTEX
  8
1
 10
3.130000
 20
2.000000
 30
0.000000
 42
1.000000
  0
VERTEX
  8
1
 10
3.120000
 20
2.000000
 30
0.000000
  0
SEQEND
  8
0
  0
POLYLINE
  8
1
 66
1
 10
0.000000
 20
0.000000
 30
0.000000
 40
0.020000
 41
0.020000
 70
0
  0
VERTEX
  8
1
 10
3.837500
 20
1.640940
 30
0.000000
  0
VERTEX
  8
1
 10
3.841142
 20
1.640940
 30
0.000000
  0
SEQEND
  8
0
  0
POLYLINE
  8
1
 66
1
 10
0.000000
 20
0.000000
 30
0.000000
 40
0.010000
 41
0.010000
 70
0
  0
VERTEX
  8
1
 10
3.841142
 20
1.635940
 30
0.000000
 42
1.000000
  0
VERTEX
  8
1
 10
3.841142
 20
1.645940
 30
0.000000
  0
SEQEND
  8
0
  0
POLYLINE
  8
1
 66
1
 10
0.000000
 20
0.000000
 30
0.000000
 40
0.010000
 41
0.010000
 70
0
  0
VERTEX
  8
1
 10
3.837500
 20
1.645940
 30
0.000000
 42
1.000000
  0
VERTEX
  8
1
 10
3.837500
 20
1.635940
 30
0.000000
  0
SEQEND
  8
0
  0
POLYLINE
  8
1
 66
1
 10
0.000000
 20
0.000000
 30
0.000000
 40
0.020000
 41
0.020000
 70
0
  0
VERTEX
  8
1
 10
3.837500
 20
1.640940
 30
0.000000
  0
VERTEX
  8
1
 10
3.746560
 20
1.640940
 30
0.000000
  0
SEQEND
  8
0
  0
POLYLINE
  8
1
 66
1
 10
0.000000
 20
0.000000
 30
0.000000
 40
0.010000
 41
0.010000
 70
0
  0
VERTEX
  8
1
 10
3.746560
 20
1.645940
 30
0.000000
 42
1.000000
  0
VERTEX
  8
1
 10
3.746560
 20
1.635940
 30
0.000000
  0
SEQEND
  8
0
  0
POLYLINE
  8
1
 66
1
 10
0.000000
 20
0.000000
 30
0.000000
 40
0.010000
 41
0.010000
 70
0
  0
VERTEX
  8
1
 10
3.837500
 20
1.635940
 30
0.000000
 42
1.000000
  0
VERTEX
  8
1
 10
3.837500
 20
1.645940
 30
0.000000
  0
SEQEND
  8
0
  0
POLYLINE
  8
1
 66
1
 10
0.000000
 20
0.000000
 30
0.000000
 40
0.020000
 41
0.020000
 70
0
  0
VERTEX
  8
1
 10
3.746560
 20
1.640940
 30
0.000000
  0
VERTEX
  8
1
 10
3.687500
 20
1.700000
 30
0.000000
  0
SEQEND
  8
0
  0
POLYLINE
  8
1
 66
1
 10
0.000000
 20
0.000000
 30
0.000000
 40
0.010000
 41
0.010000
 70
0
  0
VERTEX
  8
1
 10
3.691036
 20
1.703536
 30
0.000000
 42
1.000000
  0
VERTEX
  8
1
 10
3.683964
 20
1.696464
 30
0.000000
  0
SEQEND
  8
0
  0
POLYLINE
  8
1
 66
1
 10
0.000000
 20
0.000000
 30
0.000000
 40
0.010000
 41
0.010000
 70
0
  0
VERTEX
  8
1
 10
3.743024
 20
1.637405
 30
0.000000
 42
1.000000
  0
VERTEX
  8
1
 10
3.750095
 20
1.644476
 30
0.000000
  0
SEQEND
  8
0
  0
POLYLINE
  8
1
 66
1
 10
0.000000
 20
0.000000
 30
0.000000
 40
0.020000
 41
0.020000
 70
0
  0
VERTEX
  8
1
 10
3.659060
 20
2.040940
 30
0.000000
  0
VERTEX
  8
1
 10
3.558858
 20
2.040940
 30
0.000000
  0
SEQEND
  8
0
  0
POLYLINE
  8
1
 66
1
 10
0.000000
 20
0.000000
 30
0.000000
 40
0.010000
 41
0.010000
 70
0
  0
VERTEX
  8
1
 10
3.558858
 20
2.045940
 30
0.000000
 42
1.000000
  0
VERTEX
  8
1
 10
3.558858
 20
2.035940
 30
0.000000
  0
SEQEND
  8
0
  0
POLYLINE
  8
1
 66
1
 10
0.000000
 20
0.000000
 30
0.000000
 40
0.010000
 41
0.010000
 70
0
  0
VERTEX
  8
1
 10
3.659060
 20
2.035940
 30
0.000000
 42
1.000000
  0
VERTEX
  8
1
 10
3.659060
 20
2.045940
 30
0.000000
  0
SEQEND
  8
0
  0
POLYLINE
  8
1
 66
1
 10
0.000000
 20
0.000000
 30
0.000000
 40
0.020000
 41
0.020000
 70
0
  0
VERTEX
  8
1
 10
3.687500
 20
1.700000
 30
0.000000
  0
VERTEX
  8
1
 10
3.687500
 20
2.012500
 30
0.000000
  0
SEQEND
  8
0
  0
POLYLINE
  8
1
 66
1
 10
0.000000
 20
0.000000
 30
0.000000
 40
0.010000
 41
0.010000
 70
0
  0
VERTEX
  8
1
 10
3.692500
 20
2.012500
 30
0.000000
 42
1.000000
  0
VERTEX
  8
1
 10
3.682500
 20
2.012500
 30
0.000000
  0
SEQEND
  8
0
  0
POLYLINE
  8
1
 66
1
 10
0.000000
 20
0.000000
 30
0.000000
 40
0.010000
 41
0.010000
 70
0
  0
VERTEX
  8
1
 10
3.682500
 20
1.700000
 30
0.000000
 42
1.000000
  0
VERTEX
  8
1
 10
3.692500
 20
1.700000
 30
0.000000
  0
SEQEND
  8
0
  0
POLYLINE
  8
1
 66
1
 10
0.000000
 20
0.000000
 30
0.000000
 40
0.020000
 41
0.020000
 70
0
  0
VERTEX
  8
1
 10
3.687500
 20
2.012500
 30
0.000000
  0
VERTEX
  8
1
 10
3.659060
 20
2.040940
 30
0.000000
  0
SEQEND
  8
0
  0
POLYLINE
  8
1
 66
1
 10
0.000000
 20
0.000000
 30
0.000000
 40
0.010000
 41
0.010000
 70
0
  0
VERTEX
  8
1
 10
3.662595
 20
2.044476
 30
0.000000
 42
1.000000
  0
VERTEX
  8
1
 10
3.655524
 20
2.037405
 30
0.000000
  0
SEQEND
  8
0
  0
POLYLINE
  8
1
 66
1
 10
0.000000
 20
0.000000
 30
0.000000
 40
0.010000
 41
0.010000
 70
0
  0
VERTEX
  8
1
 10
3.683964
 20
2.008964
 30
0.000000
 42
1.000000
  0
VERTEX
  8
1
 10
3.691036
 20
2.016036
 30
0.000000
  0
SEQEND
  8
0
  0
POLYLINE
  8
1
 66
1
 10
0.000000
 20
0.000000
 30
0.000000
 40
0.020000
 41
0.020000
 70
0
  0
VERTEX
  8
1
 10
3.950000
 20
1.625000
 30
0.000000
  0
VERTEX
  8
1
 10
3.934060
 20
1.640940
 30
0.000000
  0
SEQEND
  8
0
  0
POLYLINE
  8
1
 66
1
 10
0.000000
 20
0.000000
 30
0.000000
 40
0.010000
 41
0.010000
 70
0
  0
VERTEX
  8
1
 10
3.937595
 20
1.644476
 30
0.000000
 42
1.000000
  0
VERTEX
  8
1
 10
3.930524
 20
1.637405
 30
0.000000
  0
SEQEND
  8
0
  0
POLYLINE
  8
1
 66
1
 10
0.000000
 20
0.000000
 30
0.000000
 40
0.010000
 41
0.010000
 70
0
  0
VERTEX
  8
1
 10
3.946464
 20
1.621464
 30
0.000000
 42
1.000000
  0
VERTEX
  8
1
 10
3.953536
 20
1.628536
 30
0.000000
  0
SEQEND
  8
0
  0
POLYLINE
  8
1
 66
1
 10
0.000000
 20
0.000000
 30
0.000000
 40
0.020000
 41
0.020000
 70
0
  0
VERTEX
  8
1
 10
3.934060
 20
1.640940
 30
0.000000
  0
VERTEX
  8
1
 10
3.837500
 20
1.640940
 30
0.000000
  0
SEQEND
  8
0
  0
POLYLINE
  8
1
 66
1
 10
0.000000
 20
0.000000
 30
0.000000
 40
0.010000
 41
0.010000
 70
0
  0
VERTEX
  8
1
 10
3.837500
 20
1.645940
 30
0.000000
 42
1.000000
  0
VERTEX
  8
1
 10
3.837500
 20
1.635940
 30
0.000000
  0
SEQEND
  8
0
  0
POLYLINE
  8
1
 66
1
 10
0.000000
 20
0.000000
 30
0.000000
 40
0.010000
 41
0.010000
 70
0
  0
VERTEX
  8
1
 10
3.934060
 20
1.635940
 30
0.000000
 42
1.000000
  0
VERTEX
  8
1
 10
3.934060
 20
1.645940
 30
0.000000
  0
SEQEND
  8
0
  0
POLYLINE
  8
1
 66
1
 10
0.000000
 20
0.000000
 30
0.000000
 40
0.020000
 41
0.020000
 70
0
  0
VERTEX
  8
1
 10
3.950000
 20
1.325000
 30
0.000000
  0
VERTEX
  8
1
 10
3.950000
 20
1.625000
 30
0.000000
  0
SEQEND
  8
0
  0
POLYLINE
  8
1
 66
1
 10
0.000000
 20
0.000000
 30
0.000000
 40
0.010000
 41
0.010000
 70
0
  0
VERTEX
  8
1
 10
3.955000
 20
1.625000
 30
0.000000
 42
1.000000
  0
VERTEX
  8
1
 10
3.945000
 20
1.625000
 30
0.000000
  0
SEQEND
  8
0
  0
POLYLINE
  8
1
 66
1
 10
0.000000
 20
0.000000
 30
0.000000
 40
0.010000
 41
0.010000
 70
0
  0
VERTEX
  8
1
 10
3.945000
 20
1.325000
 30
0.000000
 42
1.000000
  0
VERTEX
  8
1
 10
3.955000
 20
1.325000
 30
0.000000
  0
SEQEND
  8
0
  0
POLYLINE
  8
1
 66
1
 10
0.000000
 20
0.000000
 30
0.000000
 40
0.020000
 41
0.020000
 70
0
  0
VERTEX
  8
1
 10
3.691929
 20
1.487500
 30
0.000000
  0
VERTEX
  8
1
 10
3.695969
 20
1.483460
 30
0.000000
  0
SEQEND
  8
0
  0
POLYLINE
  8
1
 66
1
 10
0.000000
 20
0.000000
 30
0.000000
 40
0.010000
 41
0.010000
 70
0
  0
VERTEX
  8
1
 10
3.692434
 20
1.479924
 30
0.000000
 42
1.000000
  0
VERTEX
  8
1
 10
3.699505
 20
1.486995
 30
0.000000
  0
SEQEND
  8
0
  0
POLYLINE
  8
1
 66
1
 10
0.000000
 20
0.000000
 30
0.000000
 40
0.010000
 41
0.010000
 70
0
  0
VERTEX
  8
1
 10
3.695465
 20
1.491036
 30
0.000000
 42
1.000000
  0
VERTEX
  8
1
 10
3.688394
 20
1.483964
 30
0.000000
  0
SEQEND
  8
0
  0
POLYLINE
  8
1
 66
1
 10
0.000000
 20
0.000000
 30
0.000000
 40
0.020000
 41
0.020000
 70
0
  0
VERTEX
  8
1
 10
3.695969
 20
1.483460
 30
0.000000
  0
VERTEX
  8
1
 10
3.841142
 20
1.483460
 30
0.000000
  0
SEQEND
  8
0
  0
POLYLINE
  8
1
 66
1
 10
0.000000
 20
0.000000
 30
0.000000
 40
0.010000
 41
0.010000
 70
0
  0
VERTEX
  8
1
 10
3.841142
 20
1.478460
 30
0.000000
 42
1.000000
  0
VERTEX
  8
1
 10
3.841142
 20
1.488460
 30
0.000000
  0
SEQEND
  8
0
  0
POLYLINE
  8
1
 66
1
 10
0.000000
 20
0.000000
 30
0.000000
 40
0.010000
 41
0.010000
 70
0
  0
VERTEX
  8
1
 10
3.695969
 20
1.488460
 30
0.000000
 42
1.000000
  0
VERTEX
  8
1
 10
3.695969
 20
1.478460
 30
0.000000
  0
SEQEND
  8
0
  0
POLYLINE
  8
1
 66
1
 10
0.000000
 20
0.000000
 30
0.000000
 40
0.020000
 41
0.020000
 70
0
  0
VERTEX
  8
1
 10
3.129429
 20
1.237500
 30
0.000000
  0
VERTEX
  8
1
 10
3.287702
 20
1.237500
 30
0.000000
  0
SEQEND
  8
0
  0
POLYLINE
  8
1
 66
1
 10
0.000000
 20
0.000000
 30
0.000000
 40
0.010000
 41
0.010000
 70
0
  0
VERTEX
  8
1
 10
3.287702
 20
1.232500
 30
0.000000
 42
1.000000
  0
VERTEX
  8
1
 10
3.287702
 20
1.242500
 30
0.000000
  0
SEQEND
  8
0
  0
POLYLINE
  8
1
 66
1
 10
0.000000
 20
0.000000
 30
0.000000
 40
0.010000
 41
0.010000
 70
0
  0
VERTEX
  8
1
 10
3.129429
 20
1.242500
 30
0.000000
 42
1.000000
  0
VERTEX
  8
1
 10
3.129429
 20
1.232500
 30
0.000000
  0
SEQEND
  8
0
  0
POLYLINE
  8
1
 66
1
 10
0.000000
 20
0.000000
 30
0.000000
 40
0.020000
 41
0.020000
 70
0
  0
VERTEX
  8
1
 10
3.287702
 20
1.237500
 30
0.000000
  0
VERTEX
  8
1
 10
3.291142
 20
1.240940
 30
0.000000
  0
SEQEND
  8
0
  0
POLYLINE
  8
1
 66
1
 10
0.000000
 20
0.000000
 30
0.000000
 40
0.010000
 41
0.010000
 70
0
  0
VERTEX
  8
1
 10
3.294677
 20
1.237405
 30
0.000000
 42
1.000000
  0
VERTEX
  8
1
 10
3.287606
 20
1.244476
 30
0.000000
  0
SEQEND
  8
0
  0
POLYLINE
  8
1
 66
1
 10
0.000000
 20
0.000000
 30
0.000000
 40
0.010000
 41
0.010000
 70
0
  0
VERTEX
  8
1
 10
3.284166
 20
1.241036
 30
0.000000
 42
1.000000
  0
VERTEX
  8
1
 10
3.291237
 20
1.233964
 30
0.000000
  0
SEQEND
  8
0
  0
POLYLINE
  8
1
 66
1
 10
0.000000
 20
0.000000
 30
0.000000
 40
0.020000
 41
0.020000
 70
0
  0
VERTEX
  8
1
 10
3.554429
 20
1.725000
 30
0.000000
  0
VERTEX
  8
1
 10
3.558858
 20
1.729429
 30
0.000000
  0
SEQEND
  8
0
  0
POLYLINE
  8
1
 66
1
 10
0.000000
 20
0.000000
 30
0.000000
 40
0.010000
 41
0.010000
 70
0
  0
VERTEX
  8
1
 10
3.562394
 20
1.725894
 30
0.000000
 42
1.000000
  0
VERTEX
  8
1
 10
3.555323
 20
1.732965
 30
0.000000
  0
SEQEND
  8
0
  0
POLYLINE
  8
1
 66
1
 10
0.000000
 20
0.000000
 30
0.000000
 40
0.010000
 41
0.010000
 70
0
  0
VERTEX
  8
1
 10
3.550894
 20
1.728536
 30
0.000000
 42
1.000000
  0
VERTEX
  8
1
 10
3.557965
 20
1.721464
 30
0.000000
  0
SEQEND
  8
0
  0
POLYLINE
  8
1
 66
1
 10
0.000000
 20
0.000000
 30
0.000000
 40
0.020000
 41
0.020000
 70
0
  0
VERTEX
  8
1
 10
3.558858
 20
1.729429
 30
0.000000
  0
VERTEX
  8
1
 10
3.558858
 20
1.883460
 30
0.000000
  0
SEQEND
  8
0
  0
POLYLINE
  8
1
 66
1
 10
0.000000
 20
0.000000
 30
0.000000
 40
0.010000
 41
0.010000
 70
0
  0
VERTEX
  8
1
 10
3.563858
 20
1.883460
 30
0.000000
 42
1.000000
  0
VERTEX
  8
1
 10
3.553858
 20
1.883460
 30
0.000000
  0
SEQEND
  8
0
  0
POLYLINE
  8
1
 66
1
 10
0.000000
 20
0.000000
 30
0.000000
 40
0.010000
 41
0.010000
 70
0
  0
VERTEX
  8
1
 10
3.553858
 20
1.729429
 30
0.000000
 42
1.000000
  0
VERTEX
  8
1
 10
3.563858
 20
1.729429
 30
0.000000
  0
SEQEND
  8
0
  0
POLYLINE
  8
1
 66
1
 10
0.000000
 20
0.000000
 30
0.000000
 40
0.020000
 41
0.020000
 70
0
  0
VERTEX
  8
1
 10
2.604429
 20
1.587500
 30
0.000000
  0
VERTEX
  8
1
 10
2.708469
 20
1.483460
 30
0.000000
  0
SEQEND
  8
0
  0
POLYLINE
  8
1
 66
1
 10
0.000000
 20
0.000000
 30
0.000000
 40
0.010000
 41
0.010000
 70
0
  0
VERTEX
  8
1
 10
2.704934
 20
1.479924
 30
0.000000
 42
1.000000
  0
VERTEX
  8
1
 10
2.712005
 20
1.486995
 30
0.000000
  0
SEQEND
  8
0
  0
POLYLINE
  8
1
 66
1
 10
0.000000
 20
0.000000
 30
0.000000
 40
0.010000
 41
0.010000
 70
0
  0
VERTEX
  8
1
 10
2.607965
 20
1.591036
 30
0.000000
 42
1.000000
  0
VERTEX
  8
1
 10
2.600894
 20
1.583964
 30
0.000000
  0
SEQEND
  8
0
  0
POLYLINE
  8
1
 66
1
 10
0.000000
 20
0.000000
 30
0.000000
 40
0.020000
 41
0.020000
 70
0
  0
VERTEX
  8
1
 10
2.708469
 20
1.483460
 30
0.000000
  0
VERTEX
  8
1
 10
2.741142
 20
1.483460
 30
0.000000
  0
SEQEND
  8
0
  0
POLYLINE
  8
1
 66
1
 10
0.000000
 20
0.000000
 30
0.000000
 40
0.010000
 41
0.010000
 70
0
  0
VERTEX
  8
1
 10
2.741142
 20
1.478460
 30
0.000000
 42
1.000000
  0
VERTEX
  8
1
 10
2.741142
 20
1.488460
 30
0.000000
  0
SEQEND
  8
0
  0
POLYLINE
  8
1
 66
1
 10
0.000000
 20
0.000000
 30
0.000000
 40
0.010000
 41
0.010000
 70
0
  0
VERTEX
  8
1
 10
2.708469
 20
1.488460
 30
0.000000
 42
1.000000
  0
VERTEX
  8
1
 10
2.708469
 20
1.478460
 30
0.000000
  0
SEQEND
  8
0
  0
POLYLINE
  8
1
 66
1
 10
0.000000
 20
0.000000
 30
0.000000
 40
0.020000
 41
0.020000
 70
0
  0
VERTEX
  8
1
 10
1.500000
 20
1.829429
 30
0.000000
  0
VERTEX
  8
1
 10
1.620772
 20
1.829429
 30
0.000000
  0
SEQEND
  8
0
  0
POLYLINE
  8
1
 66
1
 10
0.000000
 20
0.000000
 30
0.000000
 40
0.010000
 41
0.010000
 70
0
  0
VERTEX
  8
1
 10
1.620772
 20
1.824429
 30
0.000000
 42
1.000000
  0
VERTEX
  8
1
 10
1.620772
 20
1.834429
 30
0.000000
  0
SEQEND
  8
0
  0
POLYLINE
  8
1
 66
1
 10
0.000000
 20
0.000000
 30
0.000000
 40
0.010000
 41
0.010000
 70
0
  0
VERTEX
  8
1
 10
1.500000
 20
1.834429
 30
0.000000
 42
1.000000
  0
VERTEX
  8
1
 10
1.500000
 20
1.824429
 30
0.000000
  0
SEQEND
  8
0
  0
POLYLINE
  8
1
 66
1
 10
0.000000
 20
0.000000
 30
0.000000
 40
0.020000
 41
0.020000
 70
0
  0
VERTEX
  8
1
 10
1.620772
 20
1.829429
 30
0.000000
  0
VERTEX
  8
1
 10
1.621260
 20
1.828942
 30
0.000000
  0
SEQEND
  8
0
  0
POLYLINE
  8
1
 66
1
 10
0.000000
 20
0.000000
 30
0.000000
 40
0.010000
 41
0.010000
 70
0
  0
VERTEX
  8
1
 10
1.617724
 20
1.825406
 30
0.000000
 42
1.000000
  0
VERTEX
  8
1
 10
1.624795
 20
1.832477
 30
0.000000
  0
SEQEND
  8
0
  0
POLYLINE
  8
1
 66
1
 10
0.000000
 20
0.000000
 30
0.000000
 40
0.010000
 41
0.010000
 70
0
  0
VERTEX
  8
1
 10
1.624308
 20
1.832965
 30
0.000000
 42
1.000000
  0
VERTEX
  8
1
 10
1.617237
 20
1.825894
 30
0.000000
  0
SEQEND
  8
0
  0
POLYLINE
  8
1
 66
1
 10
0.000000
 20
0.000000
 30
0.000000
 40
0.020000
 41
0.020000
 70
0
  0
VERTEX
  8
1
 10
1.116929
 20
2.012500
 30
0.000000
  0
VERTEX
  8
1
 10
1.116929
 20
1.854429
 30
0.000000
  0
SEQEND
  8
0
  0
POLYLINE
  8
1
 66
1
 10
0.000000
 20
0.000000
 30
0.000000
 40
0.010000
 41
0.010000
 70
0
  0
VERTEX
  8
1
 10
1.111929
 20
1.854429
 30
0.000000
 42
1.000000
  0
VERTEX
  8
1
 10
1.121929
 20
1.854429
 30
0.000000
  0
SEQEND
  8
0
  0
POLYLINE
  8
1
 66
1
 10
0.000000
 20
0.000000
 30
0.000000
 40
0.010000
 41
0.010000
 70
0
  0
VERTEX
  8
1
 10
1.121929
 20
2.012500
 30
0.000000
 42
1.000000
  0
VERTEX
  8
1
 10
1.111929
 20
2.012500
 30
0.000000
  0
SEQEND
  8
0
  0
POLYLINE
  8
1
 66
1
 10
0.000000
 20
0.000000
 30
0.000000
 40
0.020000
 41
0.020000
 70
0
  0
VERTEX
  8
1
 10
1.116929
 20
1.854429
 30
0.000000
  0
VERTEX
  8
1
 10
1.100000
 20
1.837500
 30
0.000000
  0
SEQEND
  8
0
  0
POLYLINE
  8
1
 66
1
 10
0.000000
 20
0.000000
 30
0.000000
 40
0.010000
 41
0.010000
 70
0
  0
VERTEX
  8
1
 10
1.096464
 20
1.841036
 30
0.000000
 42
1.000000
  0
VERTEX
  8
1
 10
1.103536
 20
1.833964
 30
0.000000
  0
SEQEND
  8
0
  0
POLYLINE
  8
1
 66
1
 10
0.000000
 20
0.000000
 30
0.000000
 40
0.010000
 41
0.010000
 70
0
  0
VERTEX
  8
1
 10
1.120465
 20
1.850894
 30
0.000000
 42
1.000000
  0
VERTEX
  8
1
 10
1.113394
 20
1.857965
 30
0.000000
  0
SEQEND
  8
0
  0
POLYLINE
  8
1
 66
1
 10
0.000000
 20
0.000000
 30
0.000000
 40
0.020000
 41
0.020000
 70
0
  0
VERTEX
  8
1
 10
1.100000
 20
1.837500
 30
0.000000
  0
VERTEX
  8
1
 10
1.100000
 20
1.337500
 30
0.000000
  0
SEQEND
  8
0
  0
POLYLINE
  8
1
 66
1
 10
0.000000
 20
0.000000
 30
0.000000
 40
0.010000
 41
0.010000
 70
0
  0
VERTEX
  8
1
 10
1.095000
 20
1.337500
 30
0.000000
 42
1.000000
  0
VERTEX
  8
1
 10
1.105000
 20
1.337500
 30
0.000000
  0
SEQEND
  8
0
  0
POLYLINE
  8
1
 66
1
 10
0.000000
 20
0.000000
 30
0.000000
 40
0.010000
 41
0.010000
 70
0
  0
VERTEX
  8
1
 10
1.105000
 20
1.837500
 30
0.000000
 42
1.000000
  0
VERTEX
  8
1
 10
1.095000
 20
1.837500
 30
0.000000
  0
SEQEND
  8
0
  0
POLYLINE
  8
1
 66
1
 10
0.000000
 20
0.000000
 30
0.000000
 40
0.020000
 41
0.020000
 70
0
  0
VERTEX
  8
1
 10
1.100000
 20
1.337500
 30
0.000000
  0
VERTEX
  8
1
 10
1.125000
 20
1.312500
 30
0.000000
  0
SEQEND
  8
0
  0
POLYLINE
  8
1
 66
1
 10
0.000000
 20
0.000000
 30
0.000000
 40
0.010000
 41
0.010000
 70
0
  0
VERTEX
  8
1
 10
1.121464
 20
1.308964
 30
0.000000
 42
1.000000
  0
VERTEX
  8
1
 10
1.128536
 20
1.316036
 30
0.000000
  0
SEQEND
  8
0
  0
POLYLINE
  8
1
 66
1
 10
0.000000
 20
0.000000
 30
0.000000
 40
0.010000
 41
0.010000
 70
0
  0
VERTEX
  8
1
 10
1.103536
 20
1.341036
 30
0.000000
 42
1.000000
  0
VERTEX
  8
1
 10
1.096464
 20
1.333964
 30
0.000000
  0
SEQEND
  8
0
  0
POLYLINE
  8
1
 66
1
 10
0.000000
 20
0.000000
 30
0.000000
 40
0.020000
 41
0.020000
 70
0
  0
VERTEX
  8
1
 10
1.225000
 20
1.312500
 30
0.000000
  0
VERTEX
  8
1
 10
1.125000
 20
1.312500
 30
0.000000
  0
SEQEND
  8
0
  0
POLYLINE
  8
1
 66
1
 10
0.000000
 20
0.000000
 30
0.000000
 40
0.010000
 41
0.010000
 70
0
  0
VERTEX
  8
1
 10
1.125000
 20
1.317500
 30
0.000000
 42
1.000000
  0
VERTEX
  8
1
 10
1.125000
 20
1.307500
 30
0.000000
  0
SEQEND
  8
0
  0
POLYLINE
  8
1
 66
1
 10
0.000000
 20
0.000000
 30
0.000000
 40
0.010000
 41
0.010000
 70
0
  0
VERTEX
  8
1
 10
1.225000
 20
1.307500
 30
0.000000
 42
1.000000
  0
VERTEX
  8
1
 10
1.225000
 20
1.317500
 30
0.000000
  0
SEQEND
  8
0
  0
POLYLINE
  8
1
 66
1
 10
0.000000
 20
0.000000
 30
0.000000
 40
0.020000
 41
0.020000
 70
0
  0
VERTEX
  8
1
 10
1.225000
 20
1.312500
 30
0.000000
  0
VERTEX
  8
1
 10
1.420571
 20
1.312500
 30
0.000000
  0
SEQEND
  8
0
  0
POLYLINE
  8
1
 66
1
 10
0.000000
 20
0.000000
 30
0.000000
 40
0.010000
 41
0.010000
 70
0
  0
VERTEX
  8
1
 10
1.420571
 20
1.307500
 30
0.000000
 42
1.000000
  0
VERTEX
  8
1
 10
1.420571
 20
1.317500
 30
0.000000
  0
SEQEND
  8
0
  0
POLYLINE
  8
1
 66
1
 10
0.000000
 20
0.000000
 30
0.000000
 40
0.010000
 41
0.010000
 70
0
  0
VERTEX
  8
1
 10
1.225000
 20
1.317500
 30
0.000000
 42
1.000000
  0
VERTEX
  8
1
 10
1.225000
 20
1.307500
 30
0.000000
  0
SEQEND
  8
0
  0
POLYLINE
  8
1
 66
1
 10
0.000000
 20
0.000000
 30
0.000000
 40
0.020000
 41
0.020000
 70
0
  0
VERTEX
  8
1
 10
1.225000
 20
1.587500
 30
0.000000
  0
VERTEX
  8
1
 10
1.275000
 20
1.637500
 30
0.000000
  0
SEQEND
  8
0
  0
POLYLINE
  8
1
 66
1
 10
0.000000
 20
0.000000
 30
0.000000
 40
0.010000
 41
0.010000
 70
0
  0
VERTEX
  8
1
 10
1.278536
 20
1.633964
 30
0.000000
 42
1.000000
  0
VERTEX
  8
1
 10
1.271464
 20
1.641036
 30
0.000000
  0
SEQEND
  8
0
  0
POLYLINE
  8
1
 66
1
 10
0.000000
 20
0.000000
 30
0.000000
 40
0.010000
 41
0.010000
 70
0
  0
VERTEX
  8
1
 10
1.221464
 20
1.591036
 30
0.000000
 42
1.000000
  0
VERTEX
  8
1
 10
1.228536
 20
1.583964
 30
0.000000
  0
SEQEND
  8
0
  0
POLYLINE
  8
1
 66
1
 10
0.000000
 20
0.000000
 30
0.000000
 40
0.020000
 41
0.020000
 70
0
  0
VERTEX
  8
1
 10
1.225000
 20
1.587500
 30
0.000000
  0
VERTEX
  8
1
 10
1.225000
 20
1.312500
 30
0.000000
  0
SEQEND
  8
0
  0
POLYLINE
  8
1
 66
1
 10
0.000000
 20
0.000000
 30
0.000000
 40
0.010000
 41
0.010000
 70
0
  0
VERTEX
  8
1
 10
1.220000
 20
1.312500
 30
0.000000
 42
1.000000
  0
VERTEX
  8
1
 10
1.230000
 20
1.312500
 30
0.000000
  0
SEQEND
  8
0
  0
POLYLINE
  8
1
 66
1
 10
0.000000
 20
0.000000
 30
0.000000
 40
0.010000
 41
0.010000
 70
0
  0
VERTEX
  8
1
 10
1.230000
 20
1.587500
 30
0.000000
 42
1.000000
  0
VERTEX
  8
1
 10
1.220000
 20
1.587500
 30
0.000000
  0
SEQEND
  8
0
  0
POLYLINE
  8
1
 66
1
 10
0.000000
 20
0.000000
 30
0.000000
 40
0.020000
 41
0.020000
 70
0
  0
VERTEX
  8
1
 10
1.420571
 20
1.312500
 30
0.000000
  0
VERTEX
  8
1
 10
1.425000
 20
1.316929
 30
0.000000
  0
SEQEND
  8
0
  0
POLYLINE
  8
1
 66
1
 10
0.000000
 20
0.000000
 30
0.000000
 40
0.010000
 41
0.010000
 70
0
  0
VERTEX
  8
1
 10
1.428536
 20
1.313394
 30
0.000000
 42
1.000000
  0
VERTEX
  8
1
 10
1.421464
 20
1.320465
 30
0.000000
  0
SEQEND
  8
0
  0
POLYLINE
  8
1
 66
1
 10
0.000000
 20
0.000000
 30
0.000000
 40
0.010000
 41
0.010000
 70
0
  0
VERTEX
  8
1
 10
1.417035
 20
1.316036
 30
0.000000
 42
1.000000
  0
VERTEX
  8
1
 10
1.424106
 20
1.308964
 30
0.000000
  0
SEQEND
  8
0
  0
POLYLINE
  8
1
 66
1
 10
0.000000
 20
0.000000
 30
0.000000
 40
0.020000
 41
0.020000
 70
0
  0
VERTEX
  8
1
 10
1.425000
 20
1.316929
 30
0.000000
  0
VERTEX
  8
1
 10
1.425000
 20
1.475000
 30
0.000000
  0
SEQEND
  8
0
  0
POLYLINE
  8
1
 66
1
 10
0.000000
 20
0.000000
 30
0.000000
 40
0.010000
 41
0.010000
 70
0
  0
VERTEX
  8
1
 10
1.430000
 20
1.475000
 30
0.000000
 42
1.000000
  0
VERTEX
  8
1
 10
1.420000
 20
1.475000
 30
0.000000
  0
SEQEND
  8
0
  0
POLYLINE
  8
1
 66
1
 10
0.000000
 20
0.000000
 30
0.000000
 40
0.010000
 41
0.010000
 70
0
  0
VERTEX
  8
1
 10
1.420000
 20
1.316929
 30
0.000000
 42
1.000000
  0
VERTEX
  8
1
 10
1.430000
 20
1.316929
 30
0.000000
  0
SEQEND
  8
0
  0
POLYLINE
  8
1
 66
1
 10
0.000000
 20
0.000000
 30
0.000000
 40
0.020000
 41
0.020000
 70
0
  0
VERTEX
  8
1
 10
2.470571
 20
1.587500
 30
0.000000
  0
VERTEX
  8
1
 10
2.212500
 20
1.587500
 30
0.000000
  0
SEQEND
  8
0
  0
POLYLINE
  8
1
 66
1
 10
0.000000
 20
0.000000
 30
0.000000
 40
0.010000
 41
0.010000
 70
0
  0
VERTEX
  8
1
 10
2.212500
 20
1.592500
 30
0.000000
 42
1.000000
  0
VERTEX
  8
1
 10
2.212500
 20
1.582500
 30
0.000000
  0
SEQEND
  8
0
  0
POLYLINE
  8
1
 66
1
 10
0.000000
 20
0.000000
 30
0.000000
 40
0.010000
 41
0.010000
 70
0
  0
VERTEX
  8
1
 10
2.470571
 20
1.582500
 30
0.000000
 42
1.000000
  0
VERTEX
  8
1
 10
2.470571
 20
1.592500
 30
0.000000
  0
SEQEND
  8
0
  0
POLYLINE
  8
1
 66
1
 10
0.000000
 20
0.000000
 30
0.000000
 40
0.020000
 41
0.020000
 70
0
  0
VERTEX
  8
1
 10
2.212500
 20
1.587500
 30
0.000000
  0
VERTEX
  8
1
 10
2.150000
 20
1.650000
 30
0.000000
  0
SEQEND
  8
0
  0
POLYLINE
  8
1
 66
1
 10
0.000000
 20
0.000000
 30
0.000000
 40
0.010000
 41
0.010000
 70
0
  0
VERTEX
  8
1
 10
2.153536
 20
1.653536
 30
0.000000
 42
1.000000
  0
VERTEX
  8
1
 10
2.146464
 20
1.646464
 30
0.000000
  0
SEQEND
  8
0
  0
POLYLINE
  8
1
 66
1
 10
0.000000
 20
0.000000
 30
0.000000
 40
0.010000
 41
0.010000
 70
0
  0
VERTEX
  8
1
 10
2.208964
 20
1.583964
 30
0.000000
 42
1.000000
  0
VERTEX
  8
1
 10
2.216036
 20
1.591036
 30
0.000000
  0
SEQEND
  8
0
  0
POLYLINE
  8
1
 66
1
 10
0.000000
 20
0.000000
 30
0.000000
 40
0.020000
 41
0.020000
 70
0
  0
VERTEX
  8
1
 10
2.150000
 20
1.650000
 30
0.000000
  0
VERTEX
  8
1
 10
2.150000
 20
1.887500
 30
0.000000
  0
SEQEND
  8
0
  0
POLYLINE
  8
1
 66
1
 10
0.000000
 20
0.000000
 30
0.000000
 40
0.010000
 41
0.010000
 70
0
  0
VERTEX
  8
1
 10
2.155000
 20
1.887500
 30
0.000000
 42
1.000000
  0
VERTEX
  8
1
 10
2.145000
 20
1.887500
 30
0.000000
  0
SEQEND
  8
0
  0
POLYLINE
  8
1
 66
1
 10
0.000000
 20
0.000000
 30
0.000000
 40
0.010000
 41
0.010000
 70
0
  0
VERTEX
  8
1
 10
2.145000
 20
1.650000
 30
0.000000
 42
1.000000
  0
VERTEX
  8
1
 10
2.155000
 20
1.650000
 30
0.000000
  0
SEQEND
  8
0
  0
POLYLINE
  8
1
 66
1
 10
0.000000
 20
0.000000
 30
0.000000
 40
0.020000
 41
0.020000
 70
0
  0
VERTEX
  8
1
 10
2.100000
 20
1.937500
 30
0.000000
  0
VERTEX
  8
1
 10
2.150000
 20
1.887500
 30
0.000000
  0
SEQEND
  8
0
  0
POLYLINE
  8
1
 66
1
 10
0.000000
 20
0.000000
 30
0.000000
 40
0.010000
 41
0.010000
 70
0
  0
VERTEX
  8
1
 10
2.146464
 20
1.883964
 30
0.000000
 42
1.000000
  0
VERTEX
  8
1
 10
2.153536
 20
1.891036
 30
0.000000
  0
SEQEND
  8
0
  0
POLYLINE
  8
1
 66
1
 10
0.000000
 20
0.000000
 30
0.000000
 40
0.010000
 41
0.010000
 70
0
  0
VERTEX
  8
1
 10
2.103536
 20
1.941036
 30
0.000000
 42
1.000000
  0
VERTEX
  8
1
 10
2.096464
 20
1.933964
 30
0.000000
  0
SEQEND
  8
0
  0
POLYLINE
  8
1
 66
1
 10
0.000000
 20
0.000000
 30
0.000000
 40
0.020000
 41
0.020000
 70
0
  0
VERTEX
  8
1
 10
1.275000
 20
1.637500
 30
0.000000
  0
VERTEX
  8
1
 10
1.462500
 20
1.637500
 30
0.000000
  0
SEQEND
  8
0
  0
POLYLINE
  8
1
 66
1
 10
0.000000
 20
0.000000
 30
0.000000
 40
0.010000
 41
0.010000
 70
0
  0
VERTEX
  8
1
 10
1.462500
 20
1.632500
 30
0.000000
 42
1.000000
  0
VERTEX
  8
1
 10
1.462500
 20
1.642500
 30
0.000000
  0
SEQEND
  8
0
  0
POLYLINE
  8
1
 66
1
 10
0.000000
 20
0.000000
 30
0.000000
 40
0.010000
 41
0.010000
 70
0
  0
VERTEX
  8
1
 10
1.275000
 20
1.642500
 30
0.000000
 42
1.000000
  0
VERTEX
  8
1
 10
1.275000
 20
1.632500
 30
0.000000
  0
SEQEND
  8
0
  0
POLYLINE
  8
1
 66
1
 10
0.000000
 20
0.000000
 30
0.000000
 40
0.020000
 41
0.020000
 70
0
  0
VERTEX
  8
1
 10
1.462500
 20
1.637500
 30
0.000000
  0
VERTEX
  8
1
 10
1.500000
 20
1.675000
 30
0.000000
  0
SEQEND
  8
0
  0
POLYLINE
  8
1
 66
1
 10
0.000000
 20
0.000000
 30
0.000000
 40
0.010000
 41
0.010000
 70
0
  0
VERTEX
  8
1
 10
1.503536
 20
1.671464
 30
0.000000
 42
1.000000
  0
VERTEX
  8
1
 10
1.496464
 20
1.678536
 30
0.000000
  0
SEQEND
  8
0
  0
POLYLINE
  8
1
 66
1
 10
0.000000
 20
0.000000
 30
0.000000
 40
0.010000
 41
0.010000
 70
0
  0
VERTEX
  8
1
 10
1.458964
 20
1.641036
 30
0.000000
 42
1.000000
  0
VERTEX
  8
1
 10
1.466036
 20
1.633964
 30
0.000000
  0
SEQEND
  8
0
  0
POLYLINE
  8
1
 66
1
 10
0.000000
 20
0.000000
 30
0.000000
 40
0.020000
 41
0.020000
 70
0
  0
VERTEX
  8
1
 10
1.500000
 20
1.675000
 30
0.000000
  0
VERTEX
  8
1
 10
1.500000
 20
1.695571
 30
0.000000
  0
SEQEND
  8
0
  0
POLYLINE
  8
1
 66
1
 10
0.000000
 20
0.000000
 30
0.000000
 40
0.010000
 41
0.010000
 70
0
  0
VERTEX
  8
1
 10
1.505000
 20
1.695571
 30
0.000000
 42
1.000000
  0
VERTEX
  8
1
 10
1.495000
 20
1.695571
 30
0.000000
  0
SEQEND
  8
0
  0
POLYLINE
  8
1
 66
1
 10
0.000000
 20
0.000000
 30
0.000000
 40
0.010000
 41
0.010000
 70
0
  0
VERTEX
  8
1
 10
1.495000
 20
1.675000
 30
0.000000
 42
1.000000
  0
VERTEX
  8
1
 10
1.505000
 20
1.675000
 30
0.000000
  0
SEQEND
  8
0
  0
POLYLINE
  8
1
 66
1
 10
0.000000
 20
0.000000
 30
0.000000
 40
0.020000
 41
0.020000
 70
0
  0
VERTEX
  8
1
 10
1.500000
 20
1.695571
 30
0.000000
  0
VERTEX
  8
1
 10
1.920571
 20
1.695571
 30
0.000000
  0
SEQEND
  8
0
  0
POLYLINE
  8
1
 66
1
 10
0.000000
 20
0.000000
 30
0.000000
 40
0.010000
 41
0.010000
 70
0
  0
VERTEX
  8
1
 10
1.920571
 20
1.690571
 30
0.000000
 42
1.000000
  0
VERTEX
  8
1
 10
1.920571
 20
1.700571
 30
0.000000
  0
SEQEND
  8
0
  0
POLYLINE
  8
1
 66
1
 10
0.000000
 20
0.000000
 30
0.000000
 40
0.010000
 41
0.010000
 70
0
  0
VERTEX
  8
1
 10
1.500000
 20
1.700571
 30
0.000000
 42
1.000000
  0
VERTEX
  8
1
 10
1.500000
 20
1.690571
 30
0.000000
  0
SEQEND
  8
0
  0
POLYLINE
  8
1
 66
1
 10
0.000000
 20
0.000000
 30
0.000000
 40
0.020000
 41
0.020000
 70
0
  0
VERTEX
  8
1
 10
1.962500
 20
1.737500
 30
0.000000
  0
VERTEX
  8
1
 10
1.962500
 20
1.900000
 30
0.000000
  0
SEQEND
  8
0
  0
POLYLINE
  8
1
 66
1
 10
0.000000
 20
0.000000
 30
0.000000
 40
0.010000
 41
0.010000
 70
0
  0
VERTEX
  8
1
 10
1.967500
 20
1.900000
 30
0.000000
 42
1.000000
  0
VERTEX
  8
1
 10
1.957500
 20
1.900000
 30
0.000000
  0
SEQEND
  8
0
  0
POLYLINE
  8
1
 66
1
 10
0.000000
 20
0.000000
 30
0.000000
 40
0.010000
 41
0.010000
 70
0
  0
VERTEX
  8
1
 10
1.957500
 20
1.737500
 30
0.000000
 42
1.000000
  0
VERTEX
  8
1
 10
1.967500
 20
1.737500
 30
0.000000
  0
SEQEND
  8
0
  0
POLYLINE
  8
1
 66
1
 10
0.000000
 20
0.000000
 30
0.000000
 40
0.020000
 41
0.020000
 70
0
  0
VERTEX
  8
1
 10
1.962500
 20
1.900000
 30
0.000000
  0
VERTEX
  8
1
 10
2.000000
 20
1.937500
 30
0.000000
  0
SEQEND
  8
0
  0
POLYLINE
  8
1
 66
1
 10
0.000000
 20
0.000000
 30
0.000000
 40
0.010000
 41
0.010000
 70
0
  0
VERTEX
  8
1
 10
2.003536
 20
1.933964
 30
0.000000
 42
1.000000
  0
VERTEX
  8
1
 10
1.996464
 20
1.941036
 30
0.000000
  0
SEQEND
  8
0
  0
POLYLINE
  8
1
 66
1
 10
0.000000
 20
0.000000
 30
0.000000
 40
0.010000
 41
0.010000
 70
0
  0
VERTEX
  8
1
 10
1.958964
 20
1.903536
 30
0.000000
 42
1.000000
  0
VERTEX
  8
1
 10
1.966036
 20
1.896464
 30
0.000000
  0
SEQEND
  8
0
  0
POLYLINE
  8
1
 66
1
 10
0.000000
 20
0.000000
 30
0.000000
 40
0.020000
 41
0.020000
 70
0
  0
VERTEX
  8
1
 10
1.920571
 20
1.695571
 30
0.000000
  0
VERTEX
  8
1
 10
1.962500
 20
1.737500
 30
0.000000
  0
SEQEND
  8
0
  0
POLYLINE
  8
1
 66
1
 10
0.000000
 20
0.000000
 30
0.000000
 40
0.010000
 41
0.010000
 70
0
  0
VERTEX
  8
1
 10
1.966036
 20
1.733964
 30
0.000000
 42
1.000000
  0
VERTEX
  8
1
 10
1.958964
 20
1.741036
 30
0.000000
  0
SEQEND
  8
0
  0
POLYLINE
  8
1
 66
1
 10
0.000000
 20
0.000000
 30
0.000000
 40
0.010000
 41
0.010000
 70
0
  0
VERTEX
  8
1
 10
1.917035
 20
1.699106
 30
0.000000
 42
1.000000
  0
VERTEX
  8
1
 10
1.924106
 20
1.692035
 30
0.000000
  0
SEQEND
  8
0
  0
POLYLINE
  8
1
 66
1
 10
0.000000
 20
0.000000
 30
0.000000
 40
0.020000
 41
0.020000
 70
0
  0
VERTEX
  8
1
 10
2.000000
 20
1.937500
 30
0.000000
  0
VERTEX
  8
1
 10
2.100000
 20
1.937500
 30
0.000000
  0
SEQEND
  8
0
  0
POLYLINE
  8
1
 66
1
 10
0.000000
 20
0.000000
 30
0.000000
 40
0.010000
 41
0.010000
 70
0
  0
VERTEX
  8
1
 10
2.100000
 20
1.932500
 30
0.000000
 42
1.000000
  0
VERTEX
  8
1
 10
2.100000
 20
1.942500
 30
0.000000
  0
SEQEND
  8
0
  0
POLYLINE
  8
1
 66
1
 10
0.000000
 20
0.000000
 30
0.000000
 40
0.010000
 41
0.010000
 70
0
  0
VERTEX
  8
1
 10
2.000000
 20
1.942500
 30
0.000000
 42
1.000000
  0
VERTEX
  8
1
 10
2.000000
 20
1.932500
 30
0.000000
  0
SEQEND
  8
0
  0
POLYLINE
  8
1
 66
1
 10
0.000000
 20
0.000000
 30
0.000000
 40
0.020000
 41
0.020000
 70
0
  0
VERTEX
  8
1
 10
0.983071
 20
2.012500
 30
0.000000
  0
VERTEX
  8
1
 10
0.837298
 20
2.012500
 30
0.000000
  0
SEQEND
  8
0
  0
POLYLINE
  8
1
 66
1
 10
0.000000
 20
0.000000
 30
0.000000
 40
0.010000
 41
0.010000
 70
0
  0
VERTEX
  8
1
 10
0.837298
 20
2.017500
 30
0.000000
 42
1.000000
  0
VERTEX
  8
1
 10
0.837298
 20
2.007500
 30
0.000000
  0
SEQEND
  8
0
  0
POLYLINE
  8
1
 66
1
 10
0.000000
 20
0.000000
 30
0.000000
 40
0.010000
 41
0.010000
 70
0
  0
VERTEX
  8
1
 10
0.983071
 20
2.007500
 30
0.000000
 42
1.000000
  0
VERTEX
  8
1
 10
0.983071
 20
2.017500
 30
0.000000
  0
SEQEND
  8
0
  0
POLYLINE
  8
1
 66
1
 10
0.000000
 20
0.000000
 30
0.000000
 40
0.020000
 41
0.020000
 70
0
  0
VERTEX
  8
1
 10
0.837298
 20
2.012500
 30
0.000000
  0
VERTEX
  8
1
 10
0.833858
 20
2.015940
 30
0.000000
  0
SEQEND
  8
0
  0
POLYLINE
  8
1
 66
1
 10
0.000000
 20
0.000000
 30
0.000000
 40
0.010000
 41
0.010000
 70
0
  0
VERTEX
  8
1
 10
0.837394
 20
2.019476
 30
0.000000
 42
1.000000
  0
VERTEX
  8
1
 10
0.830323
 20
2.012405
 30
0.000000
  0
SEQEND
  8
0
  0
POLYLINE
  8
1
 66
1
 10
0.000000
 20
0.000000
 30
0.000000
 40
0.010000
 41
0.010000
 70
0
  0
VERTEX
  8
1
 10
0.833763
 20
2.008964
 30
0.000000
 42
1.000000
  0
VERTEX
  8
1
 10
0.840834
 20
2.016036
 30
0.000000
  0
SEQEND
  8
0
  0
POLYLINE
  8
1
 66
1
 10
0.000000
 20
0.000000
 30
0.000000
 40
0.020000
 41
0.020000
 70
0
  0
VERTEX
  8
1
 10
0.325000
 20
1.254429
 30
0.000000
  0
VERTEX
  8
1
 10
0.255660
 20
1.323769
 30
0.000000
  0
SEQEND
  8
0
  0
POLYLINE
  8
1
 66
1
 10
0.000000
 20
0.000000
 30
0.000000
 40
0.010000
 41
0.010000
 70
0
  0
VERTEX
  8
1
 10
0.259195
 20
1.327305
 30
0.000000
 42
1.000000
  0
VERTEX
  8
1
 10
0.252124
 20
1.320234
 30
0.000000
  0
SEQEND
  8
0
  0
POLYLINE
  8
1
 66
1
 10
0.000000
 20
0.000000
 30
0.000000
 40
0.010000
 41
0.010000
 70
0
  0
VERTEX
  8
1
 10
0.321464
 20
1.250894
 30
0.000000
 42
1.000000
  0
VERTEX
  8
1
 10
0.328536
 20
1.257965
 30
0.000000
  0
SEQEND
  8
0
  0
POLYLINE
  8
1
 66
1
 10
0.000000
 20
0.000000
 30
0.000000
 40
0.020000
 41
0.020000
 70
0
  0
VERTEX
  8
1
 10
0.255660
 20
1.323769
 30
0.000000
  0
VERTEX
  8
1
 10
0.255660
 20
1.428342
 30
0.000000
  0
SEQEND
  8
0
  0
POLYLINE
  8
1
 66
1
 10
0.000000
 20
0.000000
 30
0.000000
 40
0.010000
 41
0.010000
 70
0
  0
VERTEX
  8
1
 10
0.260660
 20
1.428342
 30
0.000000
 42
1.000000
  0
VERTEX
  8
1
 10
0.250660
 20
1.428342
 30
0.000000
  0
SEQEND
  8
0
  0
POLYLINE
  8
1
 66
1
 10
0.000000
 20
0.000000
 30
0.000000
 40
0.010000
 41
0.010000
 70
0
  0
VERTEX
  8
1
 10
0.250660
 20
1.323769
 30
0.000000
 42
1.000000
  0
VERTEX
  8
1
 10
0.260660
 20
1.323769
 30
0.000000
  0
SEQEND
  8
0
  0
POLYLINE
  8
1
 66
1
 10
0.000000
 20
0.000000
 30
0.000000
 40
0.020000
 41
0.020000
 70
0
  0
VERTEX
  8
1
 10
1.325000
 20
1.704429
 30
0.000000
  0
VERTEX
  8
1
 10
1.162111
 20
1.704429
 30
0.000000
  0
SEQEND
  8
0
  0
POLYLINE
  8
1
 66
1
 10
0.000000
 20
0.000000
 30
0.000000
 40
0.010000
 41
0.010000
 70
0
  0
VERTEX
  8
1
 10
1.162111
 20
1.709429
 30
0.000000
 42
1.000000
  0
VERTEX
  8
1
 10
1.162111
 20
1.699429
 30
0.000000
  0
SEQEND
  8
0
  0
POLYLINE
  8
1
 66
1
 10
0.000000
 20
0.000000
 30
0.000000
 40
0.010000
 41
0.010000
 70
0
  0
VERTEX
  8
1
 10
1.325000
 20
1.699429
 30
0.000000
 42
1.000000
  0
VERTEX
  8
1
 10
1.325000
 20
1.709429
 30
0.000000
  0
SEQEND
  8
0
  0
POLYLINE
  8
1
 66
1
 10
0.000000
 20
0.000000
 30
0.000000
 40
0.020000
 41
0.020000
 70
0
  0
VERTEX
  8
1
 10
1.162111
 20
1.704429
 30
0.000000
  0
VERTEX
  8
1
 10
1.153740
 20
1.696058
 30
0.000000
  0
SEQEND
  8
0
  0
POLYLINE
  8
1
 66
1
 10
0.000000
 20
0.000000
 30
0.000000
 40
0.010000
 41
0.010000
 70
0
  0
VERTEX
  8
1
 10
1.150205
 20
1.699594
 30
0.000000
 42
1.000000
  0
VERTEX
  8
1
 10
1.157276
 20
1.692523
 30
0.000000
  0
SEQEND
  8
0
  0
POLYLINE
  8
1
 66
1
 10
0.000000
 20
0.000000
 30
0.000000
 40
0.010000
 41
0.010000
 70
0
  0
VERTEX
  8
1
 10
1.165647
 20
1.700894
 30
0.000000
 42
1.000000
  0
VERTEX
  8
1
 10
1.158575
 20
1.707965
 30
0.000000
  0
SEQEND
  8
0
  0
POLYLINE
  8
1
 66
1
 10
0.000000
 20
0.000000
 30
0.000000
 40
0.020000
 41
0.020000
 70
0
  0
VERTEX
  8
1
 10
0.983071
 20
1.125000
 30
0.000000
  0
VERTEX
  8
1
 10
0.950000
 20
1.125000
 30
0.000000
  0
SEQEND
  8
0
  0
POLYLINE
  8
1
 66
1
 10
0.000000
 20
0.000000
 30
0.000000
 40
0.010000
 41
0.010000
 70
0
  0
VERTEX
  8
1
 10
0.950000
 20
1.130000
 30
0.000000
 42
1.000000
  0
VERTEX
  8
1
 10
0.950000
 20
1.120000
 30
0.000000
  0
SEQEND
  8
0
  0
POLYLINE
  8
1
 66
1
 10
0.000000
 20
0.000000
 30
0.000000
 40
0.010000
 41
0.010000
 70
0
  0
VERTEX
  8
1
 10
0.983071
 20
1.120000
 30
0.000000
 42
1.000000
  0
VERTEX
  8
1
 10
0.983071
 20
1.130000
 30
0.000000
  0
SEQEND
  8
0
  0
POLYLINE
  8
1
 66
1
 10
0.000000
 20
0.000000
 30
0.000000
 40
0.020000
 41
0.020000
 70
0
  0
VERTEX
  8
1
 10
0.950000
 20
1.125000
 30
0.000000
  0
VERTEX
  8
1
 10
0.925000
 20
1.100000
 30
0.000000
  0
SEQEND
  8
0
  0
POLYLINE
  8
1
 66
1
 10
0.000000
 20
0.000000
 30
0.000000
 40
0.010000
 41
0.010000
 70
0
  0
VERTEX
  8
1
 10
0.921464
 20
1.103536
 30
0.000000
 42
1.000000
  0
VERTEX
  8
1
 10
0.928536
 20
1.096464
 30
0.000000
  0
SEQEND
  8
0
  0
POLYLINE
  8
1
 66
1
 10
0.000000
 20
0.000000
 30
0.000000
 40
0.010000
 41
0.010000
 70
0
  0
VERTEX
  8
1
 10
0.953536
 20
1.121464
 30
0.000000
 42
1.000000
  0
VERTEX
  8
1
 10
0.946464
 20
1.128536
 30
0.000000
  0
SEQEND
  8
0
  0
POLYLINE
  8
1
 66
1
 10
0.000000
 20
0.000000
 30
0.000000
 40
0.020000
 41
0.020000
 70
0
  0
VERTEX
  8
1
 10
0.925000
 20
1.100000
 30
0.000000
  0
VERTEX
  8
1
 10
0.842618
 20
1.100000
 30
0.000000
  0
SEQEND
  8
0
  0
POLYLINE
  8
1
 66
1
 10
0.000000
 20
0.000000
 30
0.000000
 40
0.010000
 41
0.010000
 70
0
  0
VERTEX
  8
1
 10
0.842618
 20
1.105000
 30
0.000000
 42
1.000000
  0
VERTEX
  8
1
 10
0.842618
 20
1.095000
 30
0.000000
  0
SEQEND
  8
0
  0
POLYLINE
  8
1
 66
1
 10
0.000000
 20
0.000000
 30
0.000000
 40
0.010000
 41
0.010000
 70
0
  0
VERTEX
  8
1
 10
0.925000
 20
1.095000
 30
0.000000
 42
1.000000
  0
VERTEX
  8
1
 10
0.925000
 20
1.105000
 30
0.000000
  0
SEQEND
  8
0
  0
POLYLINE
  8
1
 66
1
 10
0.000000
 20
0.000000
 30
0.000000
 40
0.020000
 41
0.020000
 70
0
  0
VERTEX
  8
1
 10
0.842618
 20
1.100000
 30
0.000000
  0
VERTEX
  8
1
 10
0.833858
 20
1.108760
 30
0.000000
  0
SEQEND
  8
0
  0
POLYLINE
  8
1
 66
1
 10
0.000000
 20
0.000000
 30
0.000000
 40
0.010000
 41
0.010000
 70
0
  0
VERTEX
  8
1
 10
0.837394
 20
1.112295
 30
0.000000
 42
1.000000
  0
VERTEX
  8
1
 10
0.830323
 20
1.105224
 30
0.000000
  0
SEQEND
  8
0
  0
POLYLINE
  8
1
 66
1
 10
0.000000
 20
0.000000
 30
0.000000
 40
0.010000
 41
0.010000
 70
0
  0
VERTEX
  8
1
 10
0.839083
 20
1.096464
 30
0.000000
 42
1.000000
  0
VERTEX
  8
1
 10
0.846154
 20
1.103536
 30
0.000000
  0
SEQEND
  8
0
  0
POLYLINE
  8
1
 66
1
 10
0.000000
 20
0.000000
 30
0.000000
 40
0.020000
 41
0.020000
 70
0
  0
VERTEX
  8
1
 10
0.325000
 20
1.120571
 30
0.000000
  0
VERTEX
  8
1
 10
0.325000
 20
1.062500
 30
0.000000
  0
SEQEND
  8
0
  0
POLYLINE
  8
1
 66
1
 10
0.000000
 20
0.000000
 30
0.000000
 40
0.010000
 41
0.010000
 70
0
  0
VERTEX
  8
1
 10
0.320000
 20
1.062500
 30
0.000000
 42
1.000000
  0
VERTEX
  8
1
 10
0.330000
 20
1.062500
 30
0.000000
  0
SEQEND
  8
0
  0
POLYLINE
  8
1
 66
1
 10
0.000000
 20
0.000000
 30
0.000000
 40
0.010000
 41
0.010000
 70
0
  0
VERTEX
  8
1
 10
0.330000
 20
1.120571
 30
0.000000
 42
1.000000
  0
VERTEX
  8
1
 10
0.320000
 20
1.120571
 30
0.000000
  0
SEQEND
  8
0
  0
POLYLINE
  8
1
 66
1
 10
0.000000
 20
0.000000
 30
0.000000
 40
0.020000
 41
0.020000
 70
0
  0
VERTEX
  8
1
 10
0.325000
 20
1.062500
 30
0.000000
  0
VERTEX
  8
1
 10
0.350000
 20
1.037500
 30
0.000000
  0
SEQEND
  8
0
  0
POLYLINE
  8
1
 66
1
 10
0.000000
 20
0.000000
 30
0.000000
 40
0.010000
 41
0.010000
 70
0
  0
VERTEX
  8
1
 10
0.346464
 20
1.033964
 30
0.000000
 42
1.000000
  0
VERTEX
  8
1
 10
0.353536
 20
1.041036
 30
0.000000
  0
SEQEND
  8
0
  0
POLYLINE
  8
1
 66
1
 10
0.000000
 20
0.000000
 30
0.000000
 40
0.010000
 41
0.010000
 70
0
  0
VERTEX
  8
1
 10
0.328536
 20
1.066036
 30
0.000000
 42
1.000000
  0
VERTEX
  8
1
 10
0.321464
 20
1.058964
 30
0.000000
  0
SEQEND
  8
0
  0
POLYLINE
  8
1
 66
1
 10
0.000000
 20
0.000000
 30
0.000000
 40
0.020000
 41
0.020000
 70
0
  0
VERTEX
  8
1
 10
0.700000
 20
1.037500
 30
0.000000
  0
VERTEX
  8
1
 10
0.350000
 20
1.037500
 30
0.000000
  0
SEQEND
  8
0
  0
POLYLINE
  8
1
 66
1
 10
0.000000
 20
0.000000
 30
0.000000
 40
0.010000
 41
0.010000
 70
0
  0
VERTEX
  8
1
 10
0.350000
 20
1.042500
 30
0.000000
 42
1.000000
  0
VERTEX
  8
1
 10
0.350000
 20
1.032500
 30
0.000000
  0
SEQEND
  8
0
  0
POLYLINE
  8
1
 66
1
 10
0.000000
 20
0.000000
 30
0.000000
 40
0.010000
 41
0.010000
 70
0
  0
VERTEX
  8
1
 10
0.700000
 20
1.032500
 30
0.000000
 42
1.000000
  0
VERTEX
  8
1
 10
0.700000
 20
1.042500
 30
0.000000
  0
SEQEND
  8
0
  0
POLYLINE
  8
1
 66
1
 10
0.000000
 20
0.000000
 30
0.000000
 40
0.020000
 41
0.020000
 70
0
  0
VERTEX
  8
1
 10
0.700000
 20
1.037500
 30
0.000000
  0
VERTEX
  8
1
 10
1.662500
 20
1.037500
 30
0.000000
  0
SEQEND
  8
0
  0
POLYLINE
  8
1
 66
1
 10
0.000000
 20
0.000000
 30
0.000000
 40
0.010000
 41
0.010000
 70
0
  0
VERTEX
  8
1
 10
1.662500
 20
1.032500
 30
0.000000
 42
1.000000
  0
VERTEX
  8
1
 10
1.662500
 20
1.042500
 30
0.000000
  0
SEQEND
  8
0
  0
POLYLINE
  8
1
 66
1
 10
0.000000
 20
0.000000
 30
0.000000
 40
0.010000
 41
0.010000
 70
0
  0
VERTEX
  8
1
 10
0.700000
 20
1.042500
 30
0.000000
 42
1.000000
  0
VERTEX
  8
1
 10
0.700000
 20
1.032500
 30
0.000000
  0
SEQEND
  8
0
  0
POLYLINE
  8
1
 66
1
 10
0.000000
 20
0.000000
 30
0.000000
 40
0.020000
 41
0.020000
 70
0
  0
VERTEX
  8
1
 10
1.662500
 20
1.037500
 30
0.000000
  0
VERTEX
  8
1
 10
1.687500
 20
1.012500
 30
0.000000
  0
SEQEND
  8
0
  0
POLYLINE
  8
1
 66
1
 10
0.000000
 20
0.000000
 30
0.000000
 40
0.010000
 41
0.010000
 70
0
  0
VERTEX
  8
1
 10
1.683964
 20
1.008964
 30
0.000000
 42
1.000000
  0
VERTEX
  8
1
 10
1.691036
 20
1.016036
 30
0.000000
  0
SEQEND
  8
0
  0
POLYLINE
  8
1
 66
1
 10
0.000000
 20
0.000000
 30
0.000000
 40
0.010000
 41
0.010000
 70
0
  0
VERTEX
  8
1
 10
1.666036
 20
1.041036
 30
0.000000
 42
1.000000
  0
VERTEX
  8
1
 10
1.658964
 20
1.033964
 30
0.000000
  0
SEQEND
  8
0
  0
POLYLINE
  8
1
 66
1
 10
0.000000
 20
0.000000
 30
0.000000
 40
0.020000
 41
0.020000
 70
0
  0
VERTEX
  8
1
 10
1.687500
 20
1.012500
 30
0.000000
  0
VERTEX
  8
1
 10
1.687500
 20
0.937500
 30
0.000000
  0
SEQEND
  8
0
  0
POLYLINE
  8
1
 66
1
 10
0.000000
 20
0.000000
 30
0.000000
 40
0.010000
 41
0.010000
 70
0
  0
VERTEX
  8
1
 10
1.682500
 20
0.937500
 30
0.000000
 42
1.000000
  0
VERTEX
  8
1
 10
1.692500
 20
0.937500
 30
0.000000
  0
SEQEND
  8
0
  0
POLYLINE
  8
1
 66
1
 10
0.000000
 20
0.000000
 30
0.000000
 40
0.010000
 41
0.010000
 70
0
  0
VERTEX
  8
1
 10
1.692500
 20
1.012500
 30
0.000000
 42
1.000000
  0
VERTEX
  8
1
 10
1.682500
 20
1.012500
 30
0.000000
  0
SEQEND
  8
0
  0
POLYLINE
  8
1
 66
1
 10
0.000000
 20
0.000000
 30
0.000000
 40
0.020000
 41
0.020000
 70
0
  0
VERTEX
  8
1
 10
1.662500
 20
0.912500
 30
0.000000
  0
VERTEX
  8
1
 10
0.675000
 20
0.912500
 30
0.000000
  0
SEQEND
  8
0
  0
POLYLINE
  8
1
 66
1
 10
0.000000
 20
0.000000
 30
0.000000
 40
0.010000
 41
0.010000
 70
0
  0
VERTEX
  8
1
 10
0.675000
 20
0.917500
 30
0.000000
 42
1.000000
  0
VERTEX
  8
1
 10
0.675000
 20
0.907500
 30
0.000000
  0
SEQEND
  8
0
  0
POLYLINE
  8
1
 66
1
 10
0.000000
 20
0.000000
 30
0.000000
 40
0.010000
 41
0.010000
 70
0
  0
VERTEX
  8
1
 10
1.662500
 20
0.907500
 30
0.000000
 42
1.000000
  0
VERTEX
  8
1
 10
1.662500
 20
0.917500
 30
0.000000
  0
SEQEND
  8
0
  0
POLYLINE
  8
1
 66
1
 10
0.000000
 20
0.000000
 30
0.000000
 40
0.020000
 41
0.020000
 70
0
  0
VERTEX
  8
1
 10
0.675000
 20
0.912500
 30
0.000000
  0
VERTEX
  8
1
 10
0.658071
 20
0.895571
 30
0.000000
  0
SEQEND
  8
0
  0
POLYLINE
  8
1
 66
1
 10
0.000000
 20
0.000000
 30
0.000000
 40
0.010000
 41
0.010000
 70
0
  0
VERTEX
  8
1
 10
0.654535
 20
0.899106
 30
0.000000
 42
1.000000
  0
VERTEX
  8
1
 10
0.661606
 20
0.892035
 30
0.000000
  0
SEQEND
  8
0
  0
POLYLINE
  8
1
 66
1
 10
0.000000
 20
0.000000
 30
0.000000
 40
0.010000
 41
0.010000
 70
0
  0
VERTEX
  8
1
 10
0.678536
 20
0.908964
 30
0.000000
 42
1.000000
  0
VERTEX
  8
1
 10
0.671464
 20
0.916036
 30
0.000000
  0
SEQEND
  8
0
  0
POLYLINE
  8
1
 66
1
 10
0.000000
 20
0.000000
 30
0.000000
 40
0.020000
 41
0.020000
 70
0
  0
VERTEX
  8
1
 10
0.658071
 20
0.895571
 30
0.000000
  0
VERTEX
  8
1
 10
0.658071
 20
0.762500
 30
0.000000
  0
SEQEND
  8
0
  0
POLYLINE
  8
1
 66
1
 10
0.000000
 20
0.000000
 30
0.000000
 40
0.010000
 41
0.010000
 70
0
  0
VERTEX
  8
1
 10
0.653071
 20
0.762500
 30
0.000000
 42
1.000000
  0
VERTEX
  8
1
 10
0.663071
 20
0.762500
 30
0.000000
  0
SEQEND
  8
0
  0
POLYLINE
  8
1
 66
1
 10
0.000000
 20
0.000000
 30
0.000000
 40
0.010000
 41
0.010000
 70
0
  0
VERTEX
  8
1
 10
0.663071
 20
0.895571
 30
0.000000
 42
1.000000
  0
VERTEX
  8
1
 10
0.653071
 20
0.895571
 30
0.000000
  0
SEQEND
  8
0
  0
POLYLINE
  8
1
 66
1
 10
0.000000
 20
0.000000
 30
0.000000
 40
0.020000
 41
0.020000
 70
0
  0
VERTEX
  8
1
 10
1.687500
 20
0.937500
 30
0.000000
  0
VERTEX
  8
1
 10
1.662500
 20
0.912500
 30
0.000000
  0
SEQEND
  8
0
  0
POLYLINE
  8
1
 66
1
 10
0.000000
 20
0.000000
 30
0.000000
 40
0.010000
 41
0.010000
 70
0
  0
VERTEX
  8
1
 10
1.658964
 20
0.916036
 30
0.000000
 42
1.000000
  0
VERTEX
  8
1
 10
1.666036
 20
0.908964
 30
0.000000
  0
SEQEND
  8
0
  0
POLYLINE
  8
1
 66
1
 10
0.000000
 20
0.000000
 30
0.000000
 40
0.010000
 41
0.010000
 70
0
  0
VERTEX
  8
1
 10
1.691036
 20
0.933964
 30
0.000000
 42
1.000000
  0
VERTEX
  8
1
 10
1.683964
 20
0.941036
 30
0.000000
  0
SEQEND
  8
0
  0
POLYLINE
  8
1
 66
1
 10
0.000000
 20
0.000000
 30
0.000000
 40
0.020000
 41
0.020000
 70
0
  0
VERTEX
  8
1
 10
3.420571
 20
1.725000
 30
0.000000
  0
VERTEX
  8
1
 10
3.420571
 20
2.091929
 30
0.000000
  0
SEQEND
  8
0
  0
POLYLINE
  8
1
 66
1
 10
0.000000
 20
0.000000
 30
0.000000
 40
0.010000
 41
0.010000
 70
0
  0
VERTEX
  8
1
 10
3.425571
 20
2.091929
 30
0.000000
 42
1.000000
  0
VERTEX
  8
1
 10
3.415571
 20
2.091929
 30
0.000000
  0
SEQEND
  8
0
  0
POLYLINE
  8
1
 66
1
 10
0.000000
 20
0.000000
 30
0.000000
 40
0.010000
 41
0.010000
 70
0
  0
VERTEX
  8
1
 10
3.415571
 20
1.725000
 30
0.000000
 42
1.000000
  0
VERTEX
  8
1
 10
3.425571
 20
1.725000
 30
0.000000
  0
SEQEND
  8
0
  0
POLYLINE
  8
1
 66
1
 10
0.000000
 20
0.000000
 30
0.000000
 40
0.020000
 41
0.020000
 70
0
  0
VERTEX
  8
1
 10
3.420571
 20
2.091929
 30
0.000000
  0
VERTEX
  8
1
 10
3.387500
 20
2.125000
 30
0.000000
  0
SEQEND
  8
0
  0
POLYLINE
  8
1
 66
1
 10
0.000000
 20
0.000000
 30
0.000000
 40
0.010000
 41
0.010000
 70
0
  0
VERTEX
  8
1
 10
3.391036
 20
2.128536
 30
0.000000
 42
1.000000
  0
VERTEX
  8
1
 10
3.383964
 20
2.121464
 30
0.000000
  0
SEQEND
  8
0
  0
POLYLINE
  8
1
 66
1
 10
0.000000
 20
0.000000
 30
0.000000
 40
0.010000
 41
0.010000
 70
0
  0
VERTEX
  8
1
 10
3.417035
 20
2.088394
 30
0.000000
 42
1.000000
  0
VERTEX
  8
1
 10
3.424106
 20
2.095465
 30
0.000000
  0
SEQEND
  8
0
  0
POLYLINE
  8
1
 66
1
 10
0.000000
 20
0.000000
 30
0.000000
 40
0.020000
 41
0.020000
 70
0
  0
VERTEX
  8
1
 10
3.387500
 20
2.125000
 30
0.000000
  0
VERTEX
  8
1
 10
2.562500
 20
2.125000
 30
0.000000
  0
SEQEND
  8
0
  0
POLYLINE
  8
1
 66
1
 10
0.000000
 20
0.000000
 30
0.000000
 40
0.010000
 41
0.010000
 70
0
  0
VERTEX
  8
1
 10
2.562500
 20
2.130000
 30
0.000000
 42
1.000000
  0
VERTEX
  8
1
 10
2.562500
 20
2.120000
 30
0.000000
  0
SEQEND
  8
0
  0
POLYLINE
  8
1
 66
1
 10
0.000000
 20
0.000000
 30
0.000000
 40
0.010000
 41
0.010000
 70
0
  0
VERTEX
  8
1
 10
3.387500
 20
2.120000
 30
0.000000
 42
1.000000
  0
VERTEX
  8
1
 10
3.387500
 20
2.130000
 30
0.000000
  0
SEQEND
  8
0
  0
POLYLINE
  8
1
 66
1
 10
0.000000
 20
0.000000
 30
0.000000
 40
0.020000
 41
0.020000
 70
0
  0
VERTEX
  8
1
 10
2.562500
 20
2.125000
 30
0.000000
  0
VERTEX
  8
1
 10
2.512500
 20
2.075000
 30
0.000000
  0
SEQEND
  8
0
  0
POLYLINE
  8
1
 66
1
 10
0.000000
 20
0.000000
 30
0.000000
 40
0.010000
 41
0.010000
 70
0
  0
VERTEX
  8
1
 10
2.508964
 20
2.078536
 30
0.000000
 42
1.000000
  0
VERTEX
  8
1
 10
2.516036
 20
2.071464
 30
0.000000
  0
SEQEND
  8
0
  0
POLYLINE
  8
1
 66
1
 10
0.000000
 20
0.000000
 30
0.000000
 40
0.010000
 41
0.010000
 70
0
  0
VERTEX
  8
1
 10
2.566036
 20
2.121464
 30
0.000000
 42
1.000000
  0
VERTEX
  8
1
 10
2.558964
 20
2.128536
 30
0.000000
  0
SEQEND
  8
0
  0
POLYLINE
  8
1
 66
1
 10
0.000000
 20
0.000000
 30
0.000000
 40
0.020000
 41
0.020000
 70
0
  0
VERTEX
  8
1
 10
2.512500
 20
2.075000
 30
0.000000
  0
VERTEX
  8
1
 10
2.512500
 20
1.862500
 30
0.000000
  0
SEQEND
  8
0
  0
POLYLINE
  8
1
 66
1
 10
0.000000
 20
0.000000
 30
0.000000
 40
0.010000
 41
0.010000
 70
0
  0
VERTEX
  8
1
 10
2.507500
 20
1.862500
 30
0.000000
 42
1.000000
  0
VERTEX
  8
1
 10
2.517500
 20
1.862500
 30
0.000000
  0
SEQEND
  8
0
  0
POLYLINE
  8
1
 66
1
 10
0.000000
 20
0.000000
 30
0.000000
 40
0.010000
 41
0.010000
 70
0
  0
VERTEX
  8
1
 10
2.517500
 20
2.075000
 30
0.000000
 42
1.000000
  0
VERTEX
  8
1
 10
2.507500
 20
2.075000
 30
0.000000
  0
SEQEND
  8
0
  0
POLYLINE
  8
1
 66
1
 10
0.000000
 20
0.000000
 30
0.000000
 40
0.020000
 41
0.020000
 70
0
  0
VERTEX
  8
1
 10
2.512500
 20
1.862500
 30
0.000000
  0
VERTEX
  8
1
 10
2.487500
 20
1.837500
 30
0.000000
  0
SEQEND
  8
0
  0
POLYLINE
  8
1
 66
1
 10
0.000000
 20
0.000000
 30
0.000000
 40
0.010000
 41
0.010000
 70
0
  0
VERTEX
  8
1
 10
2.483964
 20
1.841036
 30
0.000000
 42
1.000000
  0
VERTEX
  8
1
 10
2.491036
 20
1.833964
 30
0.000000
  0
SEQEND
  8
0
  0
POLYLINE
  8
1
 66
1
 10
0.000000
 20
0.000000
 30
0.000000
 40
0.010000
 41
0.010000
 70
0
  0
VERTEX
  8
1
 10
2.516036
 20
1.858964
 30
0.000000
 42
1.000000
  0
VERTEX
  8
1
 10
2.508964
 20
1.866036
 30
0.000000
  0
SEQEND
  8
0
  0
POLYLINE
  8
1
 66
1
 10
0.000000
 20
0.000000
 30
0.000000
 40
0.020000
 41
0.020000
 70
0
  0
VERTEX
  8
1
 10
2.425000
 20
1.837500
 30
0.000000
  0
VERTEX
  8
1
 10
2.487500
 20
1.837500
 30
0.000000
  0
SEQEND
  8
0
  0
POLYLINE
  8
1
 66
1
 10
0.000000
 20
0.000000
 30
0.000000
 40
0.010000
 41
0.010000
 70
0
  0
VERTEX
  8
1
 10
2.487500
 20
1.832500
 30
0.000000
 42
1.000000
  0
VERTEX
  8
1
 10
2.487500
 20
1.842500
 30
0.000000
  0
SEQEND
  8
0
  0
POLYLINE
  8
1
 66
1
 10
0.000000
 20
0.000000
 30
0.000000
 40
0.010000
 41
0.010000
 70
0
  0
VERTEX
  8
1
 10
2.425000
 20
1.842500
 30
0.000000
 42
1.000000
  0
VERTEX
  8
1
 10
2.425000
 20
1.832500
 30
0.000000
  0
SEQEND
  8
0
  0
POLYLINE
  8
1
 66
1
 10
0.000000
 20
0.000000
 30
0.000000
 40
0.020000
 41
0.020000
 70
0
  0
VERTEX
  8
1
 10
2.425000
 20
1.837500
 30
0.000000
  0
VERTEX
  8
1
 10
2.420571
 20
1.837500
 30
0.000000
  0
SEQEND
  8
0
  0
POLYLINE
  8
1
 66
1
 10
0.000000
 20
0.000000
 30
0.000000
 40
0.010000
 41
0.010000
 70
0
  0
VERTEX
  8
1
 10
2.420571
 20
1.842500
 30
0.000000
 42
1.000000
  0
VERTEX
  8
1
 10
2.420571
 20
1.832500
 30
0.000000
  0
SEQEND
  8
0
  0
POLYLINE
  8
1
 66
1
 10
0.000000
 20
0.000000
 30
0.000000
 40
0.010000
 41
0.010000
 70
0
  0
VERTEX
  8
1
 10
2.425000
 20
1.832500
 30
0.000000
 42
1.000000
  0
VERTEX
  8
1
 10
2.425000
 20
1.842500
 30
0.000000
  0
SEQEND
  8
0
  0
POLYLINE
  8
1
 66
1
 10
0.000000
 20
0.000000
 30
0.000000
 40
0.020000
 41
0.020000
 70
0
  0
VERTEX
  8
1
 10
2.420571
 20
1.837500
 30
0.000000
  0
VERTEX
  8
1
 10
2.412500
 20
1.845571
 30
0.000000
  0
SEQEND
  8
0
  0
POLYLINE
  8
1
 66
1
 10
0.000000
 20
0.000000
 30
0.000000
 40
0.010000
 41
0.010000
 70
0
  0
VERTEX
  8
1
 10
2.416036
 20
1.849106
 30
0.000000
 42
1.000000
  0
VERTEX
  8
1
 10
2.408964
 20
1.842035
 30
0.000000
  0
SEQEND
  8
0
  0
POLYLINE
  8
1
 66
1
 10
0.000000
 20
0.000000
 30
0.000000
 40
0.010000
 41
0.010000
 70
0
  0
VERTEX
  8
1
 10
2.417035
 20
1.833964
 30
0.000000
 42
1.000000
  0
VERTEX
  8
1
 10
2.424106
 20
1.841036
 30
0.000000
  0
SEQEND
  8
0
  0
POLYLINE
  8
1
 66
1
 10
0.000000
 20
0.000000
 30
0.000000
 40
0.020000
 41
0.020000
 70
0
  0
VERTEX
  8
1
 10
0.800000
 20
1.712500
 30
0.000000
  0
VERTEX
  8
1
 10
0.850000
 20
1.662500
 30
0.000000
  0
SEQEND
  8
0
  0
POLYLINE
  8
1
 66
1
 10
0.000000
 20
0.000000
 30
0.000000
 40
0.010000
 41
0.010000
 70
0
  0
VERTEX
  8
1
 10
0.846464
 20
1.658964
 30
0.000000
 42
1.000000
  0
VERTEX
  8
1
 10
0.853536
 20
1.666036
 30
0.000000
  0
SEQEND
  8
0
  0
POLYLINE
  8
1
 66
1
 10
0.000000
 20
0.000000
 30
0.000000
 40
0.010000
 41
0.010000
 70
0
  0
VERTEX
  8
1
 10
0.803536
 20
1.716036
 30
0.000000
 42
1.000000
  0
VERTEX
  8
1
 10
0.796464
 20
1.708964
 30
0.000000
  0
SEQEND
  8
0
  0
POLYLINE
  8
1
 66
1
 10
0.000000
 20
0.000000
 30
0.000000
 40
0.020000
 41
0.020000
 70
0
  0
VERTEX
  8
1
 10
0.850000
 20
1.662500
 30
0.000000
  0
VERTEX
  8
1
 10
0.850000
 20
1.462500
 30
0.000000
  0
SEQEND
  8
0
  0
POLYLINE
  8
1
 66
1
 10
0.000000
 20
0.000000
 30
0.000000
 40
0.010000
 41
0.010000
 70
0
  0
VERTEX
  8
1
 10
0.845000
 20
1.462500
 30
0.000000
 42
1.000000
  0
VERTEX
  8
1
 10
0.855000
 20
1.462500
 30
0.000000
  0
SEQEND
  8
0
  0
POLYLINE
  8
1
 66
1
 10
0.000000
 20
0.000000
 30
0.000000
 40
0.010000
 41
0.010000
 70
0
  0
VERTEX
  8
1
 10
0.855000
 20
1.662500
 30
0.000000
 42
1.000000
  0
VERTEX
  8
1
 10
0.845000
 20
1.662500
 30
0.000000
  0
SEQEND
  8
0
  0
POLYLINE
  8
1
 66
1
 10
0.000000
 20
0.000000
 30
0.000000
 40
0.020000
 41
0.020000
 70
0
  0
VERTEX
  8
1
 10
0.850000
 20
1.462500
 30
0.000000
  0
VERTEX
  8
1
 10
0.700000
 20
1.312500
 30
0.000000
  0
SEQEND
  8
0
  0
POLYLINE
  8
1
 66
1
 10
0.000000
 20
0.000000
 30
0.000000
 40
0.010000
 41
0.010000
 70
0
  0
VERTEX
  8
1
 10
0.696464
 20
1.316036
 30
0.000000
 42
1.000000
  0
VERTEX
  8
1
 10
0.703536
 20
1.308964
 30
0.000000
  0
SEQEND
  8
0
  0
POLYLINE
  8
1
 66
1
 10
0.000000
 20
0.000000
 30
0.000000
 40
0.010000
 41
0.010000
 70
0
  0
VERTEX
  8
1
 10
0.853536
 20
1.458964
 30
0.000000
 42
1.000000
  0
VERTEX
  8
1
 10
0.846464
 20
1.466036
 30
0.000000
  0
SEQEND
  8
0
  0
POLYLINE
  8
1
 66
1
 10
0.000000
 20
0.000000
 30
0.000000
 40
0.020000
 41
0.020000
 70
0
  0
VERTEX
  8
1
 10
0.700000
 20
1.312500
 30
0.000000
  0
VERTEX
  8
1
 10
0.700000
 20
1.037500
 30
0.000000
  0
SEQEND
  8
0
  0
POLYLINE
  8
1
 66
1
 10
0.000000
 20
0.000000
 30
0.000000
 40
0.010000
 41
0.010000
 70
0
  0
VERTEX
  8
1
 10
0.695000
 20
1.037500
 30
0.000000
 42
1.000000
  0
VERTEX
  8
1
 10
0.705000
 20
1.037500
 30
0.000000
  0
SEQEND
  8
0
  0
POLYLINE
  8
1
 66
1
 10
0.000000
 20
0.000000
 30
0.000000
 40
0.010000
 41
0.010000
 70
0
  0
VERTEX
  8
1
 10
0.705000
 20
1.312500
 30
0.000000
 42
1.000000
  0
VERTEX
  8
1
 10
0.695000
 20
1.312500
 30
0.000000
  0
SEQEND
  8
0
  0
POLYLINE
  8
1
 66
1
 10
0.000000
 20
0.000000
 30
0.000000
 40
0.020000
 41
0.020000
 70
0
  0
VERTEX
  8
1
 10
0.800000
 20
1.712500
 30
0.000000
  0
VERTEX
  8
1
 10
0.700000
 20
1.712500
 30
0.000000
  0
SEQEND
  8
0
  0
POLYLINE
  8
1
 66
1
 10
0.000000
 20
0.000000
 30
0.000000
 40
0.010000
 41
0.010000
 70
0
  0
VERTEX
  8
1
 10
0.700000
 20
1.717500
 30
0.000000
 42
1.000000
  0
VERTEX
  8
1
 10
0.700000
 20
1.707500
 30
0.000000
  0
SEQEND
  8
0
  0
POLYLINE
  8
1
 66
1
 10
0.000000
 20
0.000000
 30
0.000000
 40
0.010000
 41
0.010000
 70
0
  0
VERTEX
  8
1
 10
0.800000
 20
1.707500
 30
0.000000
 42
1.000000
  0
VERTEX
  8
1
 10
0.800000
 20
1.717500
 30
0.000000
  0
SEQEND
  8
0
  0
POLYLINE
  8
1
 66
1
 10
0.000000
 20
0.000000
 30
0.000000
 40
0.020000
 41
0.020000
 70
0
  0
VERTEX
  8
1
 10
0.700000
 20
1.712500
 30
0.000000
  0
VERTEX
  8
1
 10
0.700000
 20
2.037500
 30
0.000000
  0
SEQEND
  8
0
  0
POLYLINE
  8
1
 66
1
 10
0.000000
 20
0.000000
 30
0.000000
 40
0.010000
 41
0.010000
 70
0
  0
VERTEX
  8
1
 10
0.705000
 20
2.037500
 30
0.000000
 42
1.000000
  0
VERTEX
  8
1
 10
0.695000
 20
2.037500
 30
0.000000
  0
SEQEND
  8
0
  0
POLYLINE
  8
1
 66
1
 10
0.000000
 20
0.000000
 30
0.000000
 40
0.010000
 41
0.010000
 70
0
  0
VERTEX
  8
1
 10
0.695000
 20
1.712500
 30
0.000000
 42
1.000000
  0
VERTEX
  8
1
 10
0.705000
 20
1.712500
 30
0.000000
  0
SEQEND
  8
0
  0
POLYLINE
  8
1
 66
1
 10
0.000000
 20
0.000000
 30
0.000000
 40
0.020000
 41
0.020000
 70
0
  0
VERTEX
  8
1
 10
0.700000
 20
2.037500
 30
0.000000
  0
VERTEX
  8
1
 10
0.787500
 20
2.125000
 30
0.000000
  0
SEQEND
  8
0
  0
POLYLINE
  8
1
 66
1
 10
0.000000
 20
0.000000
 30
0.000000
 40
0.010000
 41
0.010000
 70
0
  0
VERTEX
  8
1
 10
0.791036
 20
2.121464
 30
0.000000
 42
1.000000
  0
VERTEX
  8
1
 10
0.783964
 20
2.128536
 30
0.000000
  0
SEQEND
  8
0
  0
POLYLINE
  8
1
 66
1
 10
0.000000
 20
0.000000
 30
0.000000
 40
0.010000
 41
0.010000
 70
0
  0
VERTEX
  8
1
 10
0.696464
 20
2.041036
 30
0.000000
 42
1.000000
  0
VERTEX
  8
1
 10
0.703536
 20
2.033964
 30
0.000000
  0
SEQEND
  8
0
  0
POLYLINE
  8
1
 66
1
 10
0.000000
 20
0.000000
 30
0.000000
 40
0.020000
 41
0.020000
 70
0
  0
VERTEX
  8
1
 10
0.787500
 20
2.125000
 30
0.000000
  0
VERTEX
  8
1
 10
1.412500
 20
2.125000
 30
0.000000
  0
SEQEND
  8
0
  0
POLYLINE
  8
1
 66
1
 10
0.000000
 20
0.000000
 30
0.000000
 40
0.010000
 41
0.010000
 70
0
  0
VERTEX
  8
1
 10
1.412500
 20
2.120000
 30
0.000000
 42
1.000000
  0
VERTEX
  8
1
 10
1.412500
 20
2.130000
 30
0.000000
  0
SEQEND
  8
0
  0
POLYLINE
  8
1
 66
1
 10
0.000000
 20
0.000000
 30
0.000000
 40
0.010000
 41
0.010000
 70
0
  0
VERTEX
  8
1
 10
0.787500
 20
2.130000
 30
0.000000
 42
1.000000
  0
VERTEX
  8
1
 10
0.787500
 20
2.120000
 30
0.000000
  0
SEQEND
  8
0
  0
POLYLINE
  8
1
 66
1
 10
0.000000
 20
0.000000
 30
0.000000
 40
0.020000
 41
0.020000
 70
0
  0
VERTEX
  8
1
 10
1.412500
 20
2.125000
 30
0.000000
  0
VERTEX
  8
1
 10
1.537500
 20
2.000000
 30
0.000000
  0
SEQEND
  8
0
  0
POLYLINE
  8
1
 66
1
 10
0.000000
 20
0.000000
 30
0.000000
 40
0.010000
 41
0.010000
 70
0
  0
VERTEX
  8
1
 10
1.533964
 20
1.996464
 30
0.000000
 42
1.000000
  0
VERTEX
  8
1
 10
1.541036
 20
2.003536
 30
0.000000
  0
SEQEND
  8
0
  0
POLYLINE
  8
1
 66
1
 10
0.000000
 20
0.000000
 30
0.000000
 40
0.010000
 41
0.010000
 70
0
  0
VERTEX
  8
1
 10
1.416036
 20
2.128536
 30
0.000000
 42
1.000000
  0
VERTEX
  8
1
 10
1.408964
 20
2.121464
 30
0.000000
  0
SEQEND
  8
0
  0
POLYLINE
  8
1
 66
1
 10
0.000000
 20
0.000000
 30
0.000000
 40
0.020000
 41
0.020000
 70
0
  0
VERTEX
  8
1
 10
1.537500
 20
2.000000
 30
0.000000
  0
VERTEX
  8
1
 10
1.537500
 20
1.987500
 30
0.000000
  0
SEQEND
  8
0
  0
POLYLINE
  8
1
 66
1
 10
0.000000
 20
0.000000
 30
0.000000
 40
0.010000
 41
0.010000
 70
0
  0
VERTEX
  8
1
 10
1.532500
 20
1.987500
 30
0.000000
 42
1.000000
  0
VERTEX
  8
1
 10
1.542500
 20
1.987500
 30
0.000000
  0
SEQEND
  8
0
  0
POLYLINE
  8
1
 66
1
 10
0.000000
 20
0.000000
 30
0.000000
 40
0.010000
 41
0.010000
 70
0
  0
VERTEX
  8
1
 10
1.542500
 20
2.000000
 30
0.000000
 42
1.000000
  0
VERTEX
  8
1
 10
1.532500
 20
2.000000
 30
0.000000
  0
SEQEND
  8
0
  0
POLYLINE
  8
1
 66
1
 10
0.000000
 20
0.000000
 30
0.000000
 40
0.020000
 41
0.020000
 70
0
  0
VERTEX
  8
1
 10
1.537500
 20
1.987500
 30
0.000000
  0
VERTEX
  8
1
 10
2.300000
 20
1.987500
 30
0.000000
  0
SEQEND
  8
0
  0
POLYLINE
  8
1
 66
1
 10
0.000000
 20
0.000000
 30
0.000000
 40
0.010000
 41
0.010000
 70
0
  0
VERTEX
  8
1
 10
2.300000
 20
1.982500
 30
0.000000
 42
1.000000
  0
VERTEX
  8
1
 10
2.300000
 20
1.992500
 30
0.000000
  0
SEQEND
  8
0
  0
POLYLINE
  8
1
 66
1
 10
0.000000
 20
0.000000
 30
0.000000
 40
0.010000
 41
0.010000
 70
0
  0
VERTEX
  8
1
 10
1.537500
 20
1.992500
 30
0.000000
 42
1.000000
  0
VERTEX
  8
1
 10
1.537500
 20
1.982500
 30
0.000000
  0
SEQEND
  8
0
  0
POLYLINE
  8
1
 66
1
 10
0.000000
 20
0.000000
 30
0.000000
 40
0.020000
 41
0.020000
 70
0
  0
VERTEX
  8
1
 10
2.325000
 20
1.962500
 30
0.000000
  0
VERTEX
  8
1
 10
2.325000
 20
1.875000
 30
0.000000
  0
SEQEND
  8
0
  0
POLYLINE
  8
1
 66
1
 10
0.000000
 20
0.000000
 30
0.000000
 40
0.010000
 41
0.010000
 70
0
  0
VERTEX
  8
1
 10
2.320000
 20
1.875000
 30
0.000000
 42
1.000000
  0
VERTEX
  8
1
 10
2.330000
 20
1.875000
 30
0.000000
  0
SEQEND
  8
0
  0
POLYLINE
  8
1
 66
1
 10
0.000000
 20
0.000000
 30
0.000000
 40
0.010000
 41
0.010000
 70
0
  0
VERTEX
  8
1
 10
2.330000
 20
1.962500
 30
0.000000
 42
1.000000
  0
VERTEX
  8
1
 10
2.320000
 20
1.962500
 30
0.000000
  0
SEQEND
  8
0
  0
POLYLINE
  8
1
 66
1
 10
0.000000
 20
0.000000
 30
0.000000
 40
0.020000
 41
0.020000
 70
0
  0
VERTEX
  8
1
 10
2.325000
 20
1.875000
 30
0.000000
  0
VERTEX
  8
1
 10
2.362500
 20
1.837500
 30
0.000000
  0
SEQEND
  8
0
  0
POLYLINE
  8
1
 66
1
 10
0.000000
 20
0.000000
 30
0.000000
 40
0.010000
 41
0.010000
 70
0
  0
VERTEX
  8
1
 10
2.358964
 20
1.833964
 30
0.000000
 42
1.000000
  0
VERTEX
  8
1
 10
2.366036
 20
1.841036
 30
0.000000
  0
SEQEND
  8
0
  0
POLYLINE
  8
1
 66
1
 10
0.000000
 20
0.000000
 30
0.000000
 40
0.010000
 41
0.010000
 70
0
  0
VERTEX
  8
1
 10
2.328536
 20
1.878536
 30
0.000000
 42
1.000000
  0
VERTEX
  8
1
 10
2.321464
 20
1.871464
 30
0.000000
  0
SEQEND
  8
0
  0
POLYLINE
  8
1
 66
1
 10
0.000000
 20
0.000000
 30
0.000000
 40
0.020000
 41
0.020000
 70
0
  0
VERTEX
  8
1
 10
2.362500
 20
1.837500
 30
0.000000
  0
VERTEX
  8
1
 10
2.425000
 20
1.837500
 30
0.000000
  0
SEQEND
  8
0
  0
POLYLINE
  8
1
 66
1
 10
0.000000
 20
0.000000
 30
0.000000
 40
0.010000
 41
0.010000
 70
0
  0
VERTEX
  8
1
 10
2.425000
 20
1.832500
 30
0.000000
 42
1.000000
  0
VERTEX
  8
1
 10
2.425000
 20
1.842500
 30
0.000000
  0
SEQEND
  8
0
  0
POLYLINE
  8
1
 66
1
 10
0.000000
 20
0.000000
 30
0.000000
 40
0.010000
 41
0.010000
 70
0
  0
VERTEX
  8
1
 10
2.362500
 20
1.842500
 30
0.000000
 42
1.000000
  0
VERTEX
  8
1
 10
2.362500
 20
1.832500
 30
0.000000
  0
SEQEND
  8
0
  0
POLYLINE
  8
1
 66
1
 10
0.000000
 20
0.000000
 30
0.000000
 40
0.020000
 41
0.020000
 70
0
  0
VERTEX
  8
1
 10
2.300000
 20
1.987500
 30
0.000000
  0
VERTEX
  8
1
 10
2.325000
 20
1.962500
 30
0.000000
  0
SEQEND
  8
0
  0
POLYLINE
  8
1
 66
1
 10
0.000000
 20
0.000000
 30
0.000000
 40
0.010000
 41
0.010000
 70
0
  0
VERTEX
  8
1
 10
2.321464
 20
1.958964
 30
0.000000
 42
1.000000
  0
VERTEX
  8
1
 10
2.328536
 20
1.966036
 30
0.000000
  0
SEQEND
  8
0
  0
POLYLINE
  8
1
 66
1
 10
0.000000
 20
0.000000
 30
0.000000
 40
0.010000
 41
0.010000
 70
0
  0
VERTEX
  8
1
 10
2.303536
 20
1.991036
 30
0.000000
 42
1.000000
  0
VERTEX
  8
1
 10
2.296464
 20
1.983964
 30
0.000000
  0
SEQEND
  8
0
  0
POLYLINE
  8
1
 66
1
 10
0.000000
 20
0.000000
 30
0.000000
 40
0.020000
 41
0.020000
 70
0
  0
VERTEX
  8
1
 10
0.791142
 20
0.640940
 30
0.000000
  0
VERTEX
  8
1
 10
0.791929
 20
0.641728
 30
0.000000
  0
SEQEND
  8
0
  0
POLYLINE
  8
1
 66
1
 10
0.000000
 20
0.000000
 30
0.000000
 40
0.010000
 41
0.010000
 70
0
  0
VERTEX
  8
1
 10
0.795465
 20
0.638192
 30
0.000000
 42
1.000000
  0
VERTEX
  8
1
 10
0.788394
 20
0.645263
 30
0.000000
  0
SEQEND
  8
0
  0
POLYLINE
  8
1
 66
1
 10
0.000000
 20
0.000000
 30
0.000000
 40
0.010000
 41
0.010000
 70
0
  0
VERTEX
  8
1
 10
0.787606
 20
0.644476
 30
0.000000
 42
1.000000
  0
VERTEX
  8
1
 10
0.794677
 20
0.637405
 30
0.000000
  0
SEQEND
  8
0
  0
POLYLINE
  8
1
 66
1
 10
0.000000
 20
0.000000
 30
0.000000
 40
0.020000
 41
0.020000
 70
0
  0
VERTEX
  8
1
 10
0.791929
 20
0.641728
 30
0.000000
  0
VERTEX
  8
1
 10
0.791929
 20
0.762500
 30
0.000000
  0
SEQEND
  8
0
  0
POLYLINE
  8
1
 66
1
 10
0.000000
 20
0.000000
 30
0.000000
 40
0.010000
 41
0.010000
 70
0
  0
VERTEX
  8
1
 10
0.796929
 20
0.762500
 30
0.000000
 42
1.000000
  0
VERTEX
  8
1
 10
0.786929
 20
0.762500
 30
0.000000
  0
SEQEND
  8
0
  0
POLYLINE
  8
1
 66
1
 10
0.000000
 20
0.000000
 30
0.000000
 40
0.010000
 41
0.010000
 70
0
  0
VERTEX
  8
1
 10
0.786929
 20
0.641728
 30
0.000000
 42
1.000000
  0
VERTEX
  8
1
 10
0.796929
 20
0.641728
 30
0.000000
  0
SEQEND
  8
0
  0
POLYLINE
  8
1
 66
1
 10
0.000000
 20
0.000000
 30
0.000000
 40
0.020000
 41
0.020000
 70
0
  0
VERTEX
  8
1
 10
2.058858
 20
0.640940
 30
0.000000
  0
VERTEX
  8
1
 10
2.058858
 20
0.758071
 30
0.000000
  0
SEQEND
  8
0
  0
POLYLINE
  8
1
 66
1
 10
0.000000
 20
0.000000
 30
0.000000
 40
0.010000
 41
0.010000
 70
0
  0
VERTEX
  8
1
 10
2.063858
 20
0.758071
 30
0.000000
 42
1.000000
  0
VERTEX
  8
1
 10
2.053858
 20
0.758071
 30
0.000000
  0
SEQEND
  8
0
  0
POLYLINE
  8
1
 66
1
 10
0.000000
 20
0.000000
 30
0.000000
 40
0.010000
 41
0.010000
 70
0
  0
VERTEX
  8
1
 10
2.053858
 20
0.640940
 30
0.000000
 42
1.000000
  0
VERTEX
  8
1
 10
2.063858
 20
0.640940
 30
0.000000
  0
SEQEND
  8
0
  0
POLYLINE
  8
1
 66
1
 10
0.000000
 20
0.000000
 30
0.000000
 40
0.020000
 41
0.020000
 70
0
  0
VERTEX
  8
1
 10
2.058858
 20
0.758071
 30
0.000000
  0
VERTEX
  8
1
 10
2.054429
 20
0.762500
 30
0.000000
  0
SEQEND
  8
0
  0
POLYLINE
  8
1
 66
1
 10
0.000000
 20
0.000000
 30
0.000000
 40
0.010000
 41
0.010000
 70
0
  0
VERTEX
  8
1
 10
2.057965
 20
0.766036
 30
0.000000
 42
1.000000
  0
VERTEX
  8
1
 10
2.050894
 20
0.758964
 30
0.000000
  0
SEQEND
  8
0
  0
POLYLINE
  8
1
 66
1
 10
0.000000
 20
0.000000
 30
0.000000
 40
0.010000
 41
0.010000
 70
0
  0
VERTEX
  8
1
 10
2.055323
 20
0.754535
 30
0.000000
 42
1.000000
  0
VERTEX
  8
1
 10
2.062394
 20
0.761606
 30
0.000000
  0
SEQEND
  8
0
  0
POLYLINE
  8
1
 66
1
 10
0.000000
 20
0.000000
 30
0.000000
 40
0.020000
 41
0.020000
 70
0
  0
VERTEX
  8
1
 10
1.291142
 20
0.640940
 30
0.000000
  0
VERTEX
  8
1
 10
1.291929
 20
0.641728
 30
0.000000
  0
SEQEND
  8
0
  0
POLYLINE
  8
1
 66
1
 10
0.000000
 20
0.000000
 30
0.000000
 40
0.010000
 41
0.010000
 70
0
  0
VERTEX
  8
1
 10
1.295465
 20
0.638192
 30
0.000000
 42
1.000000
  0
VERTEX
  8
1
 10
1.288394
 20
0.645263
 30
0.000000
  0
SEQEND
  8
0
  0
POLYLINE
  8
1
 66
1
 10
0.000000
 20
0.000000
 30
0.000000
 40
0.010000
 41
0.010000
 70
0
  0
VERTEX
  8
1
 10
1.287606
 20
0.644476
 30
0.000000
 42
1.000000
  0
VERTEX
  8
1
 10
1.294677
 20
0.637405
 30
0.000000
  0
SEQEND
  8
0
  0
POLYLINE
  8
1
 66
1
 10
0.000000
 20
0.000000
 30
0.000000
 40
0.020000
 41
0.020000
 70
0
  0
VERTEX
  8
1
 10
1.291929
 20
0.641728
 30
0.000000
  0
VERTEX
  8
1
 10
1.291929
 20
0.762500
 30
0.000000
  0
SEQEND
  8
0
  0
POLYLINE
  8
1
 66
1
 10
0.000000
 20
0.000000
 30
0.000000
 40
0.010000
 41
0.010000
 70
0
  0
VERTEX
  8
1
 10
1.296929
 20
0.762500
 30
0.000000
 42
1.000000
  0
VERTEX
  8
1
 10
1.286929
 20
0.762500
 30
0.000000
  0
SEQEND
  8
0
  0
POLYLINE
  8
1
 66
1
 10
0.000000
 20
0.000000
 30
0.000000
 40
0.010000
 41
0.010000
 70
0
  0
VERTEX
  8
1
 10
1.286929
 20
0.641728
 30
0.000000
 42
1.000000
  0
VERTEX
  8
1
 10
1.296929
 20
0.641728
 30
0.000000
  0
SEQEND
  8
0
  0
POLYLINE
  8
1
 66
1
 10
0.000000
 20
0.000000
 30
0.000000
 40
0.020000
 41
0.020000
 70
0
  0
VERTEX
  8
1
 10
1.558858
 20
1.140940
 30
0.000000
  0
VERTEX
  8
1
 10
1.554429
 20
1.145369
 30
0.000000
  0
SEQEND
  8
0
  0
POLYLINE
  8
1
 66
1
 10
0.000000
 20
0.000000
 30
0.000000
 40
0.010000
 41
0.010000
 70
0
  0
VERTEX
  8
1
 10
1.557965
 20
1.148905
 30
0.000000
 42
1.000000
  0
VERTEX
  8
1
 10
1.550894
 20
1.141834
 30
0.000000
  0
SEQEND
  8
0
  0
POLYLINE
  8
1
 66
1
 10
0.000000
 20
0.000000
 30
0.000000
 40
0.010000
 41
0.010000
 70
0
  0
VERTEX
  8
1
 10
1.555323
 20
1.137405
 30
0.000000
 42
1.000000
  0
VERTEX
  8
1
 10
1.562394
 20
1.144476
 30
0.000000
  0
SEQEND
  8
0
  0
POLYLINE
  8
1
 66
1
 10
0.000000
 20
0.000000
 30
0.000000
 40
0.020000
 41
0.020000
 70
0
  0
VERTEX
  8
1
 10
1.554429
 20
1.145369
 30
0.000000
  0
VERTEX
  8
1
 10
1.554429
 20
1.312500
 30
0.000000
  0
SEQEND
  8
0
  0
POLYLINE
  8
1
 66
1
 10
0.000000
 20
0.000000
 30
0.000000
 40
0.010000
 41
0.010000
 70
0
  0
VERTEX
  8
1
 10
1.559429
 20
1.312500
 30
0.000000
 42
1.000000
  0
VERTEX
  8
1
 10
1.549429
 20
1.312500
 30
0.000000
  0
SEQEND
  8
0
  0
POLYLINE
  8
1
 66
1
 10
0.000000
 20
0.000000
 30
0.000000
 40
0.010000
 41
0.010000
 70
0
  0
VERTEX
  8
1
 10
1.549429
 20
1.145369
 30
0.000000
 42
1.000000
  0
VERTEX
  8
1
 10
1.559429
 20
1.145369
 30
0.000000
  0
SEQEND
  8
0
  0
POLYLINE
  8
1
 66
1
 10
0.000000
 20
0.000000
 30
0.000000
 40
0.020000
 41
0.020000
 70
0
  0
VERTEX
  8
1
 10
2.412500
 20
1.979429
 30
0.000000
  0
VERTEX
  8
1
 10
2.412500
 20
2.087500
 30
0.000000
  0
SEQEND
  8
0
  0
POLYLINE
  8
1
 66
1
 10
0.000000
 20
0.000000
 30
0.000000
 40
0.010000
 41
0.010000
 70
0
  0
VERTEX
  8
1
 10
2.417500
 20
2.087500
 30
0.000000
 42
1.000000
  0
VERTEX
  8
1
 10
2.407500
 20
2.087500
 30
0.000000
  0
SEQEND
  8
0
  0
POLYLINE
  8
1
 66
1
 10
0.000000
 20
0.000000
 30
0.000000
 40
0.010000
 41
0.010000
 70
0
  0
VERTEX
  8
1
 10
2.407500
 20
1.979429
 30
0.000000
 42
1.000000
  0
VERTEX
  8
1
 10
2.417500
 20
1.979429
 30
0.000000
  0
SEQEND
  8
0
  0
POLYLINE
  8
1
 66
1
 10
0.000000
 20
0.000000
 30
0.000000
 40
0.020000
 41
0.020000
 70
0
  0
VERTEX
  8
1
 10
2.412500
 20
2.087500
 30
0.000000
  0
VERTEX
  8
1
 10
2.403342
 20
2.096658
 30
0.000000
  0
SEQEND
  8
0
  0
POLYLINE
  8
1
 66
1
 10
0.000000
 20
0.000000
 30
0.000000
 40
0.010000
 41
0.010000
 70
0
  0
VERTEX
  8
1
 10
2.406877
 20
2.100194
 30
0.000000
 42
1.000000
  0
VERTEX
  8
1
 10
2.399806
 20
2.093123
 30
0.000000
  0
SEQEND
  8
0
  0
POLYLINE
  8
1
 66
1
 10
0.000000
 20
0.000000
 30
0.000000
 40
0.010000
 41
0.010000
 70
0
  0
VERTEX
  8
1
 10
2.408964
 20
2.083964
 30
0.000000
 42
1.000000
  0
VERTEX
  8
1
 10
2.416036
 20
2.091036
 30
0.000000
  0
SEQEND
  8
0
  0
POLYLINE
  8
1
 66
1
 10
0.000000
 20
0.000000
 30
0.000000
 40
0.020000
 41
0.020000
 70
0
  0
VERTEX
  8
1
 10
2.403342
 20
2.096658
 30
0.000000
  0
VERTEX
  8
1
 10
2.228740
 20
2.096658
 30
0.000000
  0
SEQEND
  8
0
  0
POLYLINE
  8
1
 66
1
 10
0.000000
 20
0.000000
 30
0.000000
 40
0.010000
 41
0.010000
 70
0
  0
VERTEX
  8
1
 10
2.228740
 20
2.101658
 30
0.000000
 42
1.000000
  0
VERTEX
  8
1
 10
2.228740
 20
2.091658
 30
0.000000
  0
SEQEND
  8
0
  0
POLYLINE
  8
1
 66
1
 10
0.000000
 20
0.000000
 30
0.000000
 40
0.010000
 41
0.010000
 70
0
  0
VERTEX
  8
1
 10
2.403342
 20
2.091658
 30
0.000000
 42
1.000000
  0
VERTEX
  8
1
 10
2.403342
 20
2.101658
 30
0.000000
  0
SEQEND
  8
0
  0
POLYLINE
  8
1
 66
1
 10
0.000000
 20
0.000000
 30
0.000000
 40
0.020000
 41
0.020000
 70
0
  0
VERTEX
  8
1
 10
2.741142
 20
0.840940
 30
0.000000
  0
VERTEX
  8
1
 10
2.741142
 20
1.029429
 30
0.000000
  0
SEQEND
  8
0
  0
POLYLINE
  8
1
 66
1
 10
0.000000
 20
0.000000
 30
0.000000
 40
0.010000
 41
0.010000
 70
0
  0
VERTEX
  8
1
 10
2.746142
 20
1.029429
 30
0.000000
 42
1.000000
  0
VERTEX
  8
1
 10
2.736142
 20
1.029429
 30
0.000000
  0
SEQEND
  8
0
  0
POLYLINE
  8
1
 66
1
 10
0.000000
 20
0.000000
 30
0.000000
 40
0.010000
 41
0.010000
 70
0
  0
VERTEX
  8
1
 10
2.736142
 20
0.840940
 30
0.000000
 42
1.000000
  0
VERTEX
  8
1
 10
2.746142
 20
0.840940
 30
0.000000
  0
SEQEND
  8
0
  0
POLYLINE
  8
1
 66
1
 10
0.000000
 20
0.000000
 30
0.000000
 40
0.020000
 41
0.020000
 70
0
  0
VERTEX
  8
1
 10
2.741142
 20
1.029429
 30
0.000000
  0
VERTEX
  8
1
 10
2.745571
 20
1.037500
 30
0.000000
  0
SEQEND
  8
0
  0
POLYLINE
  8
1
 66
1
 10
0.000000
 20
0.000000
 30
0.000000
 40
0.010000
 41
0.010000
 70
0
  0
VERTEX
  8
1
 10
2.749954
 20
1.035095
 30
0.000000
 42
1.000000
  0
VERTEX
  8
1
 10
2.741188
 20
1.039905
 30
0.000000
  0
SEQEND
  8
0
  0
POLYLINE
  8
1
 66
1
 10
0.000000
 20
0.000000
 30
0.000000
 40
0.010000
 41
0.010000
 70
0
  0
VERTEX
  8
1
 10
2.736758
 20
1.031835
 30
0.000000
 42
1.000000
  0
VERTEX
  8
1
 10
2.745525
 20
1.027024
 30
0.000000
  0
SEQEND
  8
0
  0
POLYLINE
  8
1
 66
1
 10
0.000000
 20
0.000000
 30
0.000000
 40
0.020000
 41
0.020000
 70
0
  0
VERTEX
  8
1
 10
2.458858
 20
1.240940
 30
0.000000
  0
VERTEX
  8
1
 10
2.470571
 20
1.252653
 30
0.000000
  0
SEQEND
  8
0
  0
POLYLINE
  8
1
 66
1
 10
0.000000
 20
0.000000
 30
0.000000
 40
0.010000
 41
0.010000
 70
0
  0
VERTEX
  8
1
 10
2.474106
 20
1.249117
 30
0.000000
 42
1.000000
  0
VERTEX
  8
1
 10
2.467035
 20
1.256188
 30
0.000000
  0
SEQEND
  8
0
  0
POLYLINE
  8
1
 66
1
 10
0.000000
 20
0.000000
 30
0.000000
 40
0.010000
 41
0.010000
 70
0
  0
VERTEX
  8
1
 10
2.455323
 20
1.244476
 30
0.000000
 42
1.000000
  0
VERTEX
  8
1
 10
2.462394
 20
1.237405
 30
0.000000
  0
SEQEND
  8
0
  0
POLYLINE
  8
1
 66
1
 10
0.000000
 20
0.000000
 30
0.000000
 40
0.020000
 41
0.020000
 70
0
  0
VERTEX
  8
1
 10
2.470571
 20
1.252653
 30
0.000000
  0
VERTEX
  8
1
 10
2.470571
 20
1.375000
 30
0.000000
  0
SEQEND
  8
0
  0
POLYLINE
  8
1
 66
1
 10
0.000000
 20
0.000000
 30
0.000000
 40
0.010000
 41
0.010000
 70
0
  0
VERTEX
  8
1
 10
2.475571
 20
1.375000
 30
0.000000
 42
1.000000
  0
VERTEX
  8
1
 10
2.465571
 20
1.375000
 30
0.000000
  0
SEQEND
  8
0
  0
POLYLINE
  8
1
 66
1
 10
0.000000
 20
0.000000
 30
0.000000
 40
0.010000
 41
0.010000
 70
0
  0
VERTEX
  8
1
 10
2.465571
 20
1.252653
 30
0.000000
 42
1.000000
  0
VERTEX
  8
1
 10
2.475571
 20
1.252653
 30
0.000000
  0
SEQEND
  8
0
  0
POLYLINE
  8
1
 66
1
 10
0.000000
 20
0.000000
 30
0.000000
 40
0.020000
 41
0.020000
 70
0
  0
VERTEX
  8
1
 10
2.995571
 20
1.153642
 30
0.000000
  0
VERTEX
  8
1
 10
2.879429
 20
1.037500
 30
0.000000
  0
SEQEND
  8
0
  0
POLYLINE
  8
1
 66
1
 10
0.000000
 20
0.000000
 30
0.000000
 40
0.010000
 41
0.010000
 70
0
  0
VERTEX
  8
1
 10
2.875894
 20
1.041036
 30
0.000000
 42
1.000000
  0
VERTEX
  8
1
 10
2.882965
 20
1.033964
 30
0.000000
  0
SEQEND
  8
0
  0
POLYLINE
  8
1
 66
1
 10
0.000000
 20
0.000000
 30
0.000000
 40
0.010000
 41
0.010000
 70
0
  0
VERTEX
  8
1
 10
2.999106
 20
1.150106
 30
0.000000
 42
1.000000
  0
VERTEX
  8
1
 10
2.992035
 20
1.157177
 30
0.000000
  0
SEQEND
  8
0
  0
POLYLINE
  8
1
 66
1
 10
0.000000
 20
0.000000
 30
0.000000
 40
0.020000
 41
0.020000
 70
0
  0
VERTEX
  8
1
 10
2.995571
 20
1.153642
 30
0.000000
  0
VERTEX
  8
1
 10
2.995571
 20
1.237500
 30
0.000000
  0
SEQEND
  8
0
  0
POLYLINE
  8
1
 66
1
 10
0.000000
 20
0.000000
 30
0.000000
 40
0.010000
 41
0.010000
 70
0
  0
VERTEX
  8
1
 10
3.000571
 20
1.237500
 30
0.000000
 42
1.000000
  0
VERTEX
  8
1
 10
2.990571
 20
1.237500
 30
0.000000
  0
SEQEND
  8
0
  0
POLYLINE
  8
1
 66
1
 10
0.000000
 20
0.000000
 30
0.000000
 40
0.010000
 41
0.010000
 70
0
  0
VERTEX
  8
1
 10
2.990571
 20
1.153642
 30
0.000000
 42
1.000000
  0
VERTEX
  8
1
 10
3.000571
 20
1.153642
 30
0.000000
  0
SEQEND
  8
0
  0
POLYLINE
  8
1
 66
1
 10
0.000000
 20
0.000000
 30
0.000000
 40
0.020000
 41
0.020000
 70
0
  0
VERTEX
  8
1
 10
1.920571
 20
0.875000
 30
0.000000
  0
VERTEX
  8
1
 10
1.920571
 20
0.762500
 30
0.000000
  0
SEQEND
  8
0
  0
POLYLINE
  8
1
 66
1
 10
0.000000
 20
0.000000
 30
0.000000
 40
0.010000
 41
0.010000
 70
0
  0
VERTEX
  8
1
 10
1.915571
 20
0.762500
 30
0.000000
 42
1.000000
  0
VERTEX
  8
1
 10
1.925571
 20
0.762500
 30
0.000000
  0
SEQEND
  8
0
  0
POLYLINE
  8
1
 66
1
 10
0.000000
 20
0.000000
 30
0.000000
 40
0.010000
 41
0.010000
 70
0
  0
VERTEX
  8
1
 10
1.925571
 20
0.875000
 30
0.000000
 42
1.000000
  0
VERTEX
  8
1
 10
1.915571
 20
0.875000
 30
0.000000
  0
SEQEND
  8
0
  0
POLYLINE
  8
1
 66
1
 10
0.000000
 20
0.000000
 30
0.000000
 40
0.020000
 41
0.020000
 70
0
  0
VERTEX
  8
1
 10
1.920571
 20
0.875000
 30
0.000000
  0
VERTEX
  8
1
 10
1.920571
 20
1.341929
 30
0.000000
  0
SEQEND
  8
0
  0
POLYLINE
  8
1
 66
1
 10
0.000000
 20
0.000000
 30
0.000000
 40
0.010000
 41
0.010000
 70
0
  0
VERTEX
  8
1
 10
1.925571
 20
1.341929
 30
0.000000
 42
1.000000
  0
VERTEX
  8
1
 10
1.915571
 20
1.341929
 30
0.000000
  0
SEQEND
  8
0
  0
POLYLINE
  8
1
 66
1
 10
0.000000
 20
0.000000
 30
0.000000
 40
0.010000
 41
0.010000
 70
0
  0
VERTEX
  8
1
 10
1.915571
 20
0.875000
 30
0.000000
 42
1.000000
  0
VERTEX
  8
1
 10
1.925571
 20
0.875000
 30
0.000000
  0
SEQEND
  8
0
  0
POLYLINE
  8
1
 66
1
 10
0.000000
 20
0.000000
 30
0.000000
 40
0.020000
 41
0.020000
 70
0
  0
VERTEX
  8
1
 10
1.787500
 20
1.475000
 30
0.000000
  0
VERTEX
  8
1
 10
1.920571
 20
1.341929
 30
0.000000
  0
SEQEND
  8
0
  0
POLYLINE
  8
1
 66
1
 10
0.000000
 20
0.000000
 30
0.000000
 40
0.010000
 41
0.010000
 70
0
  0
VERTEX
  8
1
 10
1.917035
 20
1.338394
 30
0.000000
 42
1.000000
  0
VERTEX
  8
1
 10
1.924106
 20
1.345465
 30
0.000000
  0
SEQEND
  8
0
  0
POLYLINE
  8
1
 66
1
 10
0.000000
 20
0.000000
 30
0.000000
 40
0.010000
 41
0.010000
 70
0
  0
VERTEX
  8
1
 10
1.791036
 20
1.478536
 30
0.000000
 42
1.000000
  0
VERTEX
  8
1
 10
1.783964
 20
1.471464
 30
0.000000
  0
SEQEND
  8
0
  0
POLYLINE
  8
1
 66
1
 10
0.000000
 20
0.000000
 30
0.000000
 40
0.020000
 41
0.020000
 70
0
  0
VERTEX
  8
1
 10
1.787500
 20
1.475000
 30
0.000000
  0
VERTEX
  8
1
 10
1.687500
 20
1.575000
 30
0.000000
  0
SEQEND
  8
0
  0
POLYLINE
  8
1
 66
1
 10
0.000000
 20
0.000000
 30
0.000000
 40
0.010000
 41
0.010000
 70
0
  0
VERTEX
  8
1
 10
1.691036
 20
1.578536
 30
0.000000
 42
1.000000
  0
VERTEX
  8
1
 10
1.683964
 20
1.571464
 30
0.000000
  0
SEQEND
  8
0
  0
POLYLINE
  8
1
 66
1
 10
0.000000
 20
0.000000
 30
0.000000
 40
0.010000
 41
0.010000
 70
0
  0
VERTEX
  8
1
 10
1.783964
 20
1.471464
 30
0.000000
 42
1.000000
  0
VERTEX
  8
1
 10
1.791036
 20
1.478536
 30
0.000000
  0
SEQEND
  8
0
  0
POLYLINE
  8
1
 66
1
 10
0.000000
 20
0.000000
 30
0.000000
 40
0.020000
 41
0.020000
 70
0
  0
VERTEX
  8
1
 10
1.687500
 20
1.575000
 30
0.000000
  0
VERTEX
  8
1
 10
1.329429
 20
1.575000
 30
0.000000
  0
SEQEND
  8
0
  0
POLYLINE
  8
1
 66
1
 10
0.000000
 20
0.000000
 30
0.000000
 40
0.010000
 41
0.010000
 70
0
  0
VERTEX
  8
1
 10
1.329429
 20
1.580000
 30
0.000000
 42
1.000000
  0
VERTEX
  8
1
 10
1.329429
 20
1.570000
 30
0.000000
  0
SEQEND
  8
0
  0
POLYLINE
  8
1
 66
1
 10
0.000000
 20
0.000000
 30
0.000000
 40
0.010000
 41
0.010000
 70
0
  0
VERTEX
  8
1
 10
1.687500
 20
1.570000
 30
0.000000
 42
1.000000
  0
VERTEX
  8
1
 10
1.687500
 20
1.580000
 30
0.000000
  0
SEQEND
  8
0
  0
POLYLINE
  8
1
 66
1
 10
0.000000
 20
0.000000
 30
0.000000
 40
0.020000
 41
0.020000
 70
0
  0
VERTEX
  8
1
 10
1.329429
 20
1.575000
 30
0.000000
  0
VERTEX
  8
1
 10
1.325000
 20
1.570571
 30
0.000000
  0
SEQEND
  8
0
  0
POLYLINE
  8
1
 66
1
 10
0.000000
 20
0.000000
 30
0.000000
 40
0.010000
 41
0.010000
 70
0
  0
VERTEX
  8
1
 10
1.321464
 20
1.574106
 30
0.000000
 42
1.000000
  0
VERTEX
  8
1
 10
1.328536
 20
1.567035
 30
0.000000
  0
SEQEND
  8
0
  0
POLYLINE
  8
1
 66
1
 10
0.000000
 20
0.000000
 30
0.000000
 40
0.010000
 41
0.010000
 70
0
  0
VERTEX
  8
1
 10
1.332965
 20
1.571464
 30
0.000000
 42
1.000000
  0
VERTEX
  8
1
 10
1.325894
 20
1.578536
 30
0.000000
  0
SEQEND
  8
0
  0
POLYLINE
  8
1
 66
1
 10
0.000000
 20
0.000000
 30
0.000000
 40
0.020000
 41
0.020000
 70
0
  0
VERTEX
  8
1
 10
2.879429
 20
1.037500
 30
0.000000
  0
VERTEX
  8
1
 10
2.879429
 20
0.654429
 30
0.000000
  0
SEQEND
  8
0
  0
POLYLINE
  8
1
 66
1
 10
0.000000
 20
0.000000
 30
0.000000
 40
0.010000
 41
0.010000
 70
0
  0
VERTEX
  8
1
 10
2.874429
 20
0.654429
 30
0.000000
 42
1.000000
  0
VERTEX
  8
1
 10
2.884429
 20
0.654429
 30
0.000000
  0
SEQEND
  8
0
  0
POLYLINE
  8
1
 66
1
 10
0.000000
 20
0.000000
 30
0.000000
 40
0.010000
 41
0.010000
 70
0
  0
VERTEX
  8
1
 10
2.884429
 20
1.037500
 30
0.000000
 42
1.000000
  0
VERTEX
  8
1
 10
2.874429
 20
1.037500
 30
0.000000
  0
SEQEND
  8
0
  0
POLYLINE
  8
1
 66
1
 10
0.000000
 20
0.000000
 30
0.000000
 40
0.020000
 41
0.020000
 70
0
  0
VERTEX
  8
1
 10
2.879429
 20
0.654429
 30
0.000000
  0
VERTEX
  8
1
 10
2.837500
 20
0.612500
 30
0.000000
  0
SEQEND
  8
0
  0
POLYLINE
  8
1
 66
1
 10
0.000000
 20
0.000000
 30
0.000000
 40
0.010000
 41
0.010000
 70
0
  0
VERTEX
  8
1
 10
2.833964
 20
0.616036
 30
0.000000
 42
1.000000
  0
VERTEX
  8
1
 10
2.841036
 20
0.608964
 30
0.000000
  0
SEQEND
  8
0
  0
POLYLINE
  8
1
 66
1
 10
0.000000
 20
0.000000
 30
0.000000
 40
0.010000
 41
0.010000
 70
0
  0
VERTEX
  8
1
 10
2.882965
 20
0.650894
 30
0.000000
 42
1.000000
  0
VERTEX
  8
1
 10
2.875894
 20
0.657965
 30
0.000000
  0
SEQEND
  8
0
  0
POLYLINE
  8
1
 66
1
 10
0.000000
 20
0.000000
 30
0.000000
 40
0.020000
 41
0.020000
 70
0
  0
VERTEX
  8
1
 10
2.837500
 20
0.612500
 30
0.000000
  0
VERTEX
  8
1
 10
2.350000
 20
0.612500
 30
0.000000
  0
SEQEND
  8
0
  0
POLYLINE
  8
1
 66
1
 10
0.000000
 20
0.000000
 30
0.000000
 40
0.010000
 41
0.010000
 70
0
  0
VERTEX
  8
1
 10
2.350000
 20
0.617500
 30
0.000000
 42
1.000000
  0
VERTEX
  8
1
 10
2.350000
 20
0.607500
 30
0.000000
  0
SEQEND
  8
0
  0
POLYLINE
  8
1
 66
1
 10
0.000000
 20
0.000000
 30
0.000000
 40
0.010000
 41
0.010000
 70
0
  0
VERTEX
  8
1
 10
2.837500
 20
0.607500
 30
0.000000
 42
1.000000
  0
VERTEX
  8
1
 10
2.837500
 20
0.617500
 30
0.000000
  0
SEQEND
  8
0
  0
POLYLINE
  8
1
 66
1
 10
0.000000
 20
0.000000
 30
0.000000
 40
0.020000
 41
0.020000
 70
0
  0
VERTEX
  8
1
 10
2.350000
 20
0.612500
 30
0.000000
  0
VERTEX
  8
1
 10
2.087500
 20
0.875000
 30
0.000000
  0
SEQEND
  8
0
  0
POLYLINE
  8
1
 66
1
 10
0.000000
 20
0.000000
 30
0.000000
 40
0.010000
 41
0.010000
 70
0
  0
VERTEX
  8
1
 10
2.091036
 20
0.878536
 30
0.000000
 42
1.000000
  0
VERTEX
  8
1
 10
2.083964
 20
0.871464
 30
0.000000
  0
SEQEND
  8
0
  0
POLYLINE
  8
1
 66
1
 10
0.000000
 20
0.000000
 30
0.000000
 40
0.010000
 41
0.010000
 70
0
  0
VERTEX
  8
1
 10
2.346464
 20
0.608964
 30
0.000000
 42
1.000000
  0
VERTEX
  8
1
 10
2.353536
 20
0.616036
 30
0.000000
  0
SEQEND
  8
0
  0
POLYLINE
  8
1
 66
1
 10
0.000000
 20
0.000000
 30
0.000000
 40
0.020000
 41
0.020000
 70
0
  0
VERTEX
  8
1
 10
2.087500
 20
0.875000
 30
0.000000
  0
VERTEX
  8
1
 10
1.920571
 20
0.875000
 30
0.000000
  0
SEQEND
  8
0
  0
POLYLINE
  8
1
 66
1
 10
0.000000
 20
0.000000
 30
0.000000
 40
0.010000
 41
0.010000
 70
0
  0
VERTEX
  8
1
 10
1.920571
 20
0.880000
 30
0.000000
 42
1.000000
  0
VERTEX
  8
1
 10
1.920571
 20
0.870000
 30
0.000000
  0
SEQEND
  8
0
  0
POLYLINE
  8
1
 66
1
 10
0.000000
 20
0.000000
 30
0.000000
 40
0.010000
 41
0.010000
 70
0
  0
VERTEX
  8
1
 10
2.087500
 20
0.870000
 30
0.000000
 42
1.000000
  0
VERTEX
  8
1
 10
2.087500
 20
0.880000
 30
0.000000
  0
SEQEND
  8
0
  0
POLYLINE
  8
1
 66
1
 10
0.000000
 20
0.000000
 30
0.000000
 40
0.020000
 41
0.020000
 70
0
  0
VERTEX
  8
1
 10
1.925000
 20
1.475000
 30
0.000000
  0
VERTEX
  8
1
 10
1.787500
 20
1.475000
 30
0.000000
  0
SEQEND
  8
0
  0
POLYLINE
  8
1
 66
1
 10
0.000000
 20
0.000000
 30
0.000000
 40
0.010000
 41
0.010000
 70
0
  0
VERTEX
  8
1
 10
1.787500
 20
1.480000
 30
0.000000
 42
1.000000
  0
VERTEX
  8
1
 10
1.787500
 20
1.470000
 30
0.000000
  0
SEQEND
  8
0
  0
POLYLINE
  8
1
 66
1
 10
0.000000
 20
0.000000
 30
0.000000
 40
0.010000
 41
0.010000
 70
0
  0
VERTEX
  8
1
 10
1.925000
 20
1.470000
 30
0.000000
 42
1.000000
  0
VERTEX
  8
1
 10
1.925000
 20
1.480000
 30
0.000000
  0
SEQEND
  8
0
  0
POLYLINE
  8
1
 66
1
 10
0.000000
 20
0.000000
 30
0.000000
 40
0.020000
 41
0.020000
 70
0
  0
VERTEX
  8
1
 10
1.112500
 20
1.129429
 30
0.000000
  0
VERTEX
  8
1
 10
1.116929
 20
1.125000
 30
0.000000
  0
SEQEND
  8
0
  0
POLYLINE
  8
1
 66
1
 10
0.000000
 20
0.000000
 30
0.000000
 40
0.010000
 41
0.010000
 70
0
  0
VERTEX
  8
1
 10
1.113394
 20
1.121464
 30
0.000000
 42
1.000000
  0
VERTEX
  8
1
 10
1.120465
 20
1.128536
 30
0.000000
  0
SEQEND
  8
0
  0
POLYLINE
  8
1
 66
1
 10
0.000000
 20
0.000000
 30
0.000000
 40
0.010000
 41
0.010000
 70
0
  0
VERTEX
  8
1
 10
1.116036
 20
1.132965
 30
0.000000
 42
1.000000
  0
VERTEX
  8
1
 10
1.108964
 20
1.125894
 30
0.000000
  0
SEQEND
  8
0
  0
POLYLINE
  8
1
 66
1
 10
0.000000
 20
0.000000
 30
0.000000
 40
0.020000
 41
0.020000
 70
0
  0
VERTEX
  8
1
 10
3.450000
 20
1.375000
 30
0.000000
  0
VERTEX
  8
1
 10
2.604429
 20
1.375000
 30
0.000000
  0
SEQEND
  8
0
  0
POLYLINE
  8
1
 66
1
 10
0.000000
 20
0.000000
 30
0.000000
 40
0.010000
 41
0.010000
 70
0
  0
VERTEX
  8
1
 10
2.604429
 20
1.380000
 30
0.000000
 42
1.000000
  0
VERTEX
  8
1
 10
2.604429
 20
1.370000
 30
0.000000
  0
SEQEND
  8
0
  0
POLYLINE
  8
1
 66
1
 10
0.000000
 20
0.000000
 30
0.000000
 40
0.010000
 41
0.010000
 70
0
  0
VERTEX
  8
1
 10
3.450000
 20
1.370000
 30
0.000000
 42
1.000000
  0
VERTEX
  8
1
 10
3.450000
 20
1.380000
 30
0.000000
  0
SEQEND
  8
0
  0
POLYLINE
  8
1
 66
1
 10
0.000000
 20
0.000000
 30
0.000000
 40
0.020000
 41
0.020000
 70
0
  0
VERTEX
  8
1
 10
3.450000
 20
1.375000
 30
0.000000
  0
VERTEX
  8
1
 10
3.558071
 20
1.483071
 30
0.000000
  0
SEQEND
  8
0
  0
POLYLINE
  8
1
 66
1
 10
0.000000
 20
0.000000
 30
0.000000
 40
0.010000
 41
0.010000
 70
0
  0
VERTEX
  8
1
 10
3.561606
 20
1.479535
 30
0.000000
 42
1.000000
  0
VERTEX
  8
1
 10
3.554535
 20
1.486606
 30
0.000000
  0
SEQEND
  8
0
  0
POLYLINE
  8
1
 66
1
 10
0.000000
 20
0.000000
 30
0.000000
 40
0.010000
 41
0.010000
 70
0
  0
VERTEX
  8
1
 10
3.446464
 20
1.378536
 30
0.000000
 42
1.000000
  0
VERTEX
  8
1
 10
3.453536
 20
1.371464
 30
0.000000
  0
SEQEND
  8
0
  0
POLYLINE
  8
1
 66
1
 10
0.000000
 20
0.000000
 30
0.000000
 40
0.020000
 41
0.020000
 70
0
  0
VERTEX
  8
1
 10
3.558071
 20
1.483071
 30
0.000000
  0
VERTEX
  8
1
 10
3.558071
 20
1.487500
 30
0.000000
  0
SEQEND
  8
0
  0
POLYLINE
  8
1
 66
1
 10
0.000000
 20
0.000000
 30
0.000000
 40
0.010000
 41
0.010000
 70
0
  0
VERTEX
  8
1
 10
3.563071
 20
1.487500
 30
0.000000
 42
1.000000
  0
VERTEX
  8
1
 10
3.553071
 20
1.487500
 30
0.000000
  0
SEQEND
  8
0
  0
POLYLINE
  8
1
 66
1
 10
0.000000
 20
0.000000
 30
0.000000
 40
0.010000
 41
0.010000
 70
0
  0
VERTEX
  8
1
 10
3.553071
 20
1.483071
 30
0.000000
 42
1.000000
  0
VERTEX
  8
1
 10
3.563071
 20
1.483071
 30
0.000000
  0
SEQEND
  8
0
  0
POLYLINE
  8
1
 66
1
 10
0.000000
 20
0.000000
 30
0.000000
 40
0.020000
 41
0.020000
 70
0
  0
VERTEX
  8
1
 10
1.158071
 20
0.762500
 30
0.000000
  0
VERTEX
  8
1
 10
1.162500
 20
0.766929
 30
0.000000
  0
SEQEND
  8
0
  0
POLYLINE
  8
1
 66
1
 10
0.000000
 20
0.000000
 30
0.000000
 40
0.010000
 41
0.010000
 70
0
  0
VERTEX
  8
1
 10
1.166036
 20
0.763394
 30
0.000000
 42
1.000000
  0
VERTEX
  8
1
 10
1.158964
 20
0.770465
 30
0.000000
  0
SEQEND
  8
0
  0
POLYLINE
  8
1
 66
1
 10
0.000000
 20
0.000000
 30
0.000000
 40
0.010000
 41
0.010000
 70
0
  0
VERTEX
  8
1
 10
1.154535
 20
0.766036
 30
0.000000
 42
1.000000
  0
VERTEX
  8
1
 10
1.161606
 20
0.758964
 30
0.000000
  0
SEQEND
  8
0
  0
POLYLINE
  8
1
 66
1
 10
0.000000
 20
0.000000
 30
0.000000
 40
0.020000
 41
0.020000
 70
0
  0
VERTEX
  8
1
 10
1.162500
 20
0.766929
 30
0.000000
  0
VERTEX
  8
1
 10
1.162500
 20
0.825000
 30
0.000000
  0
SEQEND
  8
0
  0
POLYLINE
  8
1
 66
1
 10
0.000000
 20
0.000000
 30
0.000000
 40
0.010000
 41
0.010000
 70
0
  0
VERTEX
  8
1
 10
1.167500
 20
0.825000
 30
0.000000
 42
1.000000
  0
VERTEX
  8
1
 10
1.157500
 20
0.825000
 30
0.000000
  0
SEQEND
  8
0
  0
POLYLINE
  8
1
 66
1
 10
0.000000
 20
0.000000
 30
0.000000
 40
0.010000
 41
0.010000
 70
0
  0
VERTEX
  8
1
 10
1.157500
 20
0.766929
 30
0.000000
 42
1.000000
  0
VERTEX
  8
1
 10
1.167500
 20
0.766929
 30
0.000000
  0
SEQEND
  8
0
  0
POLYLINE
  8
1
 66
1
 10
0.000000
 20
0.000000
 30
0.000000
 40
0.020000
 41
0.020000
 70
0
  0
VERTEX
  8
1
 10
1.162500
 20
0.825000
 30
0.000000
  0
VERTEX
  8
1
 10
1.187500
 20
0.850000
 30
0.000000
  0
SEQEND
  8
0
  0
POLYLINE
  8
1
 66
1
 10
0.000000
 20
0.000000
 30
0.000000
 40
0.010000
 41
0.010000
 70
0
  0
VERTEX
  8
1
 10
1.191036
 20
0.846464
 30
0.000000
 42
1.000000
  0
VERTEX
  8
1
 10
1.183964
 20
0.853536
 30
0.000000
  0
SEQEND
  8
0
  0
POLYLINE
  8
1
 66
1
 10
0.000000
 20
0.000000
 30
0.000000
 40
0.010000
 41
0.010000
 70
0
  0
VERTEX
  8
1
 10
1.158964
 20
0.828536
 30
0.000000
 42
1.000000
  0
VERTEX
  8
1
 10
1.166036
 20
0.821464
 30
0.000000
  0
SEQEND
  8
0
  0
POLYLINE
  8
1
 66
1
 10
0.000000
 20
0.000000
 30
0.000000
 40
0.020000
 41
0.020000
 70
0
  0
VERTEX
  8
1
 10
1.187500
 20
0.850000
 30
0.000000
  0
VERTEX
  8
1
 10
1.637500
 20
0.850000
 30
0.000000
  0
SEQEND
  8
0
  0
POLYLINE
  8
1
 66
1
 10
0.000000
 20
0.000000
 30
0.000000
 40
0.010000
 41
0.010000
 70
0
  0
VERTEX
  8
1
 10
1.637500
 20
0.845000
 30
0.000000
 42
1.000000
  0
VERTEX
  8
1
 10
1.637500
 20
0.855000
 30
0.000000
  0
SEQEND
  8
0
  0
POLYLINE
  8
1
 66
1
 10
0.000000
 20
0.000000
 30
0.000000
 40
0.010000
 41
0.010000
 70
0
  0
VERTEX
  8
1
 10
1.187500
 20
0.855000
 30
0.000000
 42
1.000000
  0
VERTEX
  8
1
 10
1.187500
 20
0.845000
 30
0.000000
  0
SEQEND
  8
0
  0
POLYLINE
  8
1
 66
1
 10
0.000000
 20
0.000000
 30
0.000000
 40
0.020000
 41
0.020000
 70
0
  0
VERTEX
  8
1
 10
1.687500
 20
0.800000
 30
0.000000
  0
VERTEX
  8
1
 10
1.637500
 20
0.850000
 30
0.000000
  0
SEQEND
  8
0
  0
POLYLINE
  8
1
 66
1
 10
0.000000
 20
0.000000
 30
0.000000
 40
0.010000
 41
0.010000
 70
0
  0
VERTEX
  8
1
 10
1.641036
 20
0.853536
 30
0.000000
 42
1.000000
  0
VERTEX
  8
1
 10
1.633964
 20
0.846464
 30
0.000000
  0
SEQEND
  8
0
  0
POLYLINE
  8
1
 66
1
 10
0.000000
 20
0.000000
 30
0.000000
 40
0.010000
 41
0.010000
 70
0
  0
VERTEX
  8
1
 10
1.683964
 20
0.796464
 30
0.000000
 42
1.000000
  0
VERTEX
  8
1
 10
1.691036
 20
0.803536
 30
0.000000
  0
SEQEND
  8
0
  0
POLYLINE
  8
1
 66
1
 10
0.000000
 20
0.000000
 30
0.000000
 40
0.020000
 41
0.020000
 70
0
  0
VERTEX
  8
1
 10
1.687500
 20
0.800000
 30
0.000000
  0
VERTEX
  8
1
 10
1.687500
 20
0.600000
 30
0.000000
  0
SEQEND
  8
0
  0
POLYLINE
  8
1
 66
1
 10
0.000000
 20
0.000000
 30
0.000000
 40
0.010000
 41
0.010000
 70
0
  0
VERTEX
  8
1
 10
1.682500
 20
0.600000
 30
0.000000
 42
1.000000
  0
VERTEX
  8
1
 10
1.692500
 20
0.600000
 30
0.000000
  0
SEQEND
  8
0
  0
POLYLINE
  8
1
 66
1
 10
0.000000
 20
0.000000
 30
0.000000
 40
0.010000
 41
0.010000
 70
0
  0
VERTEX
  8
1
 10
1.692500
 20
0.800000
 30
0.000000
 42
1.000000
  0
VERTEX
  8
1
 10
1.682500
 20
0.800000
 30
0.000000
  0
SEQEND
  8
0
  0
POLYLINE
  8
1
 66
1
 10
0.000000
 20
0.000000
 30
0.000000
 40
0.020000
 41
0.020000
 70
0
  0
VERTEX
  8
1
 10
1.687500
 20
0.600000
 30
0.000000
  0
VERTEX
  8
1
 10
1.725000
 20
0.562500
 30
0.000000
  0
SEQEND
  8
0
  0
POLYLINE
  8
1
 66
1
 10
0.000000
 20
0.000000
 30
0.000000
 40
0.010000
 41
0.010000
 70
0
  0
VERTEX
  8
1
 10
1.721464
 20
0.558964
 30
0.000000
 42
1.000000
  0
VERTEX
  8
1
 10
1.728536
 20
0.566036
 30
0.000000
  0
SEQEND
  8
0
  0
POLYLINE
  8
1
 66
1
 10
0.000000
 20
0.000000
 30
0.000000
 40
0.010000
 41
0.010000
 70
0
  0
VERTEX
  8
1
 10
1.691036
 20
0.603536
 30
0.000000
 42
1.000000
  0
VERTEX
  8
1
 10
1.683964
 20
0.596464
 30
0.000000
  0
SEQEND
  8
0
  0
POLYLINE
  8
1
 66
1
 10
0.000000
 20
0.000000
 30
0.000000
 40
0.020000
 41
0.020000
 70
0
  0
VERTEX
  8
1
 10
3.050000
 20
0.562500
 30
0.000000
  0
VERTEX
  8
1
 10
3.150000
 20
0.662500
 30
0.000000
  0
SEQEND
  8
0
  0
POLYLINE
  8
1
 66
1
 10
0.000000
 20
0.000000
 30
0.000000
 40
0.010000
 41
0.010000
 70
0
  0
VERTEX
  8
1
 10
3.153536
 20
0.658964
 30
0.000000
 42
1.000000
  0
VERTEX
  8
1
 10
3.146464
 20
0.666036
 30
0.000000
  0
SEQEND
  8
0
  0
POLYLINE
  8
1
 66
1
 10
0.000000
 20
0.000000
 30
0.000000
 40
0.010000
 41
0.010000
 70
0
  0
VERTEX
  8
1
 10
3.046464
 20
0.566036
 30
0.000000
 42
1.000000
  0
VERTEX
  8
1
 10
3.053536
 20
0.558964
 30
0.000000
  0
SEQEND
  8
0
  0
POLYLINE
  8
1
 66
1
 10
0.000000
 20
0.000000
 30
0.000000
 40
0.020000
 41
0.020000
 70
0
  0
VERTEX
  8
1
 10
3.150000
 20
0.662500
 30
0.000000
  0
VERTEX
  8
1
 10
3.150000
 20
1.100000
 30
0.000000
  0
SEQEND
  8
0
  0
POLYLINE
  8
1
 66
1
 10
0.000000
 20
0.000000
 30
0.000000
 40
0.010000
 41
0.010000
 70
0
  0
VERTEX
  8
1
 10
3.155000
 20
1.100000
 30
0.000000
 42
1.000000
  0
VERTEX
  8
1
 10
3.145000
 20
1.100000
 30
0.000000
  0
SEQEND
  8
0
  0
POLYLINE
  8
1
 66
1
 10
0.000000
 20
0.000000
 30
0.000000
 40
0.010000
 41
0.010000
 70
0
  0
VERTEX
  8
1
 10
3.145000
 20
0.662500
 30
0.000000
 42
1.000000
  0
VERTEX
  8
1
 10
3.155000
 20
0.662500
 30
0.000000
  0
SEQEND
  8
0
  0
POLYLINE
  8
1
 66
1
 10
0.000000
 20
0.000000
 30
0.000000
 40
0.020000
 41
0.020000
 70
0
  0
VERTEX
  8
1
 10
3.212500
 20
1.162500
 30
0.000000
  0
VERTEX
  8
1
 10
3.400000
 20
1.162500
 30
0.000000
  0
SEQEND
  8
0
  0
POLYLINE
  8
1
 66
1
 10
0.000000
 20
0.000000
 30
0.000000
 40
0.010000
 41
0.010000
 70
0
  0
VERTEX
  8
1
 10
3.400000
 20
1.157500
 30
0.000000
 42
1.000000
  0
VERTEX
  8
1
 10
3.400000
 20
1.167500
 30
0.000000
  0
SEQEND
  8
0
  0
POLYLINE
  8
1
 66
1
 10
0.000000
 20
0.000000
 30
0.000000
 40
0.010000
 41
0.010000
 70
0
  0
VERTEX
  8
1
 10
3.212500
 20
1.167500
 30
0.000000
 42
1.000000
  0
VERTEX
  8
1
 10
3.212500
 20
1.157500
 30
0.000000
  0
SEQEND
  8
0
  0
POLYLINE
  8
1
 66
1
 10
0.000000
 20
0.000000
 30
0.000000
 40
0.020000
 41
0.020000
 70
0
  0
VERTEX
  8
1
 10
3.400000
 20
1.162500
 30
0.000000
  0
VERTEX
  8
1
 10
3.450000
 20
1.212500
 30
0.000000
  0
SEQEND
  8
0
  0
POLYLINE
  8
1
 66
1
 10
0.000000
 20
0.000000
 30
0.000000
 40
0.010000
 41
0.010000
 70
0
  0
VERTEX
  8
1
 10
3.453536
 20
1.208964
 30
0.000000
 42
1.000000
  0
VERTEX
  8
1
 10
3.446464
 20
1.216036
 30
0.000000
  0
SEQEND
  8
0
  0
POLYLINE
  8
1
 66
1
 10
0.000000
 20
0.000000
 30
0.000000
 40
0.010000
 41
0.010000
 70
0
  0
VERTEX
  8
1
 10
3.396464
 20
1.166036
 30
0.000000
 42
1.000000
  0
VERTEX
  8
1
 10
3.403536
 20
1.158964
 30
0.000000
  0
SEQEND
  8
0
  0
POLYLINE
  8
1
 66
1
 10
0.000000
 20
0.000000
 30
0.000000
 40
0.020000
 41
0.020000
 70
0
  0
VERTEX
  8
1
 10
3.450000
 20
1.212500
 30
0.000000
  0
VERTEX
  8
1
 10
3.450000
 20
1.375000
 30
0.000000
  0
SEQEND
  8
0
  0
POLYLINE
  8
1
 66
1
 10
0.000000
 20
0.000000
 30
0.000000
 40
0.010000
 41
0.010000
 70
0
  0
VERTEX
  8
1
 10
3.455000
 20
1.375000
 30
0.000000
 42
1.000000
  0
VERTEX
  8
1
 10
3.445000
 20
1.375000
 30
0.000000
  0
SEQEND
  8
0
  0
POLYLINE
  8
1
 66
1
 10
0.000000
 20
0.000000
 30
0.000000
 40
0.010000
 41
0.010000
 70
0
  0
VERTEX
  8
1
 10
3.445000
 20
1.212500
 30
0.000000
 42
1.000000
  0
VERTEX
  8
1
 10
3.455000
 20
1.212500
 30
0.000000
  0
SEQEND
  8
0
  0
POLYLINE
  8
1
 66
1
 10
0.000000
 20
0.000000
 30
0.000000
 40
0.020000
 41
0.020000
 70
0
  0
VERTEX
  8
1
 10
1.725000
 20
0.562500
 30
0.000000
  0
VERTEX
  8
1
 10
3.050000
 20
0.562500
 30
0.000000
  0
SEQEND
  8
0
  0
POLYLINE
  8
1
 66
1
 10
0.000000
 20
0.000000
 30
0.000000
 40
0.010000
 41
0.010000
 70
0
  0
VERTEX
  8
1
 10
3.050000
 20
0.557500
 30
0.000000
 42
1.000000
  0
VERTEX
  8
1
 10
3.050000
 20
0.567500
 30
0.000000
  0
SEQEND
  8
0
  0
POLYLINE
  8
1
 66
1
 10
0.000000
 20
0.000000
 30
0.000000
 40
0.010000
 41
0.010000
 70
0
  0
VERTEX
  8
1
 10
1.725000
 20
0.567500
 30
0.000000
 42
1.000000
  0
VERTEX
  8
1
 10
1.725000
 20
0.557500
 30
0.000000
  0
SEQEND
  8
0
  0
POLYLINE
  8
1
 66
1
 10
0.000000
 20
0.000000
 30
0.000000
 40
0.020000
 41
0.020000
 70
0
  0
VERTEX
  8
1
 10
3.150000
 20
1.100000
 30
0.000000
  0
VERTEX
  8
1
 10
3.212500
 20
1.162500
 30
0.000000
  0
SEQEND
  8
0
  0
POLYLINE
  8
1
 66
1
 10
0.000000
 20
0.000000
 30
0.000000
 40
0.010000
 41
0.010000
 70
0
  0
VERTEX
  8
1
 10
3.216036
 20
1.158964
 30
0.000000
 42
1.000000
  0
VERTEX
  8
1
 10
3.208964
 20
1.166036
 30
0.000000
  0
SEQEND
  8
0
  0
POLYLINE
  8
1
 66
1
 10
0.000000
 20
0.000000
 30
0.000000
 40
0.010000
 41
0.010000
 70
0
  0
VERTEX
  8
1
 10
3.146464
 20
1.103536
 30
0.000000
 42
1.000000
  0
VERTEX
  8
1
 10
3.153536
 20
1.096464
 30
0.000000
  0
SEQEND
  8
0
  0
POLYLINE
  8
1
 66
1
 10
0.000000
 20
0.000000
 30
0.000000
 40
0.020000
 41
0.020000
 70
0
  0
VERTEX
  8
1
 10
3.558071
 20
1.487500
 30
0.000000
  0
VERTEX
  8
1
 10
3.212500
 20
1.487500
 30
0.000000
  0
SEQEND
  8
0
  0
POLYLINE
  8
1
 66
1
 10
0.000000
 20
0.000000
 30
0.000000
 40
0.010000
 41
0.010000
 70
0
  0
VERTEX
  8
1
 10
3.212500
 20
1.492500
 30
0.000000
 42
1.000000
  0
VERTEX
  8
1
 10
3.212500
 20
1.482500
 30
0.000000
  0
SEQEND
  8
0
  0
POLYLINE
  8
1
 66
1
 10
0.000000
 20
0.000000
 30
0.000000
 40
0.010000
 41
0.010000
 70
0
  0
VERTEX
  8
1
 10
3.558071
 20
1.482500
 30
0.000000
 42
1.000000
  0
VERTEX
  8
1
 10
3.558071
 20
1.492500
 30
0.000000
  0
SEQEND
  8
0
  0
POLYLINE
  8
1
 66
1
 10
0.000000
 20
0.000000
 30
0.000000
 40
0.020000
 41
0.020000
 70
0
  0
VERTEX
  8
1
 10
1.116929
 20
1.125000
 30
0.000000
  0
VERTEX
  8
1
 10
1.116929
 20
1.179429
 30
0.000000
  0
SEQEND
  8
0
  0
POLYLINE
  8
1
 66
1
 10
0.000000
 20
0.000000
 30
0.000000
 40
0.010000
 41
0.010000
 70
0
  0
VERTEX
  8
1
 10
1.121929
 20
1.179429
 30
0.000000
 42
1.000000
  0
VERTEX
  8
1
 10
1.111929
 20
1.179429
 30
0.000000
  0
SEQEND
  8
0
  0
POLYLINE
  8
1
 66
1
 10
0.000000
 20
0.000000
 30
0.000000
 40
0.010000
 41
0.010000
 70
0
  0
VERTEX
  8
1
 10
1.111929
 20
1.125000
 30
0.000000
 42
1.000000
  0
VERTEX
  8
1
 10
1.121929
 20
1.125000
 30
0.000000
  0
SEQEND
  8
0
  0
POLYLINE
  8
1
 66
1
 10
0.000000
 20
0.000000
 30
0.000000
 40
0.020000
 41
0.020000
 70
0
  0
VERTEX
  8
1
 10
1.116929
 20
1.179429
 30
0.000000
  0
VERTEX
  8
1
 10
1.162500
 20
1.225000
 30
0.000000
  0
SEQEND
  8
0
  0
POLYLINE
  8
1
 66
1
 10
0.000000
 20
0.000000
 30
0.000000
 40
0.010000
 41
0.010000
 70
0
  0
VERTEX
  8
1
 10
1.166036
 20
1.221464
 30
0.000000
 42
1.000000
  0
VERTEX
  8
1
 10
1.158964
 20
1.228536
 30
0.000000
  0
SEQEND
  8
0
  0
POLYLINE
  8
1
 66
1
 10
0.000000
 20
0.000000
 30
0.000000
 40
0.010000
 41
0.010000
 70
0
  0
VERTEX
  8
1
 10
1.113394
 20
1.182965
 30
0.000000
 42
1.000000
  0
VERTEX
  8
1
 10
1.120465
 20
1.175894
 30
0.000000
  0
SEQEND
  8
0
  0
POLYLINE
  8
1
 66
1
 10
0.000000
 20
0.000000
 30
0.000000
 40
0.020000
 41
0.020000
 70
0
  0
VERTEX
  8
1
 10
1.162500
 20
1.225000
 30
0.000000
  0
VERTEX
  8
1
 10
1.362500
 20
1.225000
 30
0.000000
  0
SEQEND
  8
0
  0
POLYLINE
  8
1
 66
1
 10
0.000000
 20
0.000000
 30
0.000000
 40
0.010000
 41
0.010000
 70
0
  0
VERTEX
  8
1
 10
1.362500
 20
1.220000
 30
0.000000
 42
1.000000
  0
VERTEX
  8
1
 10
1.362500
 20
1.230000
 30
0.000000
  0
SEQEND
  8
0
  0
POLYLINE
  8
1
 66
1
 10
0.000000
 20
0.000000
 30
0.000000
 40
0.010000
 41
0.010000
 70
0
  0
VERTEX
  8
1
 10
1.162500
 20
1.230000
 30
0.000000
 42
1.000000
  0
VERTEX
  8
1
 10
1.162500
 20
1.220000
 30
0.000000
  0
SEQEND
  8
0
  0
POLYLINE
  8
1
 66
1
 10
0.000000
 20
0.000000
 30
0.000000
 40
0.020000
 41
0.020000
 70
0
  0
VERTEX
  8
1
 10
1.362500
 20
1.225000
 30
0.000000
  0
VERTEX
  8
1
 10
1.412500
 20
1.175000
 30
0.000000
  0
SEQEND
  8
0
  0
POLYLINE
  8
1
 66
1
 10
0.000000
 20
0.000000
 30
0.000000
 40
0.010000
 41
0.010000
 70
0
  0
VERTEX
  8
1
 10
1.408964
 20
1.171464
 30
0.000000
 42
1.000000
  0
VERTEX
  8
1
 10
1.416036
 20
1.178536
 30
0.000000
  0
SEQEND
  8
0
  0
POLYLINE
  8
1
 66
1
 10
0.000000
 20
0.000000
 30
0.000000
 40
0.010000
 41
0.010000
 70
0
  0
VERTEX
  8
1
 10
1.366036
 20
1.228536
 30
0.000000
 42
1.000000
  0
VERTEX
  8
1
 10
1.358964
 20
1.221464
 30
0.000000
  0
SEQEND
  8
0
  0
POLYLINE
  8
1
 66
1
 10
0.000000
 20
0.000000
 30
0.000000
 40
0.020000
 41
0.020000
 70
0
  0
VERTEX
  8
1
 10
1.412500
 20
1.175000
 30
0.000000
  0
VERTEX
  8
1
 10
1.412500
 20
1.137500
 30
0.000000
  0
SEQEND
  8
0
  0
POLYLINE
  8
1
 66
1
 10
0.000000
 20
0.000000
 30
0.000000
 40
0.010000
 41
0.010000
 70
0
  0
VERTEX
  8
1
 10
1.407500
 20
1.137500
 30
0.000000
 42
1.000000
  0
VERTEX
  8
1
 10
1.417500
 20
1.137500
 30
0.000000
  0
SEQEND
  8
0
  0
POLYLINE
  8
1
 66
1
 10
0.000000
 20
0.000000
 30
0.000000
 40
0.010000
 41
0.010000
 70
0
  0
VERTEX
  8
1
 10
1.417500
 20
1.175000
 30
0.000000
 42
1.000000
  0
VERTEX
  8
1
 10
1.407500
 20
1.175000
 30
0.000000
  0
SEQEND
  8
0
  0
POLYLINE
  8
1
 66
1
 10
0.000000
 20
0.000000
 30
0.000000
 40
0.020000
 41
0.020000
 70
0
  0
VERTEX
  8
1
 10
1.412500
 20
1.137500
 30
0.000000
  0
VERTEX
  8
1
 10
1.462500
 20
1.087500
 30
0.000000
  0
SEQEND
  8
0
  0
POLYLINE
  8
1
 66
1
 10
0.000000
 20
0.000000
 30
0.000000
 40
0.010000
 41
0.010000
 70
0
  0
VERTEX
  8
1
 10
1.458964
 20
1.083964
 30
0.000000
 42
1.000000
  0
VERTEX
  8
1
 10
1.466036
 20
1.091036
 30
0.000000
  0
SEQEND
  8
0
  0
POLYLINE
  8
1
 66
1
 10
0.000000
 20
0.000000
 30
0.000000
 40
0.010000
 41
0.010000
 70
0
  0
VERTEX
  8
1
 10
1.416036
 20
1.141036
 30
0.000000
 42
1.000000
  0
VERTEX
  8
1
 10
1.408964
 20
1.133964
 30
0.000000
  0
SEQEND
  8
0
  0
POLYLINE
  8
1
 66
1
 10
0.000000
 20
0.000000
 30
0.000000
 40
0.020000
 41
0.020000
 70
0
  0
VERTEX
  8
1
 10
1.462500
 20
1.087500
 30
0.000000
  0
VERTEX
  8
1
 10
1.687500
 20
1.087500
 30
0.000000
  0
SEQEND
  8
0
  0
POLYLINE
  8
1
 66
1
 10
0.000000
 20
0.000000
 30
0.000000
 40
0.010000
 41
0.010000
 70
0
  0
VERTEX
  8
1
 10
1.687500
 20
1.082500
 30
0.000000
 42
1.000000
  0
VERTEX
  8
1
 10
1.687500
 20
1.092500
 30
0.000000
  0
SEQEND
  8
0
  0
POLYLINE
  8
1
 66
1
 10
0.000000
 20
0.000000
 30
0.000000
 40
0.010000
 41
0.010000
 70
0
  0
VERTEX
  8
1
 10
1.462500
 20
1.092500
 30
0.000000
 42
1.000000
  0
VERTEX
  8
1
 10
1.462500
 20
1.082500
 30
0.000000
  0
SEQEND
  8
0
  0
POLYLINE
  8
1
 66
1
 10
0.000000
 20
0.000000
 30
0.000000
 40
0.020000
 41
0.020000
 70
0
  0
VERTEX
  8
1
 10
1.687500
 20
1.087500
 30
0.000000
  0
VERTEX
  8
1
 10
1.737500
 20
1.037500
 30
0.000000
  0
SEQEND
  8
0
  0
POLYLINE
  8
1
 66
1
 10
0.000000
 20
0.000000
 30
0.000000
 40
0.010000
 41
0.010000
 70
0
  0
VERTEX
  8
1
 10
1.733964
 20
1.033964
 30
0.000000
 42
1.000000
  0
VERTEX
  8
1
 10
1.741036
 20
1.041036
 30
0.000000
  0
SEQEND
  8
0
  0
POLYLINE
  8
1
 66
1
 10
0.000000
 20
0.000000
 30
0.000000
 40
0.010000
 41
0.010000
 70
0
  0
VERTEX
  8
1
 10
1.691036
 20
1.091036
 30
0.000000
 42
1.000000
  0
VERTEX
  8
1
 10
1.683964
 20
1.083964
 30
0.000000
  0
SEQEND
  8
0
  0
POLYLINE
  8
1
 66
1
 10
0.000000
 20
0.000000
 30
0.000000
 40
0.020000
 41
0.020000
 70
0
  0
VERTEX
  8
1
 10
1.737500
 20
1.037500
 30
0.000000
  0
VERTEX
  8
1
 10
1.737500
 20
0.850000
 30
0.000000
  0
SEQEND
  8
0
  0
POLYLINE
  8
1
 66
1
 10
0.000000
 20
0.000000
 30
0.000000
 40
0.010000
 41
0.010000
 70
0
  0
VERTEX
  8
1
 10
1.732500
 20
0.850000
 30
0.000000
 42
1.000000
  0
VERTEX
  8
1
 10
1.742500
 20
0.850000
 30
0.000000
  0
SEQEND
  8
0
  0
POLYLINE
  8
1
 66
1
 10
0.000000
 20
0.000000
 30
0.000000
 40
0.010000
 41
0.010000
 70
0
  0
VERTEX
  8
1
 10
1.742500
 20
1.037500
 30
0.000000
 42
1.000000
  0
VERTEX
  8
1
 10
1.732500
 20
1.037500
 30
0.000000
  0
SEQEND
  8
0
  0
POLYLINE
  8
1
 66
1
 10
0.000000
 20
0.000000
 30
0.000000
 40
0.020000
 41
0.020000
 70
0
  0
VERTEX
  8
1
 10
1.737500
 20
0.850000
 30
0.000000
  0
VERTEX
  8
1
 10
1.687500
 20
0.800000
 30
0.000000
  0
SEQEND
  8
0
  0
POLYLINE
  8
1
 66
1
 10
0.000000
 20
0.000000
 30
0.000000
 40
0.010000
 41
0.010000
 70
0
  0
VERTEX
  8
1
 10
1.683964
 20
0.803536
 30
0.000000
 42
1.000000
  0
VERTEX
  8
1
 10
1.691036
 20
0.796464
 30
0.000000
  0
SEQEND
  8
0
  0
POLYLINE
  8
1
 66
1
 10
0.000000
 20
0.000000
 30
0.000000
 40
0.010000
 41
0.010000
 70
0
  0
VERTEX
  8
1
 10
1.741036
 20
0.846464
 30
0.000000
 42
1.000000
  0
VERTEX
  8
1
 10
1.733964
 20
0.853536
 30
0.000000
  0
SEQEND
  8
0
  0
ENDSEC
  0
EOF
